<?xml version="1.0" encoding="UTF-8" standalone="no"?>
<!DOCTYPE svg PUBLIC "-//W3C//DTD SVG 1.1//EN"
 "http://www.w3.org/Graphics/SVG/1.1/DTD/svg11.dtd">
<!-- Generated by graphviz version 2.33.20130816.0446 (20130816.0446)
 -->
<!-- Title: %3 Pages: 1 -->
<svg width="636pt" height="1452pt"
 viewBox="0.00 0.00 636.00 1452.00" xmlns="http://www.w3.org/2000/svg" xmlns:xlink="http://www.w3.org/1999/xlink">
<g id="graph0" class="graph" transform="scale(1 1) rotate(0) translate(4 1448)">
<title>%3</title>
<polygon fill="white" stroke="white" points="-4,5 -4,-1448 633,-1448 633,5 -4,5"/>
<g id="clust1" class="cluster"><title>cluster_launcher_pl</title>
<polygon fill="lightgrey" stroke="black" points="324,-1230 324,-1436 516,-1436 516,-1230 324,-1230"/>
<text text-anchor="middle" x="420" y="-1420" font-family="Times New Roman,serif" font-size="15.00">launcher.pl</text>
</g>
<g id="clust2" class="cluster"><title>cluster_lib_hash_pl</title>
<polygon fill="lightgrey" stroke="black" points="90,-236 90,-590 277,-590 277,-236 90,-236"/>
<text text-anchor="middle" x="183.5" y="-574" font-family="Times New Roman,serif" font-size="15.00">lib_hash.pl</text>
</g>
<g id="clust3" class="cluster"><title>cluster_lib_link_pl</title>
<polygon fill="lightgrey" stroke="black" points="198,-760 198,-894 394,-894 394,-760 198,-760"/>
<text text-anchor="middle" x="296" y="-878" font-family="Times New Roman,serif" font-size="15.00">lib_link.pl</text>
</g>
<g id="clust4" class="cluster"><title>cluster_lib_makeGvFile_pl</title>
<polygon fill="lightgrey" stroke="black" points="82,-1024 82,-1213 284,-1213 284,-1024 82,-1024"/>
<text text-anchor="middle" x="183" y="-1197" font-family="Times New Roman,serif" font-size="15.00">lib_makeGvFile.pl</text>
</g>
<g id="clust5" class="cluster"><title>cluster_lib_regexp_pl</title>
<polygon fill="lightgrey" stroke="black" points="312,-902 312,-1222 620,-1222 620,-902 312,-902"/>
<text text-anchor="middle" x="466" y="-1206" font-family="Times New Roman,serif" font-size="15.00">lib_regexp.pl</text>
</g>
<g id="clust6" class="cluster"><title>cluster_lib_utils_pl</title>
<polygon fill="lightgrey" stroke="black" points="306,-8 306,-472 523,-472 523,-8 306,-8"/>
<text text-anchor="middle" x="414.5" y="-456" font-family="Times New Roman,serif" font-size="15.00">lib_utils.pl</text>
</g>
<!-- interrupt -->
<g id="node1" class="node"><title>interrupt</title>
<polygon fill="none" stroke="black" points="332,-1366 332,-1402 386,-1402 386,-1366 332,-1366"/>
<text text-anchor="middle" x="359" y="-1381.5" font-family="Times New Roman,serif" font-size="10.00">interrupt</text>
</g>
<!-- envVpn -->
<g id="node2" class="node"><title>envVpn</title>
<polygon fill="none" stroke="black" points="454,-1239 454,-1275 508,-1275 508,-1239 454,-1239"/>
<text text-anchor="middle" x="481" y="-1254.5" font-family="Times New Roman,serif" font-size="10.00">envVpn</text>
</g>
<!-- getSelect -->
<g id="node3" class="node"><title>getSelect</title>
<polygon fill="none" stroke="black" points="332,-1239 332,-1275 386,-1275 386,-1239 332,-1239"/>
<text text-anchor="middle" x="359" y="-1254.5" font-family="Times New Roman,serif" font-size="10.00">getSelect</text>
</g>
<!-- getSelect&#45;&gt;envVpn -->
<g id="edge26" class="edge"><title>getSelect&#45;&gt;envVpn</title>
<path fill="none" stroke="#ee0000" d="M386.038,-1257C402.827,-1257 424.905,-1257 443.441,-1257"/>
<polygon fill="#ee0000" stroke="#ee0000" points="443.598,-1260.5 453.598,-1257 443.598,-1253.5 443.598,-1260.5"/>
</g>
<!-- getSelect&#45;&gt;getSelect -->
<g id="edge25" class="edge"><title>getSelect&#45;&gt;getSelect</title>
<path fill="none" stroke="blue" d="M353.754,-1275.15C352.947,-1284.54 354.695,-1293 359,-1293 361.623,-1293 363.297,-1289.86 364.022,-1285.28"/>
<polygon fill="blue" stroke="blue" points="367.524,-1285.23 364.246,-1275.15 360.526,-1285.07 367.524,-1285.23"/>
</g>
<!-- getSelect&#45;&gt;getSelect -->
<g id="edge27" class="edge"><title>getSelect&#45;&gt;getSelect</title>
<path fill="none" stroke="green" d="M350.207,-1275.26C345.647,-1292.4 348.578,-1311 359,-1311 367.386,-1311 370.922,-1298.96 369.608,-1285.32"/>
<polygon fill="green" stroke="green" points="373.012,-1284.48 367.793,-1275.26 366.124,-1285.72 373.012,-1284.48"/>
</g>
<!-- getSelect&#45;&gt;getSelect -->
<g id="edge29" class="edge"><title>getSelect&#45;&gt;getSelect</title>
<path fill="none" stroke="#8b2252" d="M347.993,-1275.08C338.254,-1299.41 341.923,-1329 359,-1329 373.876,-1329 378.577,-1306.55 373.105,-1284.68"/>
<polygon fill="#8b2252" stroke="#8b2252" points="376.41,-1283.52 370.007,-1275.08 369.748,-1285.67 376.41,-1283.52"/>
</g>
<!-- getSelect&#45;&gt;getSelect -->
<g id="edge30" class="edge"><title>getSelect&#45;&gt;getSelect</title>
<path fill="none" stroke="#8b4513" d="M346.395,-1275.11C330.896,-1306.24 335.098,-1347 359,-1347 380.568,-1347 386.095,-1313.81 375.582,-1284.46"/>
<polygon fill="#8b4513" stroke="#8b4513" points="378.74,-1282.94 371.605,-1275.11 372.299,-1285.68 378.74,-1282.94"/>
</g>
<!-- RegExpMain -->
<g id="node20" class="node"><title>RegExpMain</title>
<polygon fill="none" stroke="black" points="447,-911 447,-947 515,-947 515,-911 447,-911"/>
<text text-anchor="middle" x="481" y="-926.5" font-family="Times New Roman,serif" font-size="10.00">RegExpMain</text>
</g>
<!-- getSelect&#45;&gt;RegExpMain -->
<g id="edge24" class="edge"><title>getSelect&#45;&gt;RegExpMain</title>
<path fill="none" stroke="black" d="M365.627,-1238.55C384.056,-1183.69 442.869,-1022.55 468.204,-957.019"/>
<polygon fill="black" stroke="black" points="471.601,-957.942 471.972,-947.354 465.079,-955.4 471.601,-957.942"/>
</g>
<!-- getSelect&#45;&gt;RegExpMain -->
<g id="edge28" class="edge"><title>getSelect&#45;&gt;RegExpMain</title>
<path fill="none" stroke="#473c8b" d="M368.06,-1238.57C389.658,-1183.69 448.717,-1022.31 471.174,-956.863"/>
<polygon fill="#473c8b" stroke="#473c8b" points="474.549,-957.809 474.453,-947.215 467.921,-955.557 474.549,-957.809"/>
</g>
<!-- initNode -->
<g id="node4" class="node"><title>initNode</title>
<polygon fill="none" stroke="black" points="215,-355 215,-391 269,-391 269,-355 215,-355"/>
<text text-anchor="middle" x="242" y="-370.5" font-family="Times New Roman,serif" font-size="10.00">initNode</text>
</g>
<!-- initLegende -->
<g id="node5" class="node"><title>initLegende</title>
<polygon fill="none" stroke="black" points="98,-355 98,-391 162,-391 162,-355 98,-355"/>
<text text-anchor="middle" x="130" y="-370.5" font-family="Times New Roman,serif" font-size="10.00">initLegende</text>
</g>
<!-- initLegende&#45;&gt;initNode -->
<g id="edge32" class="edge"><title>initLegende&#45;&gt;initNode</title>
<path fill="none" stroke="black" d="M162.227,-366.845C175.489,-366.138 191.033,-366.061 204.793,-366.613"/>
<polygon fill="black" stroke="black" points="204.727,-370.115 214.901,-367.158 205.104,-363.125 204.727,-370.115"/>
</g>
<!-- initLegende&#45;&gt;initNode -->
<g id="edge33" class="edge"><title>initLegende&#45;&gt;initNode</title>
<path fill="none" stroke="blue" d="M162.227,-379.155C175.489,-379.862 191.033,-379.939 204.793,-379.387"/>
<polygon fill="blue" stroke="blue" points="205.104,-382.875 214.901,-378.842 204.727,-375.885 205.104,-382.875"/>
</g>
<!-- set_sched -->
<g id="node6" class="node"><title>set_sched</title>
<polygon fill="none" stroke="black" points="101,-520 101,-556 159,-556 159,-520 101,-520"/>
<text text-anchor="middle" x="130" y="-535.5" font-family="Times New Roman,serif" font-size="10.00">set_sched</text>
</g>
<!-- set_sched&#45;&gt;initNode -->
<g id="edge34" class="edge"><title>set_sched&#45;&gt;initNode</title>
<path fill="none" stroke="#ee0000" d="M143.192,-519.712C162.653,-490.52 200.828,-433.258 223.298,-399.553"/>
<polygon fill="#ee0000" stroke="#ee0000" points="226.286,-401.381 228.921,-391.119 220.462,-397.498 226.286,-401.381"/>
</g>
<!-- regexpSwitcher -->
<g id="node19" class="node"><title>regexpSwitcher</title>
<polygon fill="none" stroke="black" points="320.5,-983 320.5,-1019 397.5,-1019 397.5,-983 320.5,-983"/>
<text text-anchor="middle" x="359" y="-998.5" font-family="Times New Roman,serif" font-size="10.00">regexpSwitcher</text>
</g>
<!-- set_sched&#45;&gt;regexpSwitcher -->
<g id="edge35" class="edge"><title>set_sched&#45;&gt;regexpSwitcher</title>
<path fill="none" stroke="green" d="M140.435,-556.065C178.137,-627.397 307.183,-888.247 347.122,-973.773"/>
<polygon fill="green" stroke="green" points="343.952,-975.257 351.332,-982.859 350.304,-972.314 343.952,-975.257"/>
</g>
<!-- set_sched&#45;&gt;regexpSwitcher -->
<g id="edge36" class="edge"><title>set_sched&#45;&gt;regexpSwitcher</title>
<path fill="none" stroke="#473c8b" d="M137.619,-556.035C170.35,-627.369 299.37,-888.54 343.839,-973.921"/>
<polygon fill="#473c8b" stroke="#473c8b" points="340.85,-975.757 348.594,-982.988 347.049,-972.506 340.85,-975.757"/>
</g>
<!-- set_jobs -->
<g id="node7" class="node"><title>set_jobs</title>
<polygon fill="none" stroke="black" points="103,-410 103,-446 157,-446 157,-410 103,-410"/>
<text text-anchor="middle" x="130" y="-425.5" font-family="Times New Roman,serif" font-size="10.00">set_jobs</text>
</g>
<!-- set_jobs&#45;&gt;initNode -->
<g id="edge39" class="edge"><title>set_jobs&#45;&gt;initNode</title>
<path fill="none" stroke="darkorange" d="M157.068,-414.966C171.62,-407.69 189.95,-398.525 205.764,-390.618"/>
<polygon fill="darkorange" stroke="darkorange" points="207.358,-393.734 214.737,-386.131 204.228,-387.473 207.358,-393.734"/>
</g>
<!-- set_jobs&#45;&gt;RegExpMain -->
<g id="edge37" class="edge"><title>set_jobs&#45;&gt;RegExpMain</title>
<path fill="none" stroke="#8b2252" d="M144.858,-446.274C201.689,-522.349 405.076,-812.608 464.553,-902.454"/>
<polygon fill="#8b2252" stroke="#8b2252" points="461.743,-904.551 470.16,-910.985 467.592,-900.706 461.743,-904.551"/>
</g>
<!-- set_jobs&#45;&gt;RegExpMain -->
<g id="edge38" class="edge"><title>set_jobs&#45;&gt;RegExpMain</title>
<path fill="none" stroke="#8b4513" d="M140.89,-446.091C190.331,-521.961 394.111,-813.114 460.203,-902.72"/>
<polygon fill="#8b4513" stroke="#8b4513" points="457.566,-905.041 466.336,-910.986 463.188,-900.869 457.566,-905.041"/>
</g>
<!-- set_next -->
<g id="node8" class="node"><title>set_next</title>
<polygon fill="none" stroke="black" points="103,-300 103,-336 157,-336 157,-300 103,-300"/>
<text text-anchor="middle" x="130" y="-315.5" font-family="Times New Roman,serif" font-size="10.00">set_next</text>
</g>
<!-- set_next&#45;&gt;initNode -->
<g id="edge40" class="edge"><title>set_next&#45;&gt;initNode</title>
<path fill="none" stroke="#cd9b1d" d="M157.068,-325.194C172.045,-331.643 191.023,-340.983 207.143,-349.786"/>
<polygon fill="#cd9b1d" stroke="#cd9b1d" points="205.816,-353.054 216.252,-354.881 209.233,-346.944 205.816,-353.054"/>
</g>
<!-- set_next&#45;&gt;initNode -->
<g id="edge41" class="edge"><title>set_next&#45;&gt;initNode</title>
<path fill="none" stroke="#cd1076" d="M155.686,-336.084C170.406,-344.539 189.34,-354.21 205.629,-361.667"/>
<polygon fill="#cd1076" stroke="#cd1076" points="204.304,-364.908 214.863,-365.776 207.15,-358.513 204.304,-364.908"/>
</g>
<!-- set_conf -->
<g id="node9" class="node"><title>set_conf</title>
<polygon fill="none" stroke="black" points="103,-465 103,-501 157,-501 157,-465 103,-465"/>
<text text-anchor="middle" x="130" y="-480.5" font-family="Times New Roman,serif" font-size="10.00">set_conf</text>
</g>
<!-- set_conf&#45;&gt;initNode -->
<g id="edge43" class="edge"><title>set_conf&#45;&gt;initNode</title>
<path fill="none" stroke="black" d="M149.164,-464.836C167.316,-446.684 195.375,-418.625 215.702,-398.298"/>
<polygon fill="black" stroke="black" points="218.213,-400.737 222.809,-391.191 213.263,-395.787 218.213,-400.737"/>
</g>
<!-- set_conf&#45;&gt;regexpSwitcher -->
<g id="edge44" class="edge"><title>set_conf&#45;&gt;regexpSwitcher</title>
<path fill="none" stroke="blue" d="M138.016,-501.132C172.158,-578.361 305.582,-880.168 346.801,-973.406"/>
<polygon fill="blue" stroke="blue" points="343.686,-975.016 350.93,-982.747 350.088,-972.185 343.686,-975.016"/>
</g>
<!-- splitLine -->
<g id="node25" class="node"><title>splitLine</title>
<polygon fill="none" stroke="black" points="332,-911 332,-947 386,-947 386,-911 332,-911"/>
<text text-anchor="middle" x="359" y="-926.5" font-family="Times New Roman,serif" font-size="10.00">splitLine</text>
</g>
<!-- set_conf&#45;&gt;splitLine -->
<g id="edge42" class="edge"><title>set_conf&#45;&gt;splitLine</title>
<path fill="none" stroke="#838b8b" d="M139.261,-501.036C174.757,-570.168 302.274,-818.521 344.963,-901.662"/>
<polygon fill="#838b8b" stroke="#838b8b" points="341.943,-903.442 349.624,-910.739 348.17,-900.245 341.943,-903.442"/>
</g>
<!-- setCluster -->
<g id="node10" class="node"><title>setCluster</title>
<polygon fill="none" stroke="black" points="101.5,-245 101.5,-281 158.5,-281 158.5,-245 101.5,-245"/>
<text text-anchor="middle" x="130" y="-260.5" font-family="Times New Roman,serif" font-size="10.00">setCluster</text>
</g>
<!-- set_link_after -->
<g id="node11" class="node"><title>set_link_after</title>
<polygon fill="none" stroke="black" points="206.5,-769 206.5,-805 277.5,-805 277.5,-769 206.5,-769"/>
<text text-anchor="middle" x="242" y="-784.5" font-family="Times New Roman,serif" font-size="10.00">set_link_after</text>
</g>
<!-- makeLink -->
<g id="node13" class="node"><title>makeLink</title>
<polygon fill="none" stroke="black" points="332,-824 332,-860 386,-860 386,-824 332,-824"/>
<text text-anchor="middle" x="359" y="-839.5" font-family="Times New Roman,serif" font-size="10.00">makeLink</text>
</g>
<!-- set_link_after&#45;&gt;makeLink -->
<g id="edge46" class="edge"><title>set_link_after&#45;&gt;makeLink</title>
<path fill="none" stroke="blue" d="M277.504,-803.502C291.832,-810.354 308.44,-818.297 322.837,-825.183"/>
<polygon fill="blue" stroke="blue" points="321.4,-828.375 331.932,-829.533 324.42,-822.06 321.4,-828.375"/>
</g>
<!-- sort_unique_hash -->
<g id="node29" class="node"><title>sort_unique_hash</title>
<polygon fill="none" stroke="black" points="314,-402 314,-438 404,-438 404,-402 314,-402"/>
<text text-anchor="middle" x="359" y="-417.5" font-family="Times New Roman,serif" font-size="10.00">sort_unique_hash</text>
</g>
<!-- set_link_after&#45;&gt;sort_unique_hash -->
<g id="edge45" class="edge"><title>set_link_after&#45;&gt;sort_unique_hash</title>
<path fill="none" stroke="black" d="M248.703,-768.8C267.364,-709.247 326.697,-519.897 349.217,-448.031"/>
<polygon fill="black" stroke="black" points="352.612,-448.898 352.263,-438.309 345.933,-446.805 352.612,-448.898"/>
</g>
<!-- set_links -->
<g id="node12" class="node"><title>set_links</title>
<polygon fill="none" stroke="black" points="215,-824 215,-860 269,-860 269,-824 215,-824"/>
<text text-anchor="middle" x="242" y="-839.5" font-family="Times New Roman,serif" font-size="10.00">set_links</text>
</g>
<!-- set_links&#45;&gt;makeLink -->
<g id="edge47" class="edge"><title>set_links&#45;&gt;makeLink</title>
<path fill="none" stroke="#ee0000" d="M269.095,-830.478C284.571,-828.305 304.425,-827.922 321.444,-829.33"/>
<polygon fill="#ee0000" stroke="#ee0000" points="321.29,-832.833 331.61,-830.437 322.048,-825.875 321.29,-832.833"/>
</g>
<!-- set_links&#45;&gt;makeLink -->
<g id="edge48" class="edge"><title>set_links&#45;&gt;makeLink</title>
<path fill="none" stroke="green" d="M269.095,-842C284.571,-842 304.425,-842 321.444,-842"/>
<polygon fill="green" stroke="green" points="321.61,-845.5 331.61,-842 321.61,-838.5 321.61,-845.5"/>
</g>
<!-- set_links&#45;&gt;makeLink -->
<g id="edge49" class="edge"><title>set_links&#45;&gt;makeLink</title>
<path fill="none" stroke="#473c8b" d="M269.095,-853.522C284.571,-855.695 304.425,-856.078 321.444,-854.67"/>
<polygon fill="#473c8b" stroke="#473c8b" points="322.048,-858.125 331.61,-853.563 321.29,-851.167 322.048,-858.125"/>
</g>
<!-- setInNode -->
<g id="node14" class="node"><title>setInNode</title>
<polygon fill="none" stroke="black" points="212.5,-1088 212.5,-1124 271.5,-1124 271.5,-1088 212.5,-1088"/>
<text text-anchor="middle" x="242" y="-1103.5" font-family="Times New Roman,serif" font-size="10.00">setInNode</text>
</g>
<!-- addBrLine -->
<g id="node26" class="node"><title>addBrLine</title>
<polygon fill="none" stroke="black" points="330,-1088 330,-1124 388,-1124 388,-1088 330,-1088"/>
<text text-anchor="middle" x="359" y="-1103.5" font-family="Times New Roman,serif" font-size="10.00">addBrLine</text>
</g>
<!-- setInNode&#45;&gt;addBrLine -->
<g id="edge50" class="edge"><title>setInNode&#45;&gt;addBrLine</title>
<path fill="none" stroke="black" d="M271.723,-1106C286.101,-1106 303.714,-1106 319.269,-1106"/>
<polygon fill="black" stroke="black" points="319.643,-1109.5 329.643,-1106 319.643,-1102.5 319.643,-1109.5"/>
</g>
<!-- setInfoNode -->
<g id="node15" class="node"><title>setInfoNode</title>
<polygon fill="none" stroke="black" points="208.5,-1143 208.5,-1179 275.5,-1179 275.5,-1143 208.5,-1143"/>
<text text-anchor="middle" x="242" y="-1158.5" font-family="Times New Roman,serif" font-size="10.00">setInfoNode</text>
</g>
<!-- setInfoNode&#45;&gt;makeLink -->
<g id="edge53" class="edge"><title>setInfoNode&#45;&gt;makeLink</title>
<path fill="none" stroke="green" d="M249.512,-1142.94C268.681,-1089.76 324.995,-933.554 348.018,-869.689"/>
<polygon fill="green" stroke="green" points="351.318,-870.856 351.416,-860.262 344.732,-868.482 351.318,-870.856"/>
</g>
<!-- re_del_noAlpha -->
<g id="node24" class="node"><title>re_del_noAlpha</title>
<polygon fill="none" stroke="black" points="440,-1152 440,-1188 522,-1188 522,-1152 440,-1152"/>
<text text-anchor="middle" x="481" y="-1167.5" font-family="Times New Roman,serif" font-size="10.00">re_del_noAlpha</text>
</g>
<!-- setInfoNode&#45;&gt;re_del_noAlpha -->
<g id="edge51" class="edge"><title>setInfoNode&#45;&gt;re_del_noAlpha</title>
<path fill="none" stroke="blue" d="M275.736,-1162.27C315.811,-1163.78 383.083,-1166.31 429.636,-1168.07"/>
<polygon fill="blue" stroke="blue" points="429.697,-1171.57 439.822,-1168.45 429.961,-1164.58 429.697,-1171.57"/>
</g>
<!-- setInfoNode&#45;&gt;addBrLine -->
<g id="edge52" class="edge"><title>setInfoNode&#45;&gt;addBrLine</title>
<path fill="none" stroke="#ee0000" d="M275.647,-1145.39C289.701,-1138.66 306.207,-1130.77 320.738,-1123.82"/>
<polygon fill="#ee0000" stroke="#ee0000" points="322.444,-1126.88 329.955,-1119.41 319.424,-1120.57 322.444,-1126.88"/>
</g>
<!-- buildNodes -->
<g id="node16" class="node"><title>buildNodes</title>
<polygon fill="none" stroke="black" points="98.5,-1143 98.5,-1179 161.5,-1179 161.5,-1143 98.5,-1143"/>
<text text-anchor="middle" x="130" y="-1158.5" font-family="Times New Roman,serif" font-size="10.00">buildNodes</text>
</g>
<!-- buildNodes&#45;&gt;setInNode -->
<g id="edge54" class="edge"><title>buildNodes&#45;&gt;setInNode</title>
<path fill="none" stroke="#473c8b" d="M161.641,-1145.68C174.554,-1139.22 189.712,-1131.64 203.3,-1124.85"/>
<polygon fill="#473c8b" stroke="#473c8b" points="205.032,-1127.9 212.411,-1120.29 201.901,-1121.64 205.032,-1127.9"/>
</g>
<!-- buildNodes&#45;&gt;setInfoNode -->
<g id="edge55" class="edge"><title>buildNodes&#45;&gt;setInfoNode</title>
<path fill="none" stroke="#8b2252" d="M161.641,-1161C172.851,-1161 185.754,-1161 197.852,-1161"/>
<polygon fill="#8b2252" stroke="#8b2252" points="198.215,-1164.5 208.215,-1161 198.215,-1157.5 198.215,-1164.5"/>
</g>
<!-- setClusterColor -->
<g id="node17" class="node"><title>setClusterColor</title>
<polygon fill="none" stroke="black" points="90.5,-1088 90.5,-1124 169.5,-1124 169.5,-1088 90.5,-1088"/>
<text text-anchor="middle" x="130" y="-1103.5" font-family="Times New Roman,serif" font-size="10.00">setClusterColor</text>
</g>
<!-- writeVgFile -->
<g id="node18" class="node"><title>writeVgFile</title>
<polygon fill="none" stroke="black" points="99,-1033 99,-1069 161,-1069 161,-1033 99,-1033"/>
<text text-anchor="middle" x="130" y="-1048.5" font-family="Times New Roman,serif" font-size="10.00">writeVgFile</text>
</g>
<!-- writeVgFile&#45;&gt;sort_unique_hash -->
<g id="edge57" class="edge"><title>writeVgFile&#45;&gt;sort_unique_hash</title>
<path fill="none" stroke="darkorange" d="M136.607,-1032.8C168.86,-943.924 309.805,-555.556 348.907,-447.81"/>
<polygon fill="darkorange" stroke="darkorange" points="352.245,-448.872 352.367,-438.278 345.665,-446.484 352.245,-448.872"/>
</g>
<!-- _add_carac -->
<g id="node36" class="node"><title>_add_carac</title>
<polygon fill="none" stroke="black" points="327.5,-347 327.5,-383 390.5,-383 390.5,-347 327.5,-347"/>
<text text-anchor="middle" x="359" y="-362.5" font-family="Times New Roman,serif" font-size="10.00">_add_carac</text>
</g>
<!-- writeVgFile&#45;&gt;_add_carac -->
<g id="edge56" class="edge"><title>writeVgFile&#45;&gt;_add_carac</title>
<path fill="none" stroke="#8b4513" d="M136.125,-1032.65C167.647,-938.225 311.576,-507.065 349.707,-392.838"/>
<polygon fill="#8b4513" stroke="#8b4513" points="353.116,-393.681 352.962,-383.087 346.476,-391.464 353.116,-393.681"/>
</g>
<!-- re_freq -->
<g id="node21" class="node"><title>re_freq</title>
<polygon fill="none" stroke="black" points="454,-987 454,-1023 508,-1023 508,-987 454,-987"/>
<text text-anchor="middle" x="481" y="-1002.5" font-family="Times New Roman,serif" font-size="10.00">re_freq</text>
</g>
<!-- regexpSwitcher&#45;&gt;re_freq -->
<g id="edge59" class="edge"><title>regexpSwitcher&#45;&gt;re_freq</title>
<path fill="none" stroke="blue" d="M397.64,-1002.25C412.352,-1002.75 429.157,-1003.31 443.735,-1003.79"/>
<polygon fill="blue" stroke="blue" points="443.783,-1007.29 453.894,-1004.13 444.016,-1000.3 443.783,-1007.29"/>
</g>
<!-- re_opens -->
<g id="node22" class="node"><title>re_opens</title>
<polygon fill="none" stroke="black" points="454,-1042 454,-1078 508,-1078 508,-1042 454,-1042"/>
<text text-anchor="middle" x="481" y="-1057.5" font-family="Times New Roman,serif" font-size="10.00">re_opens</text>
</g>
<!-- regexpSwitcher&#45;&gt;re_opens -->
<g id="edge60" class="edge"><title>regexpSwitcher&#45;&gt;re_opens</title>
<path fill="none" stroke="#ee0000" d="M396.656,-1019.02C411.953,-1026.54 429.649,-1035.24 444.789,-1042.69"/>
<polygon fill="#ee0000" stroke="#ee0000" points="443.323,-1045.87 453.842,-1047.14 446.412,-1039.59 443.323,-1045.87"/>
</g>
<!-- re_at -->
<g id="node23" class="node"><title>re_at</title>
<polygon fill="none" stroke="black" points="454,-1097 454,-1133 508,-1133 508,-1097 454,-1097"/>
<text text-anchor="middle" x="481" y="-1112.5" font-family="Times New Roman,serif" font-size="10.00">re_at</text>
</g>
<!-- regexpSwitcher&#45;&gt;re_at -->
<g id="edge61" class="edge"><title>regexpSwitcher&#45;&gt;re_at</title>
<path fill="none" stroke="green" d="M379.014,-1019.06C399.083,-1038.13 430.871,-1068.33 453.416,-1089.75"/>
<polygon fill="green" stroke="green" points="451.017,-1092.29 460.677,-1096.64 455.838,-1087.22 451.017,-1092.29"/>
</g>
<!-- regexpSwitcher&#45;&gt;re_del_noAlpha -->
<g id="edge58" class="edge"><title>regexpSwitcher&#45;&gt;re_del_noAlpha</title>
<path fill="none" stroke="black" d="M372.842,-1019.09C394.079,-1048.99 436.607,-1108.89 461.221,-1143.55"/>
<polygon fill="black" stroke="black" points="458.426,-1145.66 467.069,-1151.79 464.133,-1141.61 458.426,-1145.66"/>
</g>
<!-- trim -->
<g id="node27" class="node"><title>trim</title>
<polygon fill="none" stroke="black" points="558,-995 558,-1031 612,-1031 612,-995 558,-995"/>
<text text-anchor="middle" x="585" y="-1010.5" font-family="Times New Roman,serif" font-size="10.00">trim</text>
</g>
<!-- regexpSwitcher&#45;&gt;trim -->
<g id="edge62" class="edge"><title>regexpSwitcher&#45;&gt;trim</title>
<path fill="none" stroke="#473c8b" d="M397.594,-1003.05C439.577,-1005.28 506.227,-1008.82 547.696,-1011.02"/>
<polygon fill="#473c8b" stroke="#473c8b" points="547.749,-1014.53 557.921,-1011.56 548.12,-1007.54 547.749,-1014.53"/>
</g>
<!-- re_opens&#45;&gt;trim -->
<g id="edge63" class="edge"><title>re_opens&#45;&gt;trim</title>
<path fill="none" stroke="#8b2252" d="M508.003,-1042.05C520.257,-1035.57 535.068,-1028.58 548.349,-1022.96"/>
<polygon fill="#8b2252" stroke="#8b2252" points="549.762,-1026.16 557.69,-1019.13 547.109,-1019.68 549.762,-1026.16"/>
</g>
<!-- re_opens&#45;&gt;trim -->
<g id="edge64" class="edge"><title>re_opens&#45;&gt;trim</title>
<path fill="none" stroke="#8b4513" d="M508.003,-1053.99C520.376,-1049.13 535.356,-1042.39 548.735,-1035.71"/>
<polygon fill="#8b4513" stroke="#8b4513" points="550.388,-1038.79 557.69,-1031.11 547.195,-1032.56 550.388,-1038.79"/>
</g>
<!-- splitLine&#45;&gt;RegExpMain -->
<g id="edge66" class="edge"><title>splitLine&#45;&gt;RegExpMain</title>
<path fill="none" stroke="#cd9b1d" d="M386.038,-917.643C400.766,-915.551 419.564,-914.99 436.471,-915.963"/>
<polygon fill="#cd9b1d" stroke="#cd9b1d" points="436.457,-919.472 446.7,-916.766 437.005,-912.494 436.457,-919.472"/>
</g>
<!-- splitLine&#45;&gt;RegExpMain -->
<g id="edge67" class="edge"><title>splitLine&#45;&gt;RegExpMain</title>
<path fill="none" stroke="#cd1076" d="M386.038,-929C400.766,-929 419.564,-929 436.471,-929"/>
<polygon fill="#cd1076" stroke="#cd1076" points="436.7,-932.5 446.7,-929 436.7,-925.5 436.7,-932.5"/>
</g>
<!-- splitLine&#45;&gt;RegExpMain -->
<g id="edge68" class="edge"><title>splitLine&#45;&gt;RegExpMain</title>
<path fill="none" stroke="#838b8b" d="M386.038,-940.357C400.766,-942.449 419.564,-943.01 436.471,-942.037"/>
<polygon fill="#838b8b" stroke="#838b8b" points="437.005,-945.506 446.7,-941.234 436.457,-938.528 437.005,-945.506"/>
</g>
<!-- splitLine&#45;&gt;re_del_noAlpha -->
<g id="edge65" class="edge"><title>splitLine&#45;&gt;re_del_noAlpha</title>
<path fill="none" stroke="darkorange" d="M369.02,-947.114C389.868,-988.985 441.506,-1092.69 466.293,-1142.47"/>
<polygon fill="darkorange" stroke="darkorange" points="463.285,-1144.28 470.876,-1151.68 469.552,-1141.16 463.285,-1144.28"/>
</g>
<!-- addBrLine&#45;&gt;RegExpMain -->
<g id="edge69" class="edge"><title>addBrLine&#45;&gt;RegExpMain</title>
<path fill="none" stroke="black" d="M372.39,-1087.72C393.644,-1056.38 437.141,-992.216 461.831,-955.8"/>
<polygon fill="black" stroke="black" points="464.963,-957.417 467.677,-947.176 459.169,-953.489 464.963,-957.417"/>
</g>
<!-- cDate -->
<g id="node28" class="node"><title>cDate</title>
<polygon fill="none" stroke="black" points="332,-237 332,-273 386,-273 386,-237 332,-237"/>
<text text-anchor="middle" x="359" y="-252.5" font-family="Times New Roman,serif" font-size="10.00">cDate</text>
</g>
<!-- checkEnv -->
<g id="node30" class="node"><title>checkEnv</title>
<polygon fill="none" stroke="black" points="331,-182 331,-218 387,-218 387,-182 331,-182"/>
<text text-anchor="middle" x="359" y="-197.5" font-family="Times New Roman,serif" font-size="10.00">checkEnv</text>
</g>
<!-- setConvertFreq -->
<g id="node31" class="node"><title>setConvertFreq</title>
<polygon fill="none" stroke="black" points="319.5,-127 319.5,-163 398.5,-163 398.5,-127 319.5,-127"/>
<text text-anchor="middle" x="359" y="-142.5" font-family="Times New Roman,serif" font-size="10.00">setConvertFreq</text>
</g>
<!-- setConvertFreq&#45;&gt;RegExpMain -->
<g id="edge70" class="edge"><title>setConvertFreq&#45;&gt;RegExpMain</title>
<path fill="none" stroke="black" d="M363.148,-163.209C379.821,-266.361 457.74,-775.358 476.112,-901.002"/>
<polygon fill="black" stroke="black" points="472.662,-901.599 477.564,-910.991 479.589,-900.592 472.662,-901.599"/>
</g>
<!-- setConvertFreq&#45;&gt;RegExpMain -->
<g id="edge71" class="edge"><title>setConvertFreq&#45;&gt;RegExpMain</title>
<path fill="none" stroke="blue" d="M362.451,-163.115C377.291,-266.01 455.142,-774.885 475.254,-900.84"/>
<polygon fill="blue" stroke="blue" points="471.822,-901.539 476.863,-910.858 478.733,-900.429 471.822,-901.539"/>
</g>
<!-- load_params -->
<g id="node32" class="node"><title>load_params</title>
<polygon fill="none" stroke="black" points="325,-72 325,-108 393,-108 393,-72 325,-72"/>
<text text-anchor="middle" x="359" y="-87.5" font-family="Times New Roman,serif" font-size="10.00">load_params</text>
</g>
<!-- dumperHash -->
<g id="node33" class="node"><title>dumperHash</title>
<polygon fill="none" stroke="black" points="447,-17 447,-53 515,-53 515,-17 447,-17"/>
<text text-anchor="middle" x="481" y="-32.5" font-family="Times New Roman,serif" font-size="10.00">dumperHash</text>
</g>
<!-- writeLog -->
<g id="node34" class="node"><title>writeLog</title>
<polygon fill="none" stroke="black" points="332,-17 332,-53 386,-53 386,-17 332,-17"/>
<text text-anchor="middle" x="359" y="-32.5" font-family="Times New Roman,serif" font-size="10.00">writeLog</text>
</g>
<!-- writeLog&#45;&gt;dumperHash -->
<g id="edge72" class="edge"><title>writeLog&#45;&gt;dumperHash</title>
<path fill="none" stroke="#ee0000" d="M374.237,-16.7819C394.644,-6.43251 432.442,-5.23061 456.888,-13.1762"/>
<polygon fill="#ee0000" stroke="#ee0000" points="455.572,-16.4194 466.152,-16.9813 458.232,-9.94429 455.572,-16.4194"/>
</g>
<!-- writeLog&#45;&gt;dumperHash -->
<g id="edge73" class="edge"><title>writeLog&#45;&gt;dumperHash</title>
<path fill="none" stroke="green" d="M386.038,-23.6432C400.766,-21.5505 419.564,-20.9904 436.471,-21.9627"/>
<polygon fill="green" stroke="green" points="436.457,-25.4723 446.7,-22.7661 437.005,-18.4937 436.457,-25.4723"/>
</g>
<!-- writeLog&#45;&gt;dumperHash -->
<g id="edge74" class="edge"><title>writeLog&#45;&gt;dumperHash</title>
<path fill="none" stroke="#473c8b" d="M386.038,-35C400.766,-35 419.564,-35 436.471,-35"/>
<polygon fill="#473c8b" stroke="#473c8b" points="436.7,-38.5001 446.7,-35 436.7,-31.5001 436.7,-38.5001"/>
</g>
<!-- writeLog&#45;&gt;dumperHash -->
<g id="edge75" class="edge"><title>writeLog&#45;&gt;dumperHash</title>
<path fill="none" stroke="#8b2252" d="M386.038,-46.3568C400.766,-48.4495 419.564,-49.0096 436.471,-48.0373"/>
<polygon fill="#8b2252" stroke="#8b2252" points="437.005,-51.5063 446.7,-47.2339 436.457,-44.5277 437.005,-51.5063"/>
</g>
<!-- writeLog&#45;&gt;dumperHash -->
<g id="edge76" class="edge"><title>writeLog&#45;&gt;dumperHash</title>
<path fill="none" stroke="#8b4513" d="M374.237,-53.2181C394.644,-63.5675 432.442,-64.7694 456.888,-56.8238"/>
<polygon fill="#8b4513" stroke="#8b4513" points="458.232,-60.0557 466.152,-53.0187 455.572,-53.5806 458.232,-60.0557"/>
</g>
<!-- makeXlsFile -->
<g id="node35" class="node"><title>makeXlsFile</title>
<polygon fill="none" stroke="black" points="326.5,-292 326.5,-328 391.5,-328 391.5,-292 326.5,-292"/>
<text text-anchor="middle" x="359" y="-307.5" font-family="Times New Roman,serif" font-size="10.00">makeXlsFile</text>
</g>
<!-- main.pl -->
<g id="node37" class="node"><title>main.pl</title>
<polygon fill="none" stroke="black" points="0,-465 0,-501 54,-501 54,-465 0,-465"/>
<text text-anchor="middle" x="27" y="-480.5" font-family="Times New Roman,serif" font-size="10.00">main.pl</text>
</g>
<!-- main.pl&#45;&gt;initLegende -->
<g id="edge10" class="edge"><title>main.pl&#45;&gt;initLegende</title>
<path fill="none" stroke="#cd1076" d="M44.6781,-464.836C61.2719,-446.763 86.8825,-418.871 105.526,-398.566"/>
<polygon fill="#cd1076" stroke="#cd1076" points="108.112,-400.924 112.297,-391.191 102.956,-396.19 108.112,-400.924"/>
</g>
<!-- main.pl&#45;&gt;set_sched -->
<g id="edge8" class="edge"><title>main.pl&#45;&gt;set_sched</title>
<path fill="none" stroke="darkorange" d="M54.01,-497.164C65.5801,-503.464 79.4131,-510.997 92.0297,-517.868"/>
<polygon fill="darkorange" stroke="darkorange" points="90.4957,-521.018 100.952,-522.726 93.8434,-514.87 90.4957,-521.018"/>
</g>
<!-- main.pl&#45;&gt;set_jobs -->
<g id="edge6" class="edge"><title>main.pl&#45;&gt;set_jobs</title>
<path fill="none" stroke="#8b2252" d="M54.01,-468.836C66.1673,-462.216 80.823,-454.235 93.9409,-447.092"/>
<polygon fill="#8b2252" stroke="#8b2252" points="95.6187,-450.163 102.727,-442.307 92.2709,-444.016 95.6187,-450.163"/>
</g>
<!-- main.pl&#45;&gt;set_next -->
<g id="edge12" class="edge"><title>main.pl&#45;&gt;set_next</title>
<path fill="none" stroke="black" d="M39.1947,-464.712C56.9875,-435.644 91.8166,-378.745 112.482,-344.985"/>
<polygon fill="black" stroke="black" points="115.673,-346.475 117.909,-336.119 109.703,-342.82 115.673,-346.475"/>
</g>
<!-- main.pl&#45;&gt;set_conf -->
<g id="edge9" class="edge"><title>main.pl&#45;&gt;set_conf</title>
<path fill="none" stroke="#cd9b1d" d="M54.01,-483C65.6997,-483 79.6994,-483 92.4207,-483"/>
<polygon fill="#cd9b1d" stroke="#cd9b1d" points="92.7271,-486.5 102.727,-483 92.7271,-479.5 92.7271,-486.5"/>
</g>
<!-- main.pl&#45;&gt;setCluster -->
<g id="edge11" class="edge"><title>main.pl&#45;&gt;setCluster</title>
<path fill="none" stroke="#838b8b" d="M36.2653,-464.996C53.9099,-426.563 95.3604,-336.274 116.349,-290.558"/>
<polygon fill="#838b8b" stroke="#838b8b" points="119.629,-291.801 120.621,-281.252 113.267,-288.88 119.629,-291.801"/>
</g>
<!-- main.pl&#45;&gt;set_link_after -->
<g id="edge14" class="edge"><title>main.pl&#45;&gt;set_link_after</title>
<path fill="none" stroke="#ee0000" d="M39.8054,-501.106C76.2527,-552.641 180.674,-700.288 223.418,-760.726"/>
<polygon fill="#ee0000" stroke="#ee0000" points="220.63,-762.845 229.262,-768.989 226.345,-758.803 220.63,-762.845"/>
</g>
<!-- main.pl&#45;&gt;set_links -->
<g id="edge15" class="edge"><title>main.pl&#45;&gt;set_links</title>
<path fill="none" stroke="green" d="M37.9575,-501.296C73.2542,-560.234 184.109,-745.336 225.871,-815.068"/>
<polygon fill="green" stroke="green" points="222.924,-816.96 231.065,-823.74 228.929,-813.363 222.924,-816.96"/>
</g>
<!-- main.pl&#45;&gt;buildNodes -->
<g id="edge16" class="edge"><title>main.pl&#45;&gt;buildNodes</title>
<path fill="none" stroke="#473c8b" d="M31.5354,-501.349C47.1957,-595.621 110.216,-1018.7 125.6,-1132.89"/>
<polygon fill="#473c8b" stroke="#473c8b" points="122.151,-1133.5 126.937,-1142.95 129.09,-1132.58 122.151,-1133.5"/>
</g>
<!-- main.pl&#45;&gt;buildNodes -->
<g id="edge18" class="edge"><title>main.pl&#45;&gt;buildNodes</title>
<path fill="none" stroke="#8b4513" d="M30.7015,-501.135C44.5747,-594.264 107.817,-1018.8 124.795,-1132.77"/>
<polygon fill="#8b4513" stroke="#8b4513" points="121.355,-1133.43 126.29,-1142.81 128.278,-1132.4 121.355,-1133.43"/>
</g>
<!-- main.pl&#45;&gt;buildNodes -->
<g id="edge20" class="edge"><title>main.pl&#45;&gt;buildNodes</title>
<path fill="none" stroke="#cd9b1d" d="M30.0633,-501.049C42.2847,-594.717 105.283,-1018.34 123.846,-1132.78"/>
<polygon fill="#cd9b1d" stroke="#cd9b1d" points="120.429,-1133.57 125.501,-1142.87 127.336,-1132.44 120.429,-1133.57"/>
</g>
<!-- main.pl&#45;&gt;setClusterColor -->
<g id="edge13" class="edge"><title>main.pl&#45;&gt;setClusterColor</title>
<path fill="none" stroke="blue" d="M30.968,-501.308C45.2699,-589.526 107.096,-970.892 124.453,-1077.95"/>
<polygon fill="blue" stroke="blue" points="121.025,-1078.68 126.08,-1087.99 127.935,-1077.56 121.025,-1078.68"/>
</g>
<!-- main.pl&#45;&gt;writeVgFile -->
<g id="edge17" class="edge"><title>main.pl&#45;&gt;writeVgFile</title>
<path fill="none" stroke="#8b2252" d="M32.2753,-501.177C48.8671,-584.252 108.87,-921.75 124.99,-1022.75"/>
<polygon fill="#8b2252" stroke="#8b2252" points="121.563,-1023.49 126.573,-1032.82 128.478,-1022.4 121.563,-1023.49"/>
</g>
<!-- main.pl&#45;&gt;writeVgFile -->
<g id="edge19" class="edge"><title>main.pl&#45;&gt;writeVgFile</title>
<path fill="none" stroke="darkorange" d="M31.2461,-501.255C45.9224,-583.791 106.133,-922.399 123.987,-1022.81"/>
<polygon fill="darkorange" stroke="darkorange" points="120.569,-1023.58 125.766,-1032.81 127.461,-1022.35 120.569,-1023.58"/>
</g>
<!-- main.pl&#45;&gt;writeVgFile -->
<g id="edge21" class="edge"><title>main.pl&#45;&gt;writeVgFile</title>
<path fill="none" stroke="#cd1076" d="M30.4466,-501.304C43.294,-584.633 103.113,-921.842 122.743,-1022.75"/>
<polygon fill="#cd1076" stroke="#cd1076" points="119.358,-1023.68 124.724,-1032.82 126.227,-1022.33 119.358,-1023.68"/>
</g>
<!-- main.pl&#45;&gt;RegExpMain -->
<g id="edge7" class="edge"><title>main.pl&#45;&gt;RegExpMain</title>
<path fill="none" stroke="#8b4513" d="M45.3596,-501.036C116.231,-570.659 372.142,-822.06 454.951,-903.41"/>
<polygon fill="#8b4513" stroke="#8b4513" points="452.825,-906.228 462.412,-910.739 457.731,-901.235 452.825,-906.228"/>
</g>
<!-- main.pl&#45;&gt;trim -->
<g id="edge5" class="edge"><title>main.pl&#45;&gt;trim</title>
<path fill="none" stroke="#473c8b" d="M46.2076,-501.244C129.798,-580.639 462.008,-896.18 558.557,-987.884"/>
<polygon fill="#473c8b" stroke="#473c8b" points="556.212,-990.484 565.873,-994.833 561.033,-985.408 556.212,-990.484"/>
</g>
<!-- main.pl&#45;&gt;cDate -->
<g id="edge1" class="edge"><title>main.pl&#45;&gt;cDate</title>
<path fill="none" stroke="black" d="M53.329,-464.919C112.775,-424.095 257.393,-324.778 324.161,-278.926"/>
<polygon fill="black" stroke="black" points="326.406,-281.63 332.668,-273.083 322.444,-275.859 326.406,-281.63"/>
</g>
<!-- main.pl&#45;&gt;checkEnv -->
<g id="edge2" class="edge"><title>main.pl&#45;&gt;checkEnv</title>
<path fill="none" stroke="blue" d="M48.2731,-464.867C105.642,-415.964 263.645,-281.281 329.54,-225.112"/>
<polygon fill="blue" stroke="blue" points="332.135,-227.499 337.474,-218.349 327.593,-222.172 332.135,-227.499"/>
</g>
<!-- main.pl&#45;&gt;setConvertFreq -->
<g id="edge4" class="edge"><title>main.pl&#45;&gt;setConvertFreq</title>
<path fill="none" stroke="green" d="M44.8498,-464.828C100.244,-408.432 269.354,-236.266 333.743,-170.713"/>
<polygon fill="green" stroke="green" points="336.551,-172.849 341.062,-163.262 331.558,-167.944 336.551,-172.849"/>
</g>
<!-- main.pl&#45;&gt;load_params -->
<g id="edge3" class="edge"><title>main.pl&#45;&gt;load_params</title>
<path fill="none" stroke="#ee0000" d="M42.3472,-464.833C95.7632,-401.603 273.704,-190.968 336.678,-116.424"/>
<polygon fill="#ee0000" stroke="#ee0000" points="339.653,-118.325 343.433,-108.428 334.306,-113.808 339.653,-118.325"/>
</g>
<!-- main.pl&#45;&gt;writeLog -->
<g id="edge23" class="edge"><title>main.pl&#45;&gt;writeLog</title>
<path fill="none" stroke="black" d="M40.426,-464.883C92.0962,-395.159 278.264,-143.945 339.398,-61.4512"/>
<polygon fill="black" stroke="black" points="342.265,-63.4607 345.407,-53.3424 336.641,-59.2928 342.265,-63.4607"/>
</g>
<!-- main.pl&#45;&gt;makeXlsFile -->
<g id="edge22" class="edge"><title>main.pl&#45;&gt;makeXlsFile</title>
<path fill="none" stroke="#838b8b" d="M54.169,-468.843C112.075,-438.669 247.981,-367.85 317.077,-331.845"/>
<polygon fill="#838b8b" stroke="#838b8b" points="319.118,-334.729 326.369,-327.004 315.883,-328.521 319.118,-334.729"/>
</g>
<!-- launcher.pl -->
<g id="node38" class="node"><title>launcher.pl</title>
<polygon fill="none" stroke="black" points="211.5,-1239 211.5,-1275 272.5,-1275 272.5,-1239 211.5,-1239"/>
<text text-anchor="middle" x="242" y="-1254.5" font-family="Times New Roman,serif" font-size="10.00">launcher.pl</text>
</g>
<!-- launcher.pl&#45;&gt;getSelect -->
<g id="edge31" class="edge"><title>launcher.pl&#45;&gt;getSelect</title>
<path fill="none" stroke="darkorange" d="M272.615,-1257C287.431,-1257 305.506,-1257 321.204,-1257"/>
<polygon fill="darkorange" stroke="darkorange" points="321.623,-1260.5 331.623,-1257 321.623,-1253.5 321.623,-1260.5"/>
</g>
</g>
</svg>
