<?xml version="1.0" encoding="UTF-8" standalone="no"?>
<!DOCTYPE svg PUBLIC "-//W3C//DTD SVG 1.1//EN"
 "http://www.w3.org/Graphics/SVG/1.1/DTD/svg11.dtd">
<!-- Generated by graphviz version 2.33.20130816.0446 (20130816.0446)
 -->
<!-- Title: %3 Pages: 1 -->
<svg width="552pt" height="1912pt"
 viewBox="0.00 0.00 552.00 1912.00" xmlns="http://www.w3.org/2000/svg" xmlns:xlink="http://www.w3.org/1999/xlink">
<g id="graph0" class="graph" transform="scale(1 1) rotate(0) translate(4 1908)">
<title>%3</title>
<polygon fill="white" stroke="white" points="-4,5 -4,-1908 549,-1908 549,5 -4,5"/>
<g id="clust1" class="cluster"><title>cluster_launcher_pl</title>
<polygon fill="lightgrey" stroke="black" points="201,-1597 201,-1896 402,-1896 402,-1597 201,-1597"/>
<text text-anchor="middle" x="301.5" y="-1880" font-family="Times New Roman,serif" font-size="15.00">launcher.pl</text>
</g>
<g id="clust2" class="cluster"><title>cluster_lib_hash_pl</title>
<polygon fill="lightgrey" stroke="black" points="90,-819 90,-1173 280,-1173 280,-819 90,-819"/>
<text text-anchor="middle" x="185" y="-1157" font-family="Times New Roman,serif" font-size="15.00">lib_hash.pl</text>
</g>
<g id="clust3" class="cluster"><title>cluster_lib_link_pl</title>
<polygon fill="lightgrey" stroke="black" points="201,-480 201,-614 400,-614 400,-480 201,-480"/>
<text text-anchor="middle" x="300.5" y="-598" font-family="Times New Roman,serif" font-size="15.00">lib_link.pl</text>
</g>
<g id="clust4" class="cluster"><title>cluster_lib_makeGvFile_pl</title>
<polygon fill="lightgrey" stroke="black" points="82,-622 82,-811 287,-811 287,-622 82,-622"/>
<text text-anchor="middle" x="184.5" y="-795" font-family="Times New Roman,serif" font-size="15.00">lib_makeGvFile.pl</text>
</g>
<g id="clust5" class="cluster"><title>cluster_lib_regexp_pl</title>
<polygon fill="lightgrey" stroke="black" points="198,-1181 198,-1521 536,-1521 536,-1181 198,-1181"/>
<text text-anchor="middle" x="367" y="-1505" font-family="Times New Roman,serif" font-size="15.00">lib_regexp.pl</text>
</g>
<g id="clust6" class="cluster"><title>cluster_lib_utils_pl</title>
<polygon fill="lightgrey" stroke="black" points="312,-8 312,-472 529,-472 529,-8 312,-8"/>
<text text-anchor="middle" x="420.5" y="-456" font-family="Times New Roman,serif" font-size="15.00">lib_utils.pl</text>
</g>
<!-- interrupt -->
<g id="node1" class="node"><title>interrupt</title>
<polygon fill="none" stroke="black" points="218,-1826 218,-1862 272,-1862 272,-1826 218,-1826"/>
<text text-anchor="middle" x="245" y="-1841.5" font-family="Times New Roman,serif" font-size="10.00">interrupt</text>
</g>
<!-- envVpn -->
<g id="node2" class="node"><title>envVpn</title>
<polygon fill="none" stroke="black" points="338,-1716 338,-1752 392,-1752 392,-1716 338,-1716"/>
<text text-anchor="middle" x="365" y="-1731.5" font-family="Times New Roman,serif" font-size="10.00">envVpn</text>
</g>
<!-- get_tws -->
<g id="node3" class="node"><title>get_tws</title>
<polygon fill="none" stroke="black" points="338,-1771 338,-1807 392,-1807 392,-1771 338,-1771"/>
<text text-anchor="middle" x="365" y="-1786.5" font-family="Times New Roman,serif" font-size="10.00">get_tws</text>
</g>
<!-- get_tws&#45;&gt;get_tws -->
<g id="edge26" class="edge"><title>get_tws&#45;&gt;get_tws</title>
<path fill="none" stroke="blue" d="M343.291,-1807.15C339.951,-1816.54 347.188,-1825 365,-1825 375.854,-1825 382.782,-1821.86 385.781,-1817.28"/>
<polygon fill="blue" stroke="blue" points="389.282,-1817.43 386.709,-1807.15 382.311,-1816.79 389.282,-1817.43"/>
</g>
<!-- RegExpMain -->
<g id="node26" class="node"><title>RegExpMain</title>
<polygon fill="none" stroke="black" points="453,-1266 453,-1302 521,-1302 521,-1266 453,-1266"/>
<text text-anchor="middle" x="487" y="-1281.5" font-family="Times New Roman,serif" font-size="10.00">RegExpMain</text>
</g>
<!-- get_tws&#45;&gt;RegExpMain -->
<g id="edge25" class="edge"><title>get_tws&#45;&gt;RegExpMain</title>
<path fill="none" stroke="black" d="M370.342,-1770.73C388.368,-1694.87 457.39,-1404.4 479.29,-1312.24"/>
<polygon fill="black" stroke="black" points="482.757,-1312.79 481.664,-1302.25 475.947,-1311.17 482.757,-1312.79"/>
</g>
<!-- print_service -->
<g id="node4" class="node"><title>print_service</title>
<polygon fill="none" stroke="black" points="210.5,-1606 210.5,-1642 279.5,-1642 279.5,-1606 210.5,-1606"/>
<text text-anchor="middle" x="245" y="-1621.5" font-family="Times New Roman,serif" font-size="10.00">print_service</text>
</g>
<!-- build_service -->
<g id="node5" class="node"><title>build_service</title>
<polygon fill="none" stroke="black" points="209.5,-1771 209.5,-1807 280.5,-1807 280.5,-1771 209.5,-1771"/>
<text text-anchor="middle" x="245" y="-1786.5" font-family="Times New Roman,serif" font-size="10.00">build_service</text>
</g>
<!-- set_service -->
<g id="node6" class="node"><title>set_service</title>
<polygon fill="none" stroke="black" points="214,-1716 214,-1752 276,-1752 276,-1716 214,-1716"/>
<text text-anchor="middle" x="245" y="-1731.5" font-family="Times New Roman,serif" font-size="10.00">set_service</text>
</g>
<!-- set_service&#45;&gt;RegExpMain -->
<g id="edge27" class="edge"><title>set_service&#45;&gt;RegExpMain</title>
<path fill="none" stroke="#ee0000" d="M254.786,-1715.8C292.335,-1645.98 427.328,-1394.96 472.304,-1311.33"/>
<polygon fill="#ee0000" stroke="#ee0000" points="475.438,-1312.89 477.092,-1302.42 469.273,-1309.57 475.438,-1312.89"/>
</g>
<!-- build_cpu -->
<g id="node7" class="node"><title>build_cpu</title>
<polygon fill="none" stroke="black" points="336.5,-1661 336.5,-1697 393.5,-1697 393.5,-1661 336.5,-1661"/>
<text text-anchor="middle" x="365" y="-1676.5" font-family="Times New Roman,serif" font-size="10.00">build_cpu</text>
</g>
<!-- print_cpu -->
<g id="node8" class="node"><title>print_cpu</title>
<polygon fill="none" stroke="black" points="337,-1606 337,-1642 393,-1642 393,-1606 337,-1606"/>
<text text-anchor="middle" x="365" y="-1621.5" font-family="Times New Roman,serif" font-size="10.00">print_cpu</text>
</g>
<!-- set_cpu -->
<g id="node9" class="node"><title>set_cpu</title>
<polygon fill="none" stroke="black" points="218,-1661 218,-1697 272,-1697 272,-1661 218,-1661"/>
<text text-anchor="middle" x="245" y="-1676.5" font-family="Times New Roman,serif" font-size="10.00">set_cpu</text>
</g>
<!-- set_cpu&#45;&gt;envVpn -->
<g id="edge31" class="edge"><title>set_cpu&#45;&gt;envVpn</title>
<path fill="none" stroke="#8b4513" d="M272.188,-1691.21C288.84,-1698.97 310.605,-1709.11 328.764,-1717.58"/>
<polygon fill="#8b4513" stroke="#8b4513" points="327.343,-1720.78 337.885,-1721.83 330.3,-1714.43 327.343,-1720.78"/>
</g>
<!-- set_cpu&#45;&gt;get_tws -->
<g id="edge32" class="edge"><title>set_cpu&#45;&gt;get_tws</title>
<path fill="none" stroke="darkorange" d="M265.485,-1697.16C285.043,-1715.4 315.321,-1743.62 337.149,-1763.97"/>
<polygon fill="darkorange" stroke="darkorange" points="334.784,-1766.55 344.486,-1770.81 339.558,-1761.43 334.784,-1766.55"/>
</g>
<!-- set_cpu&#45;&gt;build_cpu -->
<g id="edge29" class="edge"><title>set_cpu&#45;&gt;build_cpu</title>
<path fill="none" stroke="#473c8b" d="M272.188,-1679C287.932,-1679 308.246,-1679 325.762,-1679"/>
<polygon fill="#473c8b" stroke="#473c8b" points="326.241,-1682.5 336.241,-1679 326.241,-1675.5 326.241,-1682.5"/>
</g>
<!-- set_cpu&#45;&gt;print_cpu -->
<g id="edge30" class="edge"><title>set_cpu&#45;&gt;print_cpu</title>
<path fill="none" stroke="#8b2252" d="M272.188,-1666.79C288.343,-1659.26 309.312,-1649.49 327.13,-1641.19"/>
<polygon fill="#8b2252" stroke="#8b2252" points="329.07,-1644.14 336.655,-1636.75 326.113,-1637.8 329.07,-1644.14"/>
</g>
<!-- set_cpu&#45;&gt;RegExpMain -->
<g id="edge28" class="edge"><title>set_cpu&#45;&gt;RegExpMain</title>
<path fill="none" stroke="green" d="M256.187,-1660.74C295.054,-1597.3 424.368,-1386.23 470.485,-1310.96"/>
<polygon fill="green" stroke="green" points="473.692,-1312.42 475.932,-1302.07 467.723,-1308.76 473.692,-1312.42"/>
</g>
<!-- initNode -->
<g id="node10" class="node"><title>initNode</title>
<polygon fill="none" stroke="black" points="218,-993 218,-1029 272,-1029 272,-993 218,-993"/>
<text text-anchor="middle" x="245" y="-1008.5" font-family="Times New Roman,serif" font-size="10.00">initNode</text>
</g>
<!-- initLegende -->
<g id="node11" class="node"><title>initLegende</title>
<polygon fill="none" stroke="black" points="98,-993 98,-1029 162,-1029 162,-993 98,-993"/>
<text text-anchor="middle" x="130" y="-1008.5" font-family="Times New Roman,serif" font-size="10.00">initLegende</text>
</g>
<!-- initLegende&#45;&gt;initNode -->
<g id="edge39" class="edge"><title>initLegende&#45;&gt;initNode</title>
<path fill="none" stroke="black" d="M162.177,-1011C176.265,-1011 193.002,-1011 207.656,-1011"/>
<polygon fill="black" stroke="black" points="207.891,-1014.5 217.891,-1011 207.891,-1007.5 207.891,-1014.5"/>
</g>
<!-- set_sched -->
<g id="node12" class="node"><title>set_sched</title>
<polygon fill="none" stroke="black" points="101,-1103 101,-1139 159,-1139 159,-1103 101,-1103"/>
<text text-anchor="middle" x="130" y="-1118.5" font-family="Times New Roman,serif" font-size="10.00">set_sched</text>
</g>
<!-- set_sched&#45;&gt;initNode -->
<g id="edge40" class="edge"><title>set_sched&#45;&gt;initNode</title>
<path fill="none" stroke="blue" d="M149.66,-1102.84C168.307,-1084.68 197.131,-1056.62 218.012,-1036.3"/>
<polygon fill="blue" stroke="blue" points="220.588,-1038.67 225.313,-1029.19 215.706,-1033.66 220.588,-1038.67"/>
</g>
<!-- regexpSwitcher -->
<g id="node25" class="node"><title>regexpSwitcher</title>
<polygon fill="none" stroke="black" points="206.5,-1228 206.5,-1264 283.5,-1264 283.5,-1228 206.5,-1228"/>
<text text-anchor="middle" x="245" y="-1243.5" font-family="Times New Roman,serif" font-size="10.00">regexpSwitcher</text>
</g>
<!-- set_sched&#45;&gt;regexpSwitcher -->
<g id="edge41" class="edge"><title>set_sched&#45;&gt;regexpSwitcher</title>
<path fill="none" stroke="#ee0000" d="M158.066,-1139.22C180.261,-1160.81 210.863,-1195.39 228.925,-1219.79"/>
<polygon fill="#ee0000" stroke="#ee0000" points="226.097,-1221.85 234.757,-1227.95 231.794,-1217.78 226.097,-1221.85"/>
</g>
<!-- set_sched&#45;&gt;regexpSwitcher -->
<g id="edge42" class="edge"><title>set_sched&#45;&gt;regexpSwitcher</title>
<path fill="none" stroke="green" d="M147.431,-1139.18C166.679,-1160.47 198.71,-1195.9 220.562,-1220.07"/>
<polygon fill="green" stroke="green" points="218.247,-1222.73 227.549,-1227.8 223.439,-1218.04 218.247,-1222.73"/>
</g>
<!-- set_sched&#45;&gt;regexpSwitcher -->
<g id="edge43" class="edge"><title>set_sched&#45;&gt;regexpSwitcher</title>
<path fill="none" stroke="#473c8b" d="M140.247,-1139.05C155.247,-1160.99 185.622,-1196.16 209.649,-1220.53"/>
<polygon fill="#473c8b" stroke="#473c8b" points="207.319,-1223.15 216.878,-1227.72 212.256,-1218.19 207.319,-1223.15"/>
</g>
<!-- set_jobs -->
<g id="node13" class="node"><title>set_jobs</title>
<polygon fill="none" stroke="black" points="103,-883 103,-919 157,-919 157,-883 103,-883"/>
<text text-anchor="middle" x="130" y="-898.5" font-family="Times New Roman,serif" font-size="10.00">set_jobs</text>
</g>
<!-- set_jobs&#45;&gt;initNode -->
<g id="edge46" class="edge"><title>set_jobs&#45;&gt;initNode</title>
<path fill="none" stroke="darkorange" d="M149.66,-919.164C168.307,-937.316 197.131,-965.375 218.012,-985.702"/>
<polygon fill="darkorange" stroke="darkorange" points="215.706,-988.341 225.313,-992.809 220.588,-983.325 215.706,-988.341"/>
</g>
<!-- set_jobs&#45;&gt;RegExpMain -->
<g id="edge44" class="edge"><title>set_jobs&#45;&gt;RegExpMain</title>
<path fill="none" stroke="#8b2252" d="M149.959,-919.093C212.171,-981.289 402.206,-1185.14 465.923,-1257.99"/>
<polygon fill="#8b2252" stroke="#8b2252" points="463.515,-1260.55 472.712,-1265.81 468.801,-1255.96 463.515,-1260.55"/>
</g>
<!-- set_jobs&#45;&gt;RegExpMain -->
<g id="edge45" class="edge"><title>set_jobs&#45;&gt;RegExpMain</title>
<path fill="none" stroke="#8b4513" d="M144.215,-919.104C197.768,-981.41 387.924,-1185.73 459.491,-1258.3"/>
<polygon fill="#8b4513" stroke="#8b4513" points="457.301,-1261.06 466.83,-1265.7 462.27,-1256.13 457.301,-1261.06"/>
</g>
<!-- set_next -->
<g id="node14" class="node"><title>set_next</title>
<polygon fill="none" stroke="black" points="103,-938 103,-974 157,-974 157,-938 103,-938"/>
<text text-anchor="middle" x="130" y="-953.5" font-family="Times New Roman,serif" font-size="10.00">set_next</text>
</g>
<!-- set_next&#45;&gt;initNode -->
<g id="edge47" class="edge"><title>set_next&#45;&gt;initNode</title>
<path fill="none" stroke="#cd9b1d" d="M157.208,-957.155C175.698,-963.584 200.333,-975.614 218.632,-987.171"/>
<polygon fill="#cd9b1d" stroke="#cd9b1d" points="216.789,-990.148 227.052,-992.779 220.67,-984.323 216.789,-990.148"/>
</g>
<!-- set_next&#45;&gt;initNode -->
<g id="edge48" class="edge"><title>set_next&#45;&gt;initNode</title>
<path fill="none" stroke="#cd1076" d="M157.208,-968.756C172.469,-976.184 191.915,-985.649 208.531,-993.736"/>
<polygon fill="#cd1076" stroke="#cd1076" points="207.41,-997.083 217.934,-998.313 210.474,-990.789 207.41,-997.083"/>
</g>
<!-- set_next&#45;&gt;initNode -->
<g id="edge49" class="edge"><title>set_next&#45;&gt;initNode</title>
<path fill="none" stroke="#838b8b" d="M147.674,-974.026C163.501,-985.272 187.813,-998.025 208.052,-1006.18"/>
<polygon fill="#838b8b" stroke="#838b8b" points="207.013,-1009.52 217.605,-1009.78 209.484,-1002.98 207.013,-1009.52"/>
</g>
<!-- set_conf -->
<g id="node15" class="node"><title>set_conf</title>
<polygon fill="none" stroke="black" points="103,-1048 103,-1084 157,-1084 157,-1048 103,-1048"/>
<text text-anchor="middle" x="130" y="-1063.5" font-family="Times New Roman,serif" font-size="10.00">set_conf</text>
</g>
<!-- set_conf&#45;&gt;initNode -->
<g id="edge51" class="edge"><title>set_conf&#45;&gt;initNode</title>
<path fill="none" stroke="blue" d="M157.208,-1053.24C172.469,-1045.82 191.915,-1036.35 208.531,-1028.26"/>
<polygon fill="blue" stroke="blue" points="210.474,-1031.21 217.934,-1023.69 207.41,-1024.92 210.474,-1031.21"/>
</g>
<!-- set_conf&#45;&gt;regexpSwitcher -->
<g id="edge52" class="edge"><title>set_conf&#45;&gt;regexpSwitcher</title>
<path fill="none" stroke="#ee0000" d="M142.457,-1084.25C162.475,-1116.14 203.899,-1182.12 227.177,-1219.2"/>
<polygon fill="#ee0000" stroke="#ee0000" points="224.4,-1221.36 232.681,-1227.97 230.328,-1217.64 224.4,-1221.36"/>
</g>
<!-- splitLine -->
<g id="node31" class="node"><title>splitLine</title>
<polygon fill="none" stroke="black" points="338,-1266 338,-1302 392,-1302 392,-1266 338,-1266"/>
<text text-anchor="middle" x="365" y="-1281.5" font-family="Times New Roman,serif" font-size="10.00">splitLine</text>
</g>
<!-- set_conf&#45;&gt;splitLine -->
<g id="edge50" class="edge"><title>set_conf&#45;&gt;splitLine</title>
<path fill="none" stroke="black" d="M149.632,-1084.21C191.639,-1123.18 290.295,-1214.7 338.097,-1259.04"/>
<polygon fill="black" stroke="black" points="335.878,-1261.76 345.589,-1265.99 340.638,-1256.63 335.878,-1261.76"/>
</g>
<!-- setCluster -->
<g id="node16" class="node"><title>setCluster</title>
<polygon fill="none" stroke="black" points="101.5,-828 101.5,-864 158.5,-864 158.5,-828 101.5,-828"/>
<text text-anchor="middle" x="130" y="-843.5" font-family="Times New Roman,serif" font-size="10.00">setCluster</text>
</g>
<!-- set_link_after -->
<g id="node17" class="node"><title>set_link_after</title>
<polygon fill="none" stroke="black" points="209.5,-489 209.5,-525 280.5,-525 280.5,-489 209.5,-489"/>
<text text-anchor="middle" x="245" y="-504.5" font-family="Times New Roman,serif" font-size="10.00">set_link_after</text>
</g>
<!-- makeLink -->
<g id="node19" class="node"><title>makeLink</title>
<polygon fill="none" stroke="black" points="338,-544 338,-580 392,-580 392,-544 338,-544"/>
<text text-anchor="middle" x="365" y="-559.5" font-family="Times New Roman,serif" font-size="10.00">makeLink</text>
</g>
<!-- set_link_after&#45;&gt;makeLink -->
<g id="edge54" class="edge"><title>set_link_after&#45;&gt;makeLink</title>
<path fill="none" stroke="blue" d="M280.766,-523.204C295.854,-530.237 313.501,-538.462 328.653,-545.525"/>
<polygon fill="blue" stroke="blue" points="327.178,-548.699 337.72,-549.751 330.135,-542.354 327.178,-548.699"/>
</g>
<!-- sort_unique_hash -->
<g id="node35" class="node"><title>sort_unique_hash</title>
<polygon fill="none" stroke="black" points="320,-402 320,-438 410,-438 410,-402 320,-402"/>
<text text-anchor="middle" x="365" y="-417.5" font-family="Times New Roman,serif" font-size="10.00">sort_unique_hash</text>
</g>
<!-- set_link_after&#45;&gt;sort_unique_hash -->
<g id="edge53" class="edge"><title>set_link_after&#45;&gt;sort_unique_hash</title>
<path fill="none" stroke="black" d="M270.45,-488.974C288.091,-475.967 312.095,-458.269 331.371,-444.057"/>
<polygon fill="black" stroke="black" points="333.61,-446.755 339.582,-438.003 329.456,-441.121 333.61,-446.755"/>
</g>
<!-- set_links -->
<g id="node18" class="node"><title>set_links</title>
<polygon fill="none" stroke="black" points="218,-544 218,-580 272,-580 272,-544 218,-544"/>
<text text-anchor="middle" x="245" y="-559.5" font-family="Times New Roman,serif" font-size="10.00">set_links</text>
</g>
<!-- set_links&#45;&gt;makeLink -->
<g id="edge55" class="edge"><title>set_links&#45;&gt;makeLink</title>
<path fill="none" stroke="#ee0000" d="M272.188,-544.84C288.611,-541.376 310.007,-540.824 328.012,-543.186"/>
<polygon fill="#ee0000" stroke="#ee0000" points="327.442,-546.639 337.885,-544.855 328.609,-539.737 327.442,-546.639"/>
</g>
<!-- set_links&#45;&gt;makeLink -->
<g id="edge56" class="edge"><title>set_links&#45;&gt;makeLink</title>
<path fill="none" stroke="green" d="M272.188,-556.28C288.534,-555.131 309.808,-554.943 327.761,-555.718"/>
<polygon fill="green" stroke="green" points="327.705,-559.22 337.885,-556.285 328.097,-552.231 327.705,-559.22"/>
</g>
<!-- set_links&#45;&gt;makeLink -->
<g id="edge57" class="edge"><title>set_links&#45;&gt;makeLink</title>
<path fill="none" stroke="#473c8b" d="M272.188,-567.72C288.534,-568.869 309.808,-569.057 327.761,-568.282"/>
<polygon fill="#473c8b" stroke="#473c8b" points="328.097,-571.769 337.885,-567.715 327.705,-564.78 328.097,-571.769"/>
</g>
<!-- set_links&#45;&gt;makeLink -->
<g id="edge58" class="edge"><title>set_links&#45;&gt;makeLink</title>
<path fill="none" stroke="#8b2252" d="M272.188,-579.16C288.611,-582.624 310.007,-583.176 328.012,-580.814"/>
<polygon fill="#8b2252" stroke="#8b2252" points="328.609,-584.263 337.885,-579.145 327.442,-577.361 328.609,-584.263"/>
</g>
<!-- setInNode -->
<g id="node20" class="node"><title>setInNode</title>
<polygon fill="none" stroke="black" points="215.5,-741 215.5,-777 274.5,-777 274.5,-741 215.5,-741"/>
<text text-anchor="middle" x="245" y="-756.5" font-family="Times New Roman,serif" font-size="10.00">setInNode</text>
</g>
<!-- addBrLine -->
<g id="node32" class="node"><title>addBrLine</title>
<polygon fill="none" stroke="black" points="336,-1190 336,-1226 394,-1226 394,-1190 336,-1190"/>
<text text-anchor="middle" x="365" y="-1205.5" font-family="Times New Roman,serif" font-size="10.00">addBrLine</text>
</g>
<!-- setInNode&#45;&gt;addBrLine -->
<g id="edge59" class="edge"><title>setInNode&#45;&gt;addBrLine</title>
<path fill="none" stroke="black" d="M250.772,-777.157C269.007,-846.542 334.37,-1095.26 356.565,-1179.71"/>
<polygon fill="black" stroke="black" points="353.242,-1180.83 359.169,-1189.62 360.012,-1179.06 353.242,-1180.83"/>
</g>
<!-- setInfoNode -->
<g id="node21" class="node"><title>setInfoNode</title>
<polygon fill="none" stroke="black" points="211.5,-686 211.5,-722 278.5,-722 278.5,-686 211.5,-686"/>
<text text-anchor="middle" x="245" y="-701.5" font-family="Times New Roman,serif" font-size="10.00">setInfoNode</text>
</g>
<!-- setInfoNode&#45;&gt;makeLink -->
<g id="edge62" class="edge"><title>setInfoNode&#45;&gt;makeLink</title>
<path fill="none" stroke="green" d="M261.185,-685.727C281.807,-660.911 318.789,-616.406 342.325,-588.083"/>
<polygon fill="green" stroke="green" points="345.174,-590.131 348.873,-580.203 339.79,-585.657 345.174,-590.131"/>
</g>
<!-- re_del_noAlpha -->
<g id="node30" class="node"><title>re_del_noAlpha</title>
<polygon fill="none" stroke="black" points="446,-1211 446,-1247 528,-1247 528,-1211 446,-1211"/>
<text text-anchor="middle" x="487" y="-1226.5" font-family="Times New Roman,serif" font-size="10.00">re_del_noAlpha</text>
</g>
<!-- setInfoNode&#45;&gt;re_del_noAlpha -->
<g id="edge60" class="edge"><title>setInfoNode&#45;&gt;re_del_noAlpha</title>
<path fill="none" stroke="blue" d="M253.33,-722.072C289.252,-800 431.037,-1107.59 474.36,-1201.58"/>
<polygon fill="blue" stroke="blue" points="471.215,-1203.12 478.58,-1210.73 477.572,-1200.19 471.215,-1203.12"/>
</g>
<!-- setInfoNode&#45;&gt;addBrLine -->
<g id="edge61" class="edge"><title>setInfoNode&#45;&gt;addBrLine</title>
<path fill="none" stroke="#ee0000" d="M250.269,-722.235C267.996,-797.947 335.866,-1087.84 357.402,-1179.82"/>
<polygon fill="#ee0000" stroke="#ee0000" points="354.049,-1180.85 359.736,-1189.79 360.864,-1179.25 354.049,-1180.85"/>
</g>
<!-- buildNodes -->
<g id="node22" class="node"><title>buildNodes</title>
<polygon fill="none" stroke="black" points="98.5,-741 98.5,-777 161.5,-777 161.5,-741 98.5,-741"/>
<text text-anchor="middle" x="130" y="-756.5" font-family="Times New Roman,serif" font-size="10.00">buildNodes</text>
</g>
<!-- buildNodes&#45;&gt;setInNode -->
<g id="edge63" class="edge"><title>buildNodes&#45;&gt;setInNode</title>
<path fill="none" stroke="#473c8b" d="M161.579,-759C175.044,-759 191.016,-759 205.298,-759"/>
<polygon fill="#473c8b" stroke="#473c8b" points="205.339,-762.5 215.339,-759 205.339,-755.5 205.339,-762.5"/>
</g>
<!-- buildNodes&#45;&gt;setInfoNode -->
<g id="edge64" class="edge"><title>buildNodes&#45;&gt;setInfoNode</title>
<path fill="none" stroke="#8b2252" d="M161.579,-744.116C174.113,-738.016 188.818,-730.858 202.312,-724.291"/>
<polygon fill="#8b2252" stroke="#8b2252" points="203.958,-727.382 211.418,-719.859 200.894,-721.088 203.958,-727.382"/>
</g>
<!-- setClusterColor -->
<g id="node23" class="node"><title>setClusterColor</title>
<polygon fill="none" stroke="black" points="90.5,-686 90.5,-722 169.5,-722 169.5,-686 90.5,-686"/>
<text text-anchor="middle" x="130" y="-701.5" font-family="Times New Roman,serif" font-size="10.00">setClusterColor</text>
</g>
<!-- writeVgFile -->
<g id="node24" class="node"><title>writeVgFile</title>
<polygon fill="none" stroke="black" points="99,-631 99,-667 161,-667 161,-631 99,-631"/>
<text text-anchor="middle" x="130" y="-646.5" font-family="Times New Roman,serif" font-size="10.00">writeVgFile</text>
</g>
<!-- writeVgFile&#45;&gt;sort_unique_hash -->
<g id="edge66" class="edge"><title>writeVgFile&#45;&gt;sort_unique_hash</title>
<path fill="none" stroke="darkorange" d="M148.834,-630.647C190.704,-589.845 291.566,-491.559 339.227,-445.115"/>
<polygon fill="darkorange" stroke="darkorange" points="341.683,-447.608 346.403,-438.122 336.798,-442.595 341.683,-447.608"/>
</g>
<!-- _add_carac -->
<g id="node42" class="node"><title>_add_carac</title>
<polygon fill="none" stroke="black" points="333.5,-347 333.5,-383 396.5,-383 396.5,-347 333.5,-347"/>
<text text-anchor="middle" x="365" y="-362.5" font-family="Times New Roman,serif" font-size="10.00">_add_carac</text>
</g>
<!-- writeVgFile&#45;&gt;_add_carac -->
<g id="edge65" class="edge"><title>writeVgFile&#45;&gt;_add_carac</title>
<path fill="none" stroke="#8b4513" d="M145.058,-630.802C185.514,-581.911 296.671,-447.576 343.622,-390.835"/>
<polygon fill="#8b4513" stroke="#8b4513" points="346.389,-392.982 350.068,-383.046 340.996,-388.519 346.389,-392.982"/>
</g>
<!-- re_freq -->
<g id="node27" class="node"><title>re_freq</title>
<polygon fill="none" stroke="black" points="338,-1321 338,-1357 392,-1357 392,-1321 338,-1321"/>
<text text-anchor="middle" x="365" y="-1336.5" font-family="Times New Roman,serif" font-size="10.00">re_freq</text>
</g>
<!-- regexpSwitcher&#45;&gt;re_freq -->
<g id="edge68" class="edge"><title>regexpSwitcher&#45;&gt;re_freq</title>
<path fill="none" stroke="blue" d="M269.032,-1264.15C287.306,-1278.55 313.024,-1298.82 333.089,-1314.64"/>
<polygon fill="blue" stroke="blue" points="331.006,-1317.45 341.026,-1320.89 335.339,-1311.95 331.006,-1317.45"/>
</g>
<!-- re_opens -->
<g id="node28" class="node"><title>re_opens</title>
<polygon fill="none" stroke="black" points="338,-1431 338,-1467 392,-1467 392,-1431 338,-1431"/>
<text text-anchor="middle" x="365" y="-1446.5" font-family="Times New Roman,serif" font-size="10.00">re_opens</text>
</g>
<!-- regexpSwitcher&#45;&gt;re_opens -->
<g id="edge69" class="edge"><title>regexpSwitcher&#45;&gt;re_opens</title>
<path fill="none" stroke="#ee0000" d="M256.472,-1264.01C277.237,-1299.74 323.736,-1379.73 348.224,-1421.86"/>
<polygon fill="#ee0000" stroke="#ee0000" points="345.331,-1423.85 353.382,-1430.73 351.383,-1420.33 345.331,-1423.85"/>
</g>
<!-- re_at -->
<g id="node29" class="node"><title>re_at</title>
<polygon fill="none" stroke="black" points="338,-1376 338,-1412 392,-1412 392,-1376 338,-1376"/>
<text text-anchor="middle" x="365" y="-1391.5" font-family="Times New Roman,serif" font-size="10.00">re_at</text>
</g>
<!-- regexpSwitcher&#45;&gt;re_at -->
<g id="edge70" class="edge"><title>regexpSwitcher&#45;&gt;re_at</title>
<path fill="none" stroke="green" d="M260.469,-1264.15C281.17,-1290.11 319.357,-1338.01 343.119,-1367.81"/>
<polygon fill="green" stroke="green" points="340.442,-1370.07 349.413,-1375.7 345.915,-1365.7 340.442,-1370.07"/>
</g>
<!-- regexpSwitcher&#45;&gt;re_del_noAlpha -->
<g id="edge67" class="edge"><title>regexpSwitcher&#45;&gt;re_del_noAlpha</title>
<path fill="none" stroke="black" d="M283.613,-1243.29C324.715,-1240.4 389.97,-1235.82 435.443,-1232.62"/>
<polygon fill="black" stroke="black" points="435.959,-1236.09 445.689,-1231.9 435.468,-1229.11 435.959,-1236.09"/>
</g>
<!-- trim -->
<g id="node33" class="node"><title>trim</title>
<polygon fill="none" stroke="black" points="460,-1441 460,-1477 514,-1477 514,-1441 460,-1441"/>
<text text-anchor="middle" x="487" y="-1456.5" font-family="Times New Roman,serif" font-size="10.00">trim</text>
</g>
<!-- regexpSwitcher&#45;&gt;trim -->
<g id="edge71" class="edge"><title>regexpSwitcher&#45;&gt;trim</title>
<path fill="none" stroke="#473c8b" d="M265.633,-1264.16C308.942,-1302.28 409.387,-1390.69 458.681,-1434.07"/>
<polygon fill="#473c8b" stroke="#473c8b" points="456.6,-1436.91 466.419,-1440.89 461.225,-1431.65 456.6,-1436.91"/>
</g>
<!-- re_opens&#45;&gt;re_del_noAlpha -->
<g id="edge74" class="edge"><title>re_opens&#45;&gt;re_del_noAlpha</title>
<path fill="none" stroke="darkorange" d="M375.82,-1431C396.828,-1392.48 446.239,-1301.9 471.125,-1256.27"/>
<polygon fill="darkorange" stroke="darkorange" points="474.328,-1257.71 476.044,-1247.25 468.183,-1254.36 474.328,-1257.71"/>
</g>
<!-- re_opens&#45;&gt;trim -->
<g id="edge72" class="edge"><title>re_opens&#45;&gt;trim</title>
<path fill="none" stroke="#8b2252" d="M392.038,-1445.49C408.827,-1445.7 430.905,-1447.34 449.441,-1449.68"/>
<polygon fill="#8b2252" stroke="#8b2252" points="449.212,-1453.19 459.598,-1451.1 450.175,-1446.25 449.212,-1453.19"/>
</g>
<!-- re_opens&#45;&gt;trim -->
<g id="edge73" class="edge"><title>re_opens&#45;&gt;trim</title>
<path fill="none" stroke="#8b4513" d="M392.038,-1456.85C408.827,-1459.44 430.905,-1461.48 449.441,-1462.22"/>
<polygon fill="#8b4513" stroke="#8b4513" points="449.505,-1465.73 459.598,-1462.5 449.699,-1458.73 449.505,-1465.73"/>
</g>
<!-- splitLine&#45;&gt;RegExpMain -->
<g id="edge76" class="edge"><title>splitLine&#45;&gt;RegExpMain</title>
<path fill="none" stroke="#cd1076" d="M392.038,-1272.64C406.766,-1270.55 425.564,-1269.99 442.471,-1270.96"/>
<polygon fill="#cd1076" stroke="#cd1076" points="442.457,-1274.47 452.7,-1271.77 443.005,-1267.49 442.457,-1274.47"/>
</g>
<!-- splitLine&#45;&gt;RegExpMain -->
<g id="edge77" class="edge"><title>splitLine&#45;&gt;RegExpMain</title>
<path fill="none" stroke="#838b8b" d="M392.038,-1284C406.766,-1284 425.564,-1284 442.471,-1284"/>
<polygon fill="#838b8b" stroke="#838b8b" points="442.7,-1287.5 452.7,-1284 442.7,-1280.5 442.7,-1287.5"/>
</g>
<!-- splitLine&#45;&gt;RegExpMain -->
<g id="edge78" class="edge"><title>splitLine&#45;&gt;RegExpMain</title>
<path fill="none" stroke="black" d="M392.038,-1295.36C406.766,-1297.45 425.564,-1298.01 442.471,-1297.04"/>
<polygon fill="black" stroke="black" points="443.005,-1300.51 452.7,-1296.23 442.457,-1293.53 443.005,-1300.51"/>
</g>
<!-- splitLine&#45;&gt;re_del_noAlpha -->
<g id="edge75" class="edge"><title>splitLine&#45;&gt;re_del_noAlpha</title>
<path fill="none" stroke="#cd9b1d" d="M392.038,-1272.07C405.168,-1266.05 421.532,-1258.55 436.907,-1251.5"/>
<polygon fill="#cd9b1d" stroke="#cd9b1d" points="438.683,-1254.54 446.315,-1247.19 435.766,-1248.17 438.683,-1254.54"/>
</g>
<!-- addBrLine&#45;&gt;RegExpMain -->
<g id="edge79" class="edge"><title>addBrLine&#45;&gt;RegExpMain</title>
<path fill="none" stroke="blue" d="M394.135,-1225.82C410.298,-1236.06 430.808,-1249.05 448.346,-1260.15"/>
<polygon fill="blue" stroke="blue" points="446.887,-1263.37 457.208,-1265.77 450.633,-1257.46 446.887,-1263.37"/>
</g>
<!-- cDate -->
<g id="node34" class="node"><title>cDate</title>
<polygon fill="none" stroke="black" points="338,-127 338,-163 392,-163 392,-127 338,-127"/>
<text text-anchor="middle" x="365" y="-142.5" font-family="Times New Roman,serif" font-size="10.00">cDate</text>
</g>
<!-- checkEnv -->
<g id="node36" class="node"><title>checkEnv</title>
<polygon fill="none" stroke="black" points="337,-72 337,-108 393,-108 393,-72 337,-72"/>
<text text-anchor="middle" x="365" y="-87.5" font-family="Times New Roman,serif" font-size="10.00">checkEnv</text>
</g>
<!-- setConvertFreq -->
<g id="node37" class="node"><title>setConvertFreq</title>
<polygon fill="none" stroke="black" points="325.5,-292 325.5,-328 404.5,-328 404.5,-292 325.5,-292"/>
<text text-anchor="middle" x="365" y="-307.5" font-family="Times New Roman,serif" font-size="10.00">setConvertFreq</text>
</g>
<!-- setConvertFreq&#45;&gt;RegExpMain -->
<g id="edge80" class="edge"><title>setConvertFreq&#45;&gt;RegExpMain</title>
<path fill="none" stroke="black" d="M368.506,-328.222C383.906,-447.129 465.614,-1110.24 482.819,-1255.81"/>
<polygon fill="black" stroke="black" points="479.343,-1256.22 483.987,-1265.75 486.296,-1255.41 479.343,-1256.22"/>
</g>
<!-- setConvertFreq&#45;&gt;RegExpMain -->
<g id="edge81" class="edge"><title>setConvertFreq&#45;&gt;RegExpMain</title>
<path fill="none" stroke="blue" d="M368.032,-328.419C381.975,-447.799 463.488,-1109.63 482.181,-1255.58"/>
<polygon fill="blue" stroke="blue" points="478.764,-1256.45 483.512,-1265.92 485.706,-1255.55 478.764,-1256.45"/>
</g>
<!-- load_params -->
<g id="node38" class="node"><title>load_params</title>
<polygon fill="none" stroke="black" points="331,-17 331,-53 399,-53 399,-17 331,-17"/>
<text text-anchor="middle" x="365" y="-32.5" font-family="Times New Roman,serif" font-size="10.00">load_params</text>
</g>
<!-- dumperHash -->
<g id="node39" class="node"><title>dumperHash</title>
<polygon fill="none" stroke="black" points="453,-237 453,-273 521,-273 521,-237 453,-237"/>
<text text-anchor="middle" x="487" y="-252.5" font-family="Times New Roman,serif" font-size="10.00">dumperHash</text>
</g>
<!-- writeLog -->
<g id="node40" class="node"><title>writeLog</title>
<polygon fill="none" stroke="black" points="338,-237 338,-273 392,-273 392,-237 338,-237"/>
<text text-anchor="middle" x="365" y="-252.5" font-family="Times New Roman,serif" font-size="10.00">writeLog</text>
</g>
<!-- writeLog&#45;&gt;dumperHash -->
<g id="edge82" class="edge"><title>writeLog&#45;&gt;dumperHash</title>
<path fill="none" stroke="#ee0000" d="M380.237,-236.782C400.644,-226.433 438.442,-225.231 462.888,-233.176"/>
<polygon fill="#ee0000" stroke="#ee0000" points="461.572,-236.419 472.152,-236.981 464.232,-229.944 461.572,-236.419"/>
</g>
<!-- writeLog&#45;&gt;dumperHash -->
<g id="edge83" class="edge"><title>writeLog&#45;&gt;dumperHash</title>
<path fill="none" stroke="green" d="M392.038,-243.643C406.766,-241.551 425.564,-240.99 442.471,-241.963"/>
<polygon fill="green" stroke="green" points="442.457,-245.472 452.7,-242.766 443.005,-238.494 442.457,-245.472"/>
</g>
<!-- writeLog&#45;&gt;dumperHash -->
<g id="edge84" class="edge"><title>writeLog&#45;&gt;dumperHash</title>
<path fill="none" stroke="#473c8b" d="M392.038,-255C406.766,-255 425.564,-255 442.471,-255"/>
<polygon fill="#473c8b" stroke="#473c8b" points="442.7,-258.5 452.7,-255 442.7,-251.5 442.7,-258.5"/>
</g>
<!-- writeLog&#45;&gt;dumperHash -->
<g id="edge85" class="edge"><title>writeLog&#45;&gt;dumperHash</title>
<path fill="none" stroke="#8b2252" d="M392.038,-266.357C406.766,-268.449 425.564,-269.01 442.471,-268.037"/>
<polygon fill="#8b2252" stroke="#8b2252" points="443.005,-271.506 452.7,-267.234 442.457,-264.528 443.005,-271.506"/>
</g>
<!-- writeLog&#45;&gt;dumperHash -->
<g id="edge86" class="edge"><title>writeLog&#45;&gt;dumperHash</title>
<path fill="none" stroke="#8b4513" d="M380.237,-273.218C400.644,-283.567 438.442,-284.769 462.888,-276.824"/>
<polygon fill="#8b4513" stroke="#8b4513" points="464.232,-280.056 472.152,-273.019 461.572,-273.581 464.232,-280.056"/>
</g>
<!-- makeXlsFile -->
<g id="node41" class="node"><title>makeXlsFile</title>
<polygon fill="none" stroke="black" points="332.5,-182 332.5,-218 397.5,-218 397.5,-182 332.5,-182"/>
<text text-anchor="middle" x="365" y="-197.5" font-family="Times New Roman,serif" font-size="10.00">makeXlsFile</text>
</g>
<!-- main.pl -->
<g id="node43" class="node"><title>main.pl</title>
<polygon fill="none" stroke="black" points="0,-741 0,-777 54,-777 54,-741 0,-741"/>
<text text-anchor="middle" x="27" y="-756.5" font-family="Times New Roman,serif" font-size="10.00">main.pl</text>
</g>
<!-- main.pl&#45;&gt;initLegende -->
<g id="edge11" class="edge"><title>main.pl&#45;&gt;initLegende</title>
<path fill="none" stroke="#838b8b" d="M35.2637,-777.123C52.6918,-820.607 96.9761,-931.099 117.824,-983.116"/>
<polygon fill="#838b8b" stroke="#838b8b" points="114.697,-984.722 121.666,-992.702 121.195,-982.118 114.697,-984.722"/>
</g>
<!-- main.pl&#45;&gt;set_sched -->
<g id="edge9" class="edge"><title>main.pl&#45;&gt;set_sched</title>
<path fill="none" stroke="#cd9b1d" d="M33.1475,-777.449C49.6272,-836.515 101.169,-1021.25 121.059,-1092.54"/>
<polygon fill="#cd9b1d" stroke="#cd9b1d" points="117.804,-1093.9 123.863,-1102.59 124.547,-1092.02 117.804,-1093.9"/>
</g>
<!-- main.pl&#45;&gt;set_jobs -->
<g id="edge6" class="edge"><title>main.pl&#45;&gt;set_jobs</title>
<path fill="none" stroke="#8b2252" d="M40.9972,-777.273C58.5724,-801.983 90.0311,-846.212 110.188,-874.551"/>
<polygon fill="#8b2252" stroke="#8b2252" points="107.404,-876.676 116.053,-882.797 113.109,-872.619 107.404,-876.676"/>
</g>
<!-- main.pl&#45;&gt;set_next -->
<g id="edge12" class="edge"><title>main.pl&#45;&gt;set_next</title>
<path fill="none" stroke="black" d="M37.3208,-777.18C55.1337,-811.924 94.0969,-887.922 115.034,-928.759"/>
<polygon fill="black" stroke="black" points="112.025,-930.562 119.702,-937.864 118.254,-927.368 112.025,-930.562"/>
</g>
<!-- main.pl&#45;&gt;set_conf -->
<g id="edge10" class="edge"><title>main.pl&#45;&gt;set_conf</title>
<path fill="none" stroke="#cd1076" d="M34.0155,-777.285C50.997,-828.902 99.3891,-975.995 119.771,-1037.95"/>
<polygon fill="#cd1076" stroke="#cd1076" points="116.566,-1039.41 123.016,-1047.81 123.215,-1037.22 116.566,-1039.41"/>
</g>
<!-- main.pl&#45;&gt;setCluster -->
<g id="edge13" class="edge"><title>main.pl&#45;&gt;setCluster</title>
<path fill="none" stroke="blue" d="M48.9273,-777.026C63.8238,-789.858 84.0209,-807.256 100.404,-821.367"/>
<polygon fill="blue" stroke="blue" points="98.2386,-824.122 108.1,-827.997 102.807,-818.818 98.2386,-824.122"/>
</g>
<!-- main.pl&#45;&gt;set_link_after -->
<g id="edge15" class="edge"><title>main.pl&#45;&gt;set_link_after</title>
<path fill="none" stroke="green" d="M42.678,-740.877C80.7654,-696.849 178.278,-584.128 222.542,-532.961"/>
<polygon fill="green" stroke="green" points="225.276,-535.15 229.171,-525.298 219.982,-530.571 225.276,-535.15"/>
</g>
<!-- main.pl&#45;&gt;set_links -->
<g id="edge16" class="edge"><title>main.pl&#45;&gt;set_links</title>
<path fill="none" stroke="#473c8b" d="M47.1182,-740.82C86.2958,-705.416 172.875,-627.177 217.387,-586.953"/>
<polygon fill="#473c8b" stroke="#473c8b" points="219.858,-589.438 224.93,-580.136 215.164,-584.244 219.858,-589.438"/>
</g>
<!-- main.pl&#45;&gt;buildNodes -->
<g id="edge17" class="edge"><title>main.pl&#45;&gt;buildNodes</title>
<path fill="none" stroke="#8b2252" d="M54.01,-747.024C64.3919,-745.622 76.5959,-745.188 88.1081,-745.72"/>
<polygon fill="#8b2252" stroke="#8b2252" points="88.1836,-749.235 98.414,-746.48 88.6986,-742.254 88.1836,-749.235"/>
</g>
<!-- main.pl&#45;&gt;buildNodes -->
<g id="edge19" class="edge"><title>main.pl&#45;&gt;buildNodes</title>
<path fill="none" stroke="darkorange" d="M54.01,-759C64.3919,-759 76.5959,-759 88.1081,-759"/>
<polygon fill="darkorange" stroke="darkorange" points="88.414,-762.5 98.414,-759 88.414,-755.5 88.414,-762.5"/>
</g>
<!-- main.pl&#45;&gt;buildNodes -->
<g id="edge21" class="edge"><title>main.pl&#45;&gt;buildNodes</title>
<path fill="none" stroke="#cd1076" d="M54.01,-770.976C64.3919,-772.378 76.5959,-772.812 88.1081,-772.28"/>
<polygon fill="#cd1076" stroke="#cd1076" points="88.6986,-775.746 98.414,-771.52 88.1836,-768.765 88.6986,-775.746"/>
</g>
<!-- main.pl&#45;&gt;setClusterColor -->
<g id="edge14" class="edge"><title>main.pl&#45;&gt;setClusterColor</title>
<path fill="none" stroke="#ee0000" d="M54.01,-744.836C64.064,-739.361 75.8269,-732.956 87.0154,-726.863"/>
<polygon fill="#ee0000" stroke="#ee0000" points="88.7133,-729.924 95.8217,-722.067 85.3656,-723.776 88.7133,-729.924"/>
</g>
<!-- main.pl&#45;&gt;writeVgFile -->
<g id="edge18" class="edge"><title>main.pl&#45;&gt;writeVgFile</title>
<path fill="none" stroke="#8b4513" d="M37.1412,-740.884C49.856,-722.321 73.5909,-694.879 93.7487,-674.455"/>
<polygon fill="#8b4513" stroke="#8b4513" points="96.3503,-676.804 100.986,-667.278 91.4213,-671.834 96.3503,-676.804"/>
</g>
<!-- main.pl&#45;&gt;writeVgFile -->
<g id="edge20" class="edge"><title>main.pl&#45;&gt;writeVgFile</title>
<path fill="none" stroke="#cd9b1d" d="M44.6781,-740.836C61.2719,-722.763 86.8825,-694.871 105.526,-674.566"/>
<polygon fill="#cd9b1d" stroke="#cd9b1d" points="108.112,-676.924 112.297,-667.191 102.956,-672.19 108.112,-676.924"/>
</g>
<!-- main.pl&#45;&gt;writeVgFile -->
<g id="edge22" class="edge"><title>main.pl&#45;&gt;writeVgFile</title>
<path fill="none" stroke="#838b8b" d="M54.01,-742.649C73.0172,-724.513 98.1315,-696.487 113.927,-675.369"/>
<polygon fill="#838b8b" stroke="#838b8b" points="116.892,-677.241 119.885,-667.077 111.208,-673.156 116.892,-677.241"/>
</g>
<!-- main.pl&#45;&gt;RegExpMain -->
<g id="edge7" class="edge"><title>main.pl&#45;&gt;RegExpMain</title>
<path fill="none" stroke="#8b4513" d="M45.3164,-777.051C118.632,-855.571 390.648,-1165.98 466.971,-1258.17"/>
<polygon fill="#8b4513" stroke="#8b4513" points="464.281,-1260.41 473.337,-1265.91 469.687,-1255.96 464.281,-1260.41"/>
</g>
<!-- main.pl&#45;&gt;RegExpMain -->
<g id="edge8" class="edge"><title>main.pl&#45;&gt;RegExpMain</title>
<path fill="none" stroke="darkorange" d="M40.7669,-777.218C105.115,-856.038 376.674,-1166.24 461.544,-1258.25"/>
<polygon fill="darkorange" stroke="darkorange" points="459.113,-1260.78 468.479,-1265.73 464.246,-1256.02 459.113,-1260.78"/>
</g>
<!-- main.pl&#45;&gt;trim -->
<g id="edge5" class="edge"><title>main.pl&#45;&gt;trim</title>
<path fill="none" stroke="#473c8b" d="M38.8331,-777.007C101.473,-872.329 394.333,-1317.99 469.422,-1432.25"/>
<polygon fill="#473c8b" stroke="#473c8b" points="466.617,-1434.36 475.034,-1440.79 472.467,-1430.51 466.617,-1434.36"/>
</g>
<!-- main.pl&#45;&gt;cDate -->
<g id="edge1" class="edge"><title>main.pl&#45;&gt;cDate</title>
<path fill="none" stroke="black" d="M36.9326,-740.957C84.8865,-653.845 292.497,-276.708 350.118,-172.034"/>
<polygon fill="black" stroke="black" points="353.31,-173.493 355.067,-163.044 347.178,-170.117 353.31,-173.493"/>
</g>
<!-- main.pl&#45;&gt;checkEnv -->
<g id="edge2" class="edge"><title>main.pl&#45;&gt;checkEnv</title>
<path fill="none" stroke="blue" d="M36.216,-740.759C83.0962,-647.969 295.069,-228.413 351.282,-117.152"/>
<polygon fill="blue" stroke="blue" points="354.407,-118.729 355.792,-108.225 348.159,-115.572 354.407,-118.729"/>
</g>
<!-- main.pl&#45;&gt;setConvertFreq -->
<g id="edge4" class="edge"><title>main.pl&#45;&gt;setConvertFreq</title>
<path fill="none" stroke="green" d="M40.6686,-740.843C93.2726,-670.963 282.805,-419.188 345.044,-336.51"/>
<polygon fill="green" stroke="green" points="347.943,-338.478 351.161,-328.383 342.351,-334.268 347.943,-338.478"/>
</g>
<!-- main.pl&#45;&gt;load_params -->
<g id="edge3" class="edge"><title>main.pl&#45;&gt;load_params</title>
<path fill="none" stroke="#ee0000" d="M35.5242,-740.741C81.2337,-642.831 297.281,-180.054 352.252,-62.3062"/>
<polygon fill="#ee0000" stroke="#ee0000" points="355.44,-63.7513 356.499,-53.2095 349.097,-60.7901 355.44,-63.7513"/>
</g>
<!-- main.pl&#45;&gt;writeLog -->
<g id="edge24" class="edge"><title>main.pl&#45;&gt;writeLog</title>
<path fill="none" stroke="blue" d="M39.2293,-740.765C90.3134,-664.592 286.788,-371.624 347.214,-281.522"/>
<polygon fill="blue" stroke="blue" points="350.124,-283.466 352.787,-273.211 344.31,-279.567 350.124,-283.466"/>
</g>
<!-- main.pl&#45;&gt;makeXlsFile -->
<g id="edge23" class="edge"><title>main.pl&#45;&gt;makeXlsFile</title>
<path fill="none" stroke="black" d="M38.0537,-740.719C87.6519,-658.691 289.81,-324.352 348.781,-226.824"/>
<polygon fill="black" stroke="black" points="351.851,-228.51 354.031,-218.142 345.861,-224.888 351.851,-228.51"/>
</g>
<!-- launcher.pl -->
<g id="node44" class="node"><title>launcher.pl</title>
<polygon fill="none" stroke="black" points="99.5,-1633 99.5,-1669 160.5,-1669 160.5,-1633 99.5,-1633"/>
<text text-anchor="middle" x="130" y="-1648.5" font-family="Times New Roman,serif" font-size="10.00">launcher.pl</text>
</g>
<!-- launcher.pl&#45;&gt;print_service -->
<g id="edge34" class="edge"><title>launcher.pl&#45;&gt;print_service</title>
<path fill="none" stroke="#cd1076" d="M160.689,-1643.91C172.778,-1641.02 186.999,-1637.62 200.236,-1634.46"/>
<polygon fill="#cd1076" stroke="#cd1076" points="201.203,-1637.82 210.115,-1632.1 199.576,-1631.02 201.203,-1637.82"/>
</g>
<!-- launcher.pl&#45;&gt;build_service -->
<g id="edge33" class="edge"><title>launcher.pl&#45;&gt;build_service</title>
<path fill="none" stroke="#cd9b1d" d="M145.773,-1669.04C165.399,-1693.01 200.202,-1735.51 222.675,-1762.96"/>
<polygon fill="#cd9b1d" stroke="#cd9b1d" points="220.18,-1765.43 229.224,-1770.95 225.596,-1761 220.18,-1765.43"/>
</g>
<!-- launcher.pl&#45;&gt;set_service -->
<g id="edge35" class="edge"><title>launcher.pl&#45;&gt;set_service</title>
<path fill="none" stroke="#838b8b" d="M155.519,-1669.01C171.696,-1680.89 193.089,-1696.6 210.786,-1709.6"/>
<polygon fill="#838b8b" stroke="#838b8b" points="209.007,-1712.64 219.138,-1715.74 213.151,-1707 209.007,-1712.64"/>
</g>
<!-- launcher.pl&#45;&gt;build_cpu -->
<g id="edge36" class="edge"><title>launcher.pl&#45;&gt;build_cpu</title>
<path fill="none" stroke="black" d="M160.722,-1654.66C203.287,-1659.73 280.179,-1668.89 326.517,-1674.41"/>
<polygon fill="black" stroke="black" points="326.134,-1677.89 336.478,-1675.6 326.962,-1670.94 326.134,-1677.89"/>
</g>
<!-- launcher.pl&#45;&gt;print_cpu -->
<g id="edge37" class="edge"><title>launcher.pl&#45;&gt;print_cpu</title>
<path fill="none" stroke="blue" d="M160.722,-1647.47C203.403,-1642.57 280.597,-1633.7 326.894,-1628.38"/>
<polygon fill="blue" stroke="blue" points="327.304,-1631.85 336.84,-1627.24 326.505,-1624.9 327.304,-1631.85"/>
</g>
<!-- launcher.pl&#45;&gt;set_cpu -->
<g id="edge38" class="edge"><title>launcher.pl&#45;&gt;set_cpu</title>
<path fill="none" stroke="#ee0000" d="M160.689,-1658.36C175.141,-1661.94 192.638,-1666.27 207.86,-1670.04"/>
<polygon fill="#ee0000" stroke="#ee0000" points="207.421,-1673.54 217.969,-1672.55 209.104,-1666.75 207.421,-1673.54"/>
</g>
</g>
</svg>
