<?xml version="1.0" encoding="UTF-8" standalone="no"?>
<!DOCTYPE svg PUBLIC "-//W3C//DTD SVG 1.1//EN"
 "http://www.w3.org/Graphics/SVG/1.1/DTD/svg11.dtd">
<!-- Generated by graphviz version 2.33.20130816.0446 (20130816.0446)
 -->
<!-- Title: %3 Pages: 1 -->
<svg width="560pt" height="2047pt"
 viewBox="0.00 0.00 560.00 2047.00" xmlns="http://www.w3.org/2000/svg" xmlns:xlink="http://www.w3.org/1999/xlink">
<g id="graph0" class="graph" transform="scale(1 1) rotate(0) translate(4 2043)">
<title>%3</title>
<polygon fill="white" stroke="white" points="-4,5 -4,-2043 557,-2043 557,5 -4,5"/>
<g id="clust1" class="cluster"><title>cluster_launcher_pl</title>
<polygon fill="lightgrey" stroke="black" points="94,-1638 94,-2031 409,-2031 409,-1638 94,-1638"/>
<text text-anchor="middle" x="251.5" y="-2015" font-family="Times New Roman,serif" font-size="15.00">launcher.pl</text>
</g>
<g id="clust2" class="cluster"><title>cluster_lib_hash_pl</title>
<polygon fill="lightgrey" stroke="black" points="98,-902 98,-1256 288,-1256 288,-902 98,-902"/>
<text text-anchor="middle" x="193" y="-1240" font-family="Times New Roman,serif" font-size="15.00">lib_hash.pl</text>
</g>
<g id="clust3" class="cluster"><title>cluster_lib_link_pl</title>
<polygon fill="lightgrey" stroke="black" points="209,-563 209,-697 408,-697 408,-563 209,-563"/>
<text text-anchor="middle" x="308.5" y="-681" font-family="Times New Roman,serif" font-size="15.00">lib_link.pl</text>
</g>
<g id="clust4" class="cluster"><title>cluster_lib_makeGvFile_pl</title>
<polygon fill="lightgrey" stroke="black" points="90,-705 90,-894 295,-894 295,-705 90,-705"/>
<text text-anchor="middle" x="192.5" y="-878" font-family="Times New Roman,serif" font-size="15.00">lib_makeGvFile.pl</text>
</g>
<g id="clust5" class="cluster"><title>cluster_lib_regexp_pl</title>
<polygon fill="lightgrey" stroke="black" points="206,-1264 206,-1605 544,-1605 544,-1264 206,-1264"/>
<text text-anchor="middle" x="375" y="-1589" font-family="Times New Roman,serif" font-size="15.00">lib_regexp.pl</text>
</g>
<g id="clust6" class="cluster"><title>cluster_lib_utils_pl</title>
<polygon fill="lightgrey" stroke="black" points="320,-8 320,-527 537,-527 537,-8 320,-8"/>
<text text-anchor="middle" x="428.5" y="-511" font-family="Times New Roman,serif" font-size="15.00">lib_utils.pl</text>
</g>
<!-- myhand -->
<g id="node1" class="node"><title>myhand</title>
<polygon fill="none" stroke="black" points="111,-1950 111,-1986 165,-1986 165,-1950 111,-1950"/>
<text text-anchor="middle" x="138" y="-1965.5" font-family="Times New Roman,serif" font-size="10.00">myhand</text>
</g>
<!-- _choix -->
<g id="node2" class="node"><title>_choix</title>
<polygon fill="none" stroke="black" points="346,-1675 346,-1711 400,-1711 400,-1675 346,-1675"/>
<text text-anchor="middle" x="373" y="-1690.5" font-family="Times New Roman,serif" font-size="10.00">_choix</text>
</g>
<!-- RegExpMain -->
<g id="node29" class="node"><title>RegExpMain</title>
<polygon fill="none" stroke="black" points="461,-1535 461,-1571 529,-1571 529,-1535 461,-1535"/>
<text text-anchor="middle" x="495" y="-1550.5" font-family="Times New Roman,serif" font-size="10.00">RegExpMain</text>
</g>
<!-- _choix&#45;&gt;RegExpMain -->
<g id="edge26" class="edge"><title>_choix&#45;&gt;RegExpMain</title>
<path fill="none" stroke="black" d="M389.442,-1674.98C410.298,-1650.65 447.61,-1607.12 471.562,-1579.18"/>
<polygon fill="black" stroke="black" points="474.385,-1581.26 478.236,-1571.39 469.071,-1576.71 474.385,-1581.26"/>
</g>
<!-- envVpn -->
<g id="node3" class="node"><title>envVpn</title>
<polygon fill="none" stroke="black" points="226,-1830 226,-1866 280,-1866 280,-1830 226,-1830"/>
<text text-anchor="middle" x="253" y="-1845.5" font-family="Times New Roman,serif" font-size="10.00">envVpn</text>
</g>
<!-- get_tws -->
<g id="node4" class="node"><title>get_tws</title>
<polygon fill="none" stroke="black" points="226,-1702 226,-1738 280,-1738 280,-1702 226,-1702"/>
<text text-anchor="middle" x="253" y="-1717.5" font-family="Times New Roman,serif" font-size="10.00">get_tws</text>
</g>
<!-- get_tws&#45;&gt;_choix -->
<g id="edge27" class="edge"><title>get_tws&#45;&gt;_choix</title>
<path fill="none" stroke="blue" d="M280.188,-1714.01C296.611,-1710.25 318.007,-1705.35 336.012,-1701.23"/>
<polygon fill="blue" stroke="blue" points="336.918,-1704.62 345.885,-1698.98 335.356,-1697.79 336.918,-1704.62"/>
</g>
<!-- get_tws&#45;&gt;get_tws -->
<g id="edge28" class="edge"><title>get_tws&#45;&gt;get_tws</title>
<path fill="none" stroke="#ee0000" d="M232.376,-1738.15C229.204,-1747.54 236.078,-1756 253,-1756 263.312,-1756 269.893,-1752.86 272.742,-1748.28"/>
<polygon fill="#ee0000" stroke="#ee0000" points="276.243,-1748.42 273.624,-1738.15 269.27,-1747.81 276.243,-1748.42"/>
</g>
<!-- create_tar -->
<g id="node5" class="node"><title>create_tar</title>
<polygon fill="none" stroke="black" points="345,-1775 345,-1811 401,-1811 401,-1775 345,-1775"/>
<text text-anchor="middle" x="373" y="-1790.5" font-family="Times New Roman,serif" font-size="10.00">create_tar</text>
</g>
<!-- send_tar -->
<g id="node6" class="node"><title>send_tar</title>
<polygon fill="none" stroke="black" points="226,-1775 226,-1811 280,-1811 280,-1775 226,-1775"/>
<text text-anchor="middle" x="253" y="-1790.5" font-family="Times New Roman,serif" font-size="10.00">send_tar</text>
</g>
<!-- send_tar&#45;&gt;create_tar -->
<g id="edge29" class="edge"><title>send_tar&#45;&gt;create_tar</title>
<path fill="none" stroke="green" d="M280.188,-1793C296.194,-1793 316.924,-1793 334.635,-1793"/>
<polygon fill="green" stroke="green" points="334.655,-1796.5 344.655,-1793 334.655,-1789.5 334.655,-1796.5"/>
</g>
<!-- print_service -->
<g id="node7" class="node"><title>print_service</title>
<polygon fill="none" stroke="black" points="103.5,-1895 103.5,-1931 172.5,-1931 172.5,-1895 103.5,-1895"/>
<text text-anchor="middle" x="138" y="-1910.5" font-family="Times New Roman,serif" font-size="10.00">print_service</text>
</g>
<!-- build_service -->
<g id="node8" class="node"><title>build_service</title>
<polygon fill="none" stroke="black" points="102.5,-1840 102.5,-1876 173.5,-1876 173.5,-1840 102.5,-1840"/>
<text text-anchor="middle" x="138" y="-1855.5" font-family="Times New Roman,serif" font-size="10.00">build_service</text>
</g>
<!-- set_service -->
<g id="node9" class="node"><title>set_service</title>
<polygon fill="none" stroke="black" points="222,-1647 222,-1683 284,-1683 284,-1647 222,-1647"/>
<text text-anchor="middle" x="253" y="-1662.5" font-family="Times New Roman,serif" font-size="10.00">set_service</text>
</g>
<!-- set_service&#45;&gt;_choix -->
<g id="edge30" class="edge"><title>set_service&#45;&gt;_choix</title>
<path fill="none" stroke="#473c8b" d="M284.082,-1672.14C299.915,-1675.89 319.439,-1680.53 336.064,-1684.47"/>
<polygon fill="#473c8b" stroke="#473c8b" points="335.443,-1687.92 345.981,-1686.83 337.059,-1681.11 335.443,-1687.92"/>
</g>
<!-- build_files -->
<g id="node10" class="node"><title>build_files</title>
<polygon fill="none" stroke="black" points="223.5,-1961 223.5,-1997 282.5,-1997 282.5,-1961 223.5,-1961"/>
<text text-anchor="middle" x="253" y="-1976.5" font-family="Times New Roman,serif" font-size="10.00">build_files</text>
</g>
<!-- print_files -->
<g id="node11" class="node"><title>print_files</title>
<polygon fill="none" stroke="black" points="224.5,-1906 224.5,-1942 281.5,-1942 281.5,-1906 224.5,-1906"/>
<text text-anchor="middle" x="253" y="-1921.5" font-family="Times New Roman,serif" font-size="10.00">print_files</text>
</g>
<!-- set_files -->
<g id="node12" class="node"><title>set_files</title>
<polygon fill="none" stroke="black" points="111,-1785 111,-1821 165,-1821 165,-1785 111,-1785"/>
<text text-anchor="middle" x="138" y="-1800.5" font-family="Times New Roman,serif" font-size="10.00">set_files</text>
</g>
<!-- set_files&#45;&gt;_choix -->
<g id="edge31" class="edge"><title>set_files&#45;&gt;_choix</title>
<path fill="none" stroke="#8b2252" d="M165.417,-1790.17C207.781,-1770.34 289.188,-1732.23 336.49,-1710.09"/>
<polygon fill="#8b2252" stroke="#8b2252" points="338.184,-1713.16 345.757,-1705.75 335.217,-1706.82 338.184,-1713.16"/>
</g>
<!-- set_files&#45;&gt;envVpn -->
<g id="edge34" class="edge"><title>set_files&#45;&gt;envVpn</title>
<path fill="none" stroke="#cd9b1d" d="M165.208,-1807.64C180.469,-1812.65 199.915,-1820.22 216.531,-1827.56"/>
<polygon fill="#cd9b1d" stroke="#cd9b1d" points="215.381,-1830.88 225.934,-1831.83 218.275,-1824.51 215.381,-1830.88"/>
</g>
<!-- set_files&#45;&gt;envVpn -->
<g id="edge36" class="edge"><title>set_files&#45;&gt;envVpn</title>
<path fill="none" stroke="#838b8b" d="M165.208,-1819.24C180.326,-1826.31 199.552,-1834.14 216.064,-1840.03"/>
<polygon fill="#838b8b" stroke="#838b8b" points="215.339,-1843.48 225.934,-1843.41 217.61,-1836.86 215.339,-1843.48"/>
</g>
<!-- set_files&#45;&gt;get_tws -->
<g id="edge35" class="edge"><title>set_files&#45;&gt;get_tws</title>
<path fill="none" stroke="#cd1076" d="M163.519,-1784.99C179.696,-1773.11 201.089,-1757.4 218.786,-1744.4"/>
<polygon fill="#cd1076" stroke="#cd1076" points="221.151,-1747 227.138,-1738.26 217.007,-1741.36 221.151,-1747"/>
</g>
<!-- set_files&#45;&gt;send_tar -->
<g id="edge37" class="edge"><title>set_files&#45;&gt;send_tar</title>
<path fill="none" stroke="black" d="M165.208,-1800.68C180.184,-1799.36 199.19,-1797.67 215.596,-1796.22"/>
<polygon fill="black" stroke="black" points="216.281,-1799.67 225.934,-1795.31 215.664,-1792.7 216.281,-1799.67"/>
</g>
<!-- set_files&#45;&gt;build_files -->
<g id="edge32" class="edge"><title>set_files&#45;&gt;build_files</title>
<path fill="none" stroke="#8b4513" d="M150.667,-1821.17C170.681,-1852.34 211.642,-1916.14 234.89,-1952.35"/>
<polygon fill="#8b4513" stroke="#8b4513" points="232.048,-1954.4 240.396,-1960.93 237.939,-1950.62 232.048,-1954.4"/>
</g>
<!-- set_files&#45;&gt;print_files -->
<g id="edge33" class="edge"><title>set_files&#45;&gt;print_files</title>
<path fill="none" stroke="darkorange" d="M155.917,-1821.11C175.056,-1841.61 206.374,-1875.14 228.026,-1898.33"/>
<polygon fill="darkorange" stroke="darkorange" points="225.584,-1900.84 234.967,-1905.76 230.7,-1896.06 225.584,-1900.84"/>
</g>
<!-- initNode -->
<g id="node13" class="node"><title>initNode</title>
<polygon fill="none" stroke="black" points="226,-1020 226,-1056 280,-1056 280,-1020 226,-1020"/>
<text text-anchor="middle" x="253" y="-1035.5" font-family="Times New Roman,serif" font-size="10.00">initNode</text>
</g>
<!-- initLegende -->
<g id="node14" class="node"><title>initLegende</title>
<polygon fill="none" stroke="black" points="106,-1021 106,-1057 170,-1057 170,-1021 106,-1021"/>
<text text-anchor="middle" x="138" y="-1036.5" font-family="Times New Roman,serif" font-size="10.00">initLegende</text>
</g>
<!-- initLegende&#45;&gt;initNode -->
<g id="edge44" class="edge"><title>initLegende&#45;&gt;initNode</title>
<path fill="none" stroke="black" d="M170.177,-1038.72C184.265,-1038.6 201.002,-1038.45 215.656,-1038.32"/>
<polygon fill="black" stroke="black" points="215.923,-1041.82 225.891,-1038.23 215.861,-1034.82 215.923,-1041.82"/>
</g>
<!-- set_sched -->
<g id="node15" class="node"><title>set_sched</title>
<polygon fill="none" stroke="black" points="109,-1131 109,-1167 167,-1167 167,-1131 109,-1131"/>
<text text-anchor="middle" x="138" y="-1146.5" font-family="Times New Roman,serif" font-size="10.00">set_sched</text>
</g>
<!-- set_sched&#45;&gt;initNode -->
<g id="edge45" class="edge"><title>set_sched&#45;&gt;initNode</title>
<path fill="none" stroke="blue" d="M157.407,-1130.92C176.122,-1112.54 205.274,-1083.9 226.269,-1063.28"/>
<polygon fill="blue" stroke="blue" points="228.92,-1065.58 233.601,-1056.07 224.014,-1060.58 228.92,-1065.58"/>
</g>
<!-- regexpSwitcher -->
<g id="node28" class="node"><title>regexpSwitcher</title>
<polygon fill="none" stroke="black" points="214.5,-1328 214.5,-1364 291.5,-1364 291.5,-1328 214.5,-1328"/>
<text text-anchor="middle" x="253" y="-1343.5" font-family="Times New Roman,serif" font-size="10.00">regexpSwitcher</text>
</g>
<!-- set_sched&#45;&gt;regexpSwitcher -->
<g id="edge46" class="edge"><title>set_sched&#45;&gt;regexpSwitcher</title>
<path fill="none" stroke="#ee0000" d="M154.95,-1167.06C178.268,-1202.29 221.059,-1277.34 241.103,-1318.62"/>
<polygon fill="#ee0000" stroke="#ee0000" points="238.03,-1320.31 245.463,-1327.86 244.36,-1317.33 238.03,-1320.31"/>
</g>
<!-- set_sched&#45;&gt;regexpSwitcher -->
<g id="edge47" class="edge"><title>set_sched&#45;&gt;regexpSwitcher</title>
<path fill="none" stroke="green" d="M149.428,-1167.18C169.4,-1202 213.134,-1278.24 236.523,-1319.02"/>
<polygon fill="green" stroke="green" points="233.585,-1320.93 241.597,-1327.86 239.657,-1317.45 233.585,-1320.93"/>
</g>
<!-- set_sched&#45;&gt;regexpSwitcher -->
<g id="edge48" class="edge"><title>set_sched&#45;&gt;regexpSwitcher</title>
<path fill="none" stroke="#473c8b" d="M145.564,-1167.19C161.801,-1202.81 204.419,-1278.48 230.536,-1319.44"/>
<polygon fill="#473c8b" stroke="#473c8b" points="227.623,-1321.38 236.002,-1327.87 233.496,-1317.57 227.623,-1321.38"/>
</g>
<!-- set_jobs -->
<g id="node16" class="node"><title>set_jobs</title>
<polygon fill="none" stroke="black" points="111,-1076 111,-1112 165,-1112 165,-1076 111,-1076"/>
<text text-anchor="middle" x="138" y="-1091.5" font-family="Times New Roman,serif" font-size="10.00">set_jobs</text>
</g>
<!-- set_jobs&#45;&gt;initNode -->
<g id="edge51" class="edge"><title>set_jobs&#45;&gt;initNode</title>
<path fill="none" stroke="darkorange" d="M165.208,-1081.01C180.469,-1073.45 199.915,-1063.81 216.531,-1055.58"/>
<polygon fill="darkorange" stroke="darkorange" points="218.528,-1058.49 225.934,-1050.92 215.419,-1052.22 218.528,-1058.49"/>
</g>
<!-- set_jobs&#45;&gt;RegExpMain -->
<g id="edge49" class="edge"><title>set_jobs&#45;&gt;RegExpMain</title>
<path fill="none" stroke="#8b2252" d="M154.503,-1112.17C213.705,-1183.4 415.16,-1442.37 476.879,-1526.52"/>
<polygon fill="#8b2252" stroke="#8b2252" points="474.178,-1528.76 482.894,-1534.78 479.837,-1524.64 474.178,-1528.76"/>
</g>
<!-- set_jobs&#45;&gt;RegExpMain -->
<g id="edge50" class="edge"><title>set_jobs&#45;&gt;RegExpMain</title>
<path fill="none" stroke="#8b4513" d="M150.083,-1112.19C201.652,-1183.65 403.804,-1443.85 472.222,-1527.23"/>
<polygon fill="#8b4513" stroke="#8b4513" points="469.536,-1529.48 478.602,-1534.96 474.935,-1525.02 469.536,-1529.48"/>
</g>
<!-- set_next -->
<g id="node17" class="node"><title>set_next</title>
<polygon fill="none" stroke="black" points="111,-966 111,-1002 165,-1002 165,-966 111,-966"/>
<text text-anchor="middle" x="138" y="-981.5" font-family="Times New Roman,serif" font-size="10.00">set_next</text>
</g>
<!-- set_next&#45;&gt;initNode -->
<g id="edge52" class="edge"><title>set_next&#45;&gt;initNode</title>
<path fill="none" stroke="#cd9b1d" d="M165.208,-984.923C183.698,-991.188 208.333,-1003 226.632,-1014.4"/>
<polygon fill="#cd9b1d" stroke="#cd9b1d" points="224.773,-1017.36 235.052,-1019.93 228.618,-1011.51 224.773,-1017.36"/>
</g>
<!-- set_next&#45;&gt;initNode -->
<g id="edge53" class="edge"><title>set_next&#45;&gt;initNode</title>
<path fill="none" stroke="#cd1076" d="M165.208,-996.524C180.469,-1003.82 199.915,-1013.11 216.531,-1021.05"/>
<polygon fill="#cd1076" stroke="#cd1076" points="215.402,-1024.39 225.934,-1025.54 218.42,-1018.07 215.402,-1024.39"/>
</g>
<!-- set_next&#45;&gt;initNode -->
<g id="edge54" class="edge"><title>set_next&#45;&gt;initNode</title>
<path fill="none" stroke="#838b8b" d="M156.162,-1002.22C172.08,-1013.3 196.267,-1025.73 216.36,-1033.61"/>
<polygon fill="#838b8b" stroke="#838b8b" points="215.247,-1036.93 225.84,-1037.09 217.658,-1030.36 215.247,-1036.93"/>
</g>
<!-- set_conf -->
<g id="node18" class="node"><title>set_conf</title>
<polygon fill="none" stroke="black" points="111,-1186 111,-1222 165,-1222 165,-1186 111,-1186"/>
<text text-anchor="middle" x="138" y="-1201.5" font-family="Times New Roman,serif" font-size="10.00">set_conf</text>
</g>
<!-- set_conf&#45;&gt;initNode -->
<g id="edge56" class="edge"><title>set_conf&#45;&gt;initNode</title>
<path fill="none" stroke="blue" d="M151.308,-1185.92C171.262,-1156.61 210.765,-1098.58 233.918,-1064.56"/>
<polygon fill="blue" stroke="blue" points="236.973,-1066.29 239.707,-1056.06 231.187,-1062.36 236.973,-1066.29"/>
</g>
<!-- set_conf&#45;&gt;regexpSwitcher -->
<g id="edge57" class="edge"><title>set_conf&#45;&gt;regexpSwitcher</title>
<path fill="none" stroke="#ee0000" d="M153.541,-1222.27C173.29,-1247.09 208.705,-1291.59 231.244,-1319.92"/>
<polygon fill="#ee0000" stroke="#ee0000" points="228.549,-1322.15 237.514,-1327.8 234.026,-1317.79 228.549,-1322.15"/>
</g>
<!-- splitLine -->
<g id="node34" class="node"><title>splitLine</title>
<polygon fill="none" stroke="black" points="346,-1535 346,-1571 400,-1571 400,-1535 346,-1535"/>
<text text-anchor="middle" x="373" y="-1550.5" font-family="Times New Roman,serif" font-size="10.00">splitLine</text>
</g>
<!-- set_conf&#45;&gt;splitLine -->
<g id="edge55" class="edge"><title>set_conf&#45;&gt;splitLine</title>
<path fill="none" stroke="black" d="M150.304,-1222.27C189.168,-1279.99 309.425,-1458.58 355.127,-1526.46"/>
<polygon fill="black" stroke="black" points="352.329,-1528.57 360.818,-1534.91 358.136,-1524.66 352.329,-1528.57"/>
</g>
<!-- setCluster -->
<g id="node19" class="node"><title>setCluster</title>
<polygon fill="none" stroke="black" points="109.5,-911 109.5,-947 166.5,-947 166.5,-911 109.5,-911"/>
<text text-anchor="middle" x="138" y="-926.5" font-family="Times New Roman,serif" font-size="10.00">setCluster</text>
</g>
<!-- set_link_after -->
<g id="node20" class="node"><title>set_link_after</title>
<polygon fill="none" stroke="black" points="217.5,-572 217.5,-608 288.5,-608 288.5,-572 217.5,-572"/>
<text text-anchor="middle" x="253" y="-587.5" font-family="Times New Roman,serif" font-size="10.00">set_link_after</text>
</g>
<!-- makeLink -->
<g id="node22" class="node"><title>makeLink</title>
<polygon fill="none" stroke="black" points="346,-627 346,-663 400,-663 400,-627 346,-627"/>
<text text-anchor="middle" x="373" y="-642.5" font-family="Times New Roman,serif" font-size="10.00">makeLink</text>
</g>
<!-- set_link_after&#45;&gt;makeLink -->
<g id="edge59" class="edge"><title>set_link_after&#45;&gt;makeLink</title>
<path fill="none" stroke="blue" d="M288.766,-606.204C303.854,-613.237 321.501,-621.462 336.653,-628.525"/>
<polygon fill="blue" stroke="blue" points="335.178,-631.699 345.72,-632.751 338.135,-625.354 335.178,-631.699"/>
</g>
<!-- sort_unique_hash -->
<g id="node38" class="node"><title>sort_unique_hash</title>
<polygon fill="none" stroke="black" points="328,-457 328,-493 418,-493 418,-457 328,-457"/>
<text text-anchor="middle" x="373" y="-472.5" font-family="Times New Roman,serif" font-size="10.00">sort_unique_hash</text>
</g>
<!-- set_link_after&#45;&gt;sort_unique_hash -->
<g id="edge58" class="edge"><title>set_link_after&#45;&gt;sort_unique_hash</title>
<path fill="none" stroke="black" d="M272.697,-571.778C292.462,-552.516 323.786,-521.988 345.962,-500.376"/>
<polygon fill="black" stroke="black" points="348.671,-502.623 353.39,-493.137 343.786,-497.61 348.671,-502.623"/>
</g>
<!-- set_links -->
<g id="node21" class="node"><title>set_links</title>
<polygon fill="none" stroke="black" points="226,-627 226,-663 280,-663 280,-627 226,-627"/>
<text text-anchor="middle" x="253" y="-642.5" font-family="Times New Roman,serif" font-size="10.00">set_links</text>
</g>
<!-- set_links&#45;&gt;makeLink -->
<g id="edge60" class="edge"><title>set_links&#45;&gt;makeLink</title>
<path fill="none" stroke="#ee0000" d="M280.188,-627.84C296.611,-624.376 318.007,-623.824 336.012,-626.186"/>
<polygon fill="#ee0000" stroke="#ee0000" points="335.442,-629.639 345.885,-627.855 336.609,-622.737 335.442,-629.639"/>
</g>
<!-- set_links&#45;&gt;makeLink -->
<g id="edge61" class="edge"><title>set_links&#45;&gt;makeLink</title>
<path fill="none" stroke="green" d="M280.188,-639.28C296.534,-638.131 317.808,-637.943 335.761,-638.718"/>
<polygon fill="green" stroke="green" points="335.705,-642.22 345.885,-639.285 336.097,-635.231 335.705,-642.22"/>
</g>
<!-- set_links&#45;&gt;makeLink -->
<g id="edge62" class="edge"><title>set_links&#45;&gt;makeLink</title>
<path fill="none" stroke="#473c8b" d="M280.188,-650.72C296.534,-651.869 317.808,-652.057 335.761,-651.282"/>
<polygon fill="#473c8b" stroke="#473c8b" points="336.097,-654.769 345.885,-650.715 335.705,-647.78 336.097,-654.769"/>
</g>
<!-- set_links&#45;&gt;makeLink -->
<g id="edge63" class="edge"><title>set_links&#45;&gt;makeLink</title>
<path fill="none" stroke="#8b2252" d="M280.188,-662.16C296.611,-665.624 318.007,-666.176 336.012,-663.814"/>
<polygon fill="#8b2252" stroke="#8b2252" points="336.609,-667.263 345.885,-662.145 335.442,-660.361 336.609,-667.263"/>
</g>
<!-- setInNode -->
<g id="node23" class="node"><title>setInNode</title>
<polygon fill="none" stroke="black" points="223.5,-824 223.5,-860 282.5,-860 282.5,-824 223.5,-824"/>
<text text-anchor="middle" x="253" y="-839.5" font-family="Times New Roman,serif" font-size="10.00">setInNode</text>
</g>
<!-- addBrLine -->
<g id="node35" class="node"><title>addBrLine</title>
<polygon fill="none" stroke="black" points="344,-1273 344,-1309 402,-1309 402,-1273 344,-1273"/>
<text text-anchor="middle" x="373" y="-1288.5" font-family="Times New Roman,serif" font-size="10.00">addBrLine</text>
</g>
<!-- setInNode&#45;&gt;addBrLine -->
<g id="edge67" class="edge"><title>setInNode&#45;&gt;addBrLine</title>
<path fill="none" stroke="green" d="M259.612,-860.264C279.202,-929.998 344.491,-1178.36 365.457,-1262.8"/>
<polygon fill="green" stroke="green" points="362.108,-1263.83 367.897,-1272.71 368.904,-1262.16 362.108,-1263.83"/>
</g>
<!-- setInNode&#45;&gt;addBrLine -->
<g id="edge68" class="edge"><title>setInNode&#45;&gt;addBrLine</title>
<path fill="none" stroke="#473c8b" d="M258.062,-860.127C275.024,-929.75 340.393,-1178.82 363.693,-1263.06"/>
<polygon fill="#473c8b" stroke="#473c8b" points="360.327,-1264.02 366.382,-1272.71 367.07,-1262.14 360.327,-1264.02"/>
</g>
<!-- trim -->
<g id="node36" class="node"><title>trim</title>
<polygon fill="none" stroke="black" points="468,-1273 468,-1309 522,-1309 522,-1273 468,-1273"/>
<text text-anchor="middle" x="495" y="-1288.5" font-family="Times New Roman,serif" font-size="10.00">trim</text>
</g>
<!-- setInNode&#45;&gt;trim -->
<g id="edge64" class="edge"><title>setInNode&#45;&gt;trim</title>
<path fill="none" stroke="black" d="M266.356,-860.178C309.342,-930.586 443.635,-1179.9 483.643,-1263.78"/>
<polygon fill="black" stroke="black" points="480.525,-1265.38 487.94,-1272.95 486.863,-1262.41 480.525,-1265.38"/>
</g>
<!-- setInNode&#45;&gt;trim -->
<g id="edge65" class="edge"><title>setInNode&#45;&gt;trim</title>
<path fill="none" stroke="blue" d="M262.786,-860.157C300.335,-929.825 435.328,-1180.29 480.304,-1263.73"/>
<polygon fill="blue" stroke="blue" points="477.266,-1265.47 485.092,-1272.62 483.428,-1262.15 477.266,-1265.47"/>
</g>
<!-- setInNode&#45;&gt;trim -->
<g id="edge66" class="edge"><title>setInNode&#45;&gt;trim</title>
<path fill="none" stroke="#ee0000" d="M260.112,-860.164C292.545,-930.759 426.983,-1181.07 476.544,-1264.35"/>
<polygon fill="#ee0000" stroke="#ee0000" points="473.593,-1266.23 481.75,-1272.99 479.589,-1262.62 473.593,-1266.23"/>
</g>
<!-- setInfoNode -->
<g id="node24" class="node"><title>setInfoNode</title>
<polygon fill="none" stroke="black" points="219.5,-769 219.5,-805 286.5,-805 286.5,-769 219.5,-769"/>
<text text-anchor="middle" x="253" y="-784.5" font-family="Times New Roman,serif" font-size="10.00">setInfoNode</text>
</g>
<!-- setInfoNode&#45;&gt;makeLink -->
<g id="edge71" class="edge"><title>setInfoNode&#45;&gt;makeLink</title>
<path fill="none" stroke="darkorange" d="M269.185,-768.727C289.807,-743.911 326.789,-699.406 350.325,-671.083"/>
<polygon fill="darkorange" stroke="darkorange" points="353.174,-673.131 356.873,-663.203 347.79,-668.657 353.174,-673.131"/>
</g>
<!-- re_del_noAlpha -->
<g id="node33" class="node"><title>re_del_noAlpha</title>
<polygon fill="none" stroke="black" points="454,-1423 454,-1459 536,-1459 536,-1423 454,-1423"/>
<text text-anchor="middle" x="495" y="-1438.5" font-family="Times New Roman,serif" font-size="10.00">re_del_noAlpha</text>
</g>
<!-- setInfoNode&#45;&gt;re_del_noAlpha -->
<g id="edge69" class="edge"><title>setInfoNode&#45;&gt;re_del_noAlpha</title>
<path fill="none" stroke="#8b2252" d="M259.725,-805.174C293.444,-896.299 444.093,-1303.43 484.821,-1413.49"/>
<polygon fill="#8b2252" stroke="#8b2252" points="481.555,-1414.75 488.307,-1422.91 488.12,-1412.32 481.555,-1414.75"/>
</g>
<!-- setInfoNode&#45;&gt;addBrLine -->
<g id="edge70" class="edge"><title>setInfoNode&#45;&gt;addBrLine</title>
<path fill="none" stroke="#8b4513" d="M258.269,-805.235C275.996,-880.947 343.866,-1170.84 365.402,-1262.82"/>
<polygon fill="#8b4513" stroke="#8b4513" points="362.049,-1263.85 367.736,-1272.79 368.864,-1262.25 362.049,-1263.85"/>
</g>
<!-- buildNodes -->
<g id="node25" class="node"><title>buildNodes</title>
<polygon fill="none" stroke="black" points="106.5,-824 106.5,-860 169.5,-860 169.5,-824 106.5,-824"/>
<text text-anchor="middle" x="138" y="-839.5" font-family="Times New Roman,serif" font-size="10.00">buildNodes</text>
</g>
<!-- buildNodes&#45;&gt;setInNode -->
<g id="edge72" class="edge"><title>buildNodes&#45;&gt;setInNode</title>
<path fill="none" stroke="#cd9b1d" d="M169.579,-842C183.044,-842 199.016,-842 213.298,-842"/>
<polygon fill="#cd9b1d" stroke="#cd9b1d" points="213.339,-845.5 223.339,-842 213.339,-838.5 213.339,-845.5"/>
</g>
<!-- buildNodes&#45;&gt;setInfoNode -->
<g id="edge73" class="edge"><title>buildNodes&#45;&gt;setInfoNode</title>
<path fill="none" stroke="#cd1076" d="M169.579,-827.116C182.113,-821.016 196.818,-813.858 210.312,-807.291"/>
<polygon fill="#cd1076" stroke="#cd1076" points="211.958,-810.382 219.418,-802.859 208.894,-804.088 211.958,-810.382"/>
</g>
<!-- setClusterColor -->
<g id="node26" class="node"><title>setClusterColor</title>
<polygon fill="none" stroke="black" points="98.5,-769 98.5,-805 177.5,-805 177.5,-769 98.5,-769"/>
<text text-anchor="middle" x="138" y="-784.5" font-family="Times New Roman,serif" font-size="10.00">setClusterColor</text>
</g>
<!-- writeVgFile -->
<g id="node27" class="node"><title>writeVgFile</title>
<polygon fill="none" stroke="black" points="107,-714 107,-750 169,-750 169,-714 107,-714"/>
<text text-anchor="middle" x="138" y="-729.5" font-family="Times New Roman,serif" font-size="10.00">writeVgFile</text>
</g>
<!-- writeVgFile&#45;&gt;sort_unique_hash -->
<g id="edge75" class="edge"><title>writeVgFile&#45;&gt;sort_unique_hash</title>
<path fill="none" stroke="black" d="M154.525,-713.928C195.566,-669.045 302.241,-552.383 349.674,-500.51"/>
<polygon fill="black" stroke="black" points="352.328,-502.794 356.494,-493.052 347.162,-498.07 352.328,-502.794"/>
</g>
<!-- _add_carac -->
<g id="node46" class="node"><title>_add_carac</title>
<polygon fill="none" stroke="black" points="341.5,-402 341.5,-438 404.5,-438 404.5,-402 341.5,-402"/>
<text text-anchor="middle" x="373" y="-417.5" font-family="Times New Roman,serif" font-size="10.00">_add_carac</text>
</g>
<!-- writeVgFile&#45;&gt;_add_carac -->
<g id="edge74" class="edge"><title>writeVgFile&#45;&gt;_add_carac</title>
<path fill="none" stroke="#838b8b" d="M151.65,-713.877C191.319,-661.211 306.706,-508.016 353.221,-446.26"/>
<polygon fill="#838b8b" stroke="#838b8b" points="356.091,-448.267 359.312,-438.173 350.5,-444.055 356.091,-448.267"/>
</g>
<!-- re_freq -->
<g id="node30" class="node"><title>re_freq</title>
<polygon fill="none" stroke="black" points="346,-1328 346,-1364 400,-1364 400,-1328 346,-1328"/>
<text text-anchor="middle" x="373" y="-1343.5" font-family="Times New Roman,serif" font-size="10.00">re_freq</text>
</g>
<!-- regexpSwitcher&#45;&gt;re_freq -->
<g id="edge77" class="edge"><title>regexpSwitcher&#45;&gt;re_freq</title>
<path fill="none" stroke="blue" d="M291.66,-1346C305.742,-1346 321.699,-1346 335.659,-1346"/>
<polygon fill="blue" stroke="blue" points="335.882,-1349.5 345.882,-1346 335.882,-1342.5 335.882,-1349.5"/>
</g>
<!-- re_opens -->
<g id="node31" class="node"><title>re_opens</title>
<polygon fill="none" stroke="black" points="346,-1404 346,-1440 400,-1440 400,-1404 346,-1404"/>
<text text-anchor="middle" x="373" y="-1419.5" font-family="Times New Roman,serif" font-size="10.00">re_opens</text>
</g>
<!-- regexpSwitcher&#45;&gt;re_opens -->
<g id="edge78" class="edge"><title>regexpSwitcher&#45;&gt;re_opens</title>
<path fill="none" stroke="#ee0000" d="M281.964,-1364.01C298.447,-1374.63 319.446,-1388.15 337.019,-1399.47"/>
<polygon fill="#ee0000" stroke="#ee0000" points="335.551,-1402.69 345.853,-1405.16 339.341,-1396.8 335.551,-1402.69"/>
</g>
<!-- re_at -->
<g id="node32" class="node"><title>re_at</title>
<polygon fill="none" stroke="black" points="346,-1480 346,-1516 400,-1516 400,-1480 346,-1480"/>
<text text-anchor="middle" x="373" y="-1495.5" font-family="Times New Roman,serif" font-size="10.00">re_at</text>
</g>
<!-- regexpSwitcher&#45;&gt;re_at -->
<g id="edge79" class="edge"><title>regexpSwitcher&#45;&gt;re_at</title>
<path fill="none" stroke="green" d="M268,-1364.03C288.758,-1390.77 327.815,-1441.08 351.709,-1471.86"/>
<polygon fill="green" stroke="green" points="349.122,-1474.24 358.019,-1479.99 354.651,-1469.94 349.122,-1474.24"/>
</g>
<!-- regexpSwitcher&#45;&gt;re_del_noAlpha -->
<g id="edge76" class="edge"><title>regexpSwitcher&#45;&gt;re_del_noAlpha</title>
<path fill="none" stroke="black" d="M291.613,-1361.16C332.975,-1377.39 398.795,-1403.23 444.302,-1421.1"/>
<polygon fill="black" stroke="black" points="443.101,-1424.39 453.689,-1424.78 445.659,-1417.87 443.101,-1424.39"/>
</g>
<!-- regexpSwitcher&#45;&gt;trim -->
<g id="edge80" class="edge"><title>regexpSwitcher&#45;&gt;trim</title>
<path fill="none" stroke="#473c8b" d="M291.613,-1337.22C337.296,-1326.84 412.814,-1309.68 457.849,-1299.44"/>
<polygon fill="#473c8b" stroke="#473c8b" points="458.813,-1302.81 467.789,-1297.18 457.262,-1295.99 458.813,-1302.81"/>
</g>
<!-- re_opens&#45;&gt;re_del_noAlpha -->
<g id="edge83" class="edge"><title>re_opens&#45;&gt;re_del_noAlpha</title>
<path fill="none" stroke="darkorange" d="M400.038,-1426.12C412.808,-1428.14 428.638,-1430.65 443.641,-1433.03"/>
<polygon fill="darkorange" stroke="darkorange" points="443.424,-1436.54 453.849,-1434.64 444.519,-1429.62 443.424,-1436.54"/>
</g>
<!-- re_opens&#45;&gt;trim -->
<g id="edge81" class="edge"><title>re_opens&#45;&gt;trim</title>
<path fill="none" stroke="#8b2252" d="M386.615,-1403.89C405.127,-1381.1 440.161,-1342.35 465.179,-1316.6"/>
<polygon fill="#8b2252" stroke="#8b2252" points="467.758,-1318.97 472.27,-1309.38 462.765,-1314.06 467.758,-1318.97"/>
</g>
<!-- re_opens&#45;&gt;trim -->
<g id="edge82" class="edge"><title>re_opens&#45;&gt;trim</title>
<path fill="none" stroke="#8b4513" d="M395.454,-1403.9C417.961,-1381.3 453.018,-1342.96 474.688,-1317.2"/>
<polygon fill="#8b4513" stroke="#8b4513" points="477.537,-1319.25 481.22,-1309.31 472.146,-1314.78 477.537,-1319.25"/>
</g>
<!-- splitLine&#45;&gt;RegExpMain -->
<g id="edge85" class="edge"><title>splitLine&#45;&gt;RegExpMain</title>
<path fill="none" stroke="#cd1076" d="M400.038,-1541.64C414.766,-1539.55 433.564,-1538.99 450.471,-1539.96"/>
<polygon fill="#cd1076" stroke="#cd1076" points="450.457,-1543.47 460.7,-1540.77 451.005,-1536.49 450.457,-1543.47"/>
</g>
<!-- splitLine&#45;&gt;RegExpMain -->
<g id="edge86" class="edge"><title>splitLine&#45;&gt;RegExpMain</title>
<path fill="none" stroke="#838b8b" d="M400.038,-1553C414.766,-1553 433.564,-1553 450.471,-1553"/>
<polygon fill="#838b8b" stroke="#838b8b" points="450.7,-1556.5 460.7,-1553 450.7,-1549.5 450.7,-1556.5"/>
</g>
<!-- splitLine&#45;&gt;RegExpMain -->
<g id="edge87" class="edge"><title>splitLine&#45;&gt;RegExpMain</title>
<path fill="none" stroke="black" d="M400.038,-1564.36C414.766,-1566.45 433.564,-1567.01 450.471,-1566.04"/>
<polygon fill="black" stroke="black" points="451.005,-1569.51 460.7,-1565.23 450.457,-1562.53 451.005,-1569.51"/>
</g>
<!-- splitLine&#45;&gt;re_del_noAlpha -->
<g id="edge84" class="edge"><title>splitLine&#45;&gt;re_del_noAlpha</title>
<path fill="none" stroke="#cd9b1d" d="M393.547,-1534.76C413.508,-1516.13 444.651,-1487.06 466.968,-1466.23"/>
<polygon fill="#cd9b1d" stroke="#cd9b1d" points="469.539,-1468.62 474.461,-1459.24 464.763,-1463.5 469.539,-1468.62"/>
</g>
<!-- addBrLine&#45;&gt;RegExpMain -->
<g id="edge88" class="edge"><title>addBrLine&#45;&gt;RegExpMain</title>
<path fill="none" stroke="blue" d="M382.248,-1309.01C402.886,-1354.07 456.858,-1471.91 481.458,-1525.62"/>
<polygon fill="blue" stroke="blue" points="478.348,-1527.23 485.694,-1534.87 484.712,-1524.32 478.348,-1527.23"/>
</g>
<!-- cDate -->
<g id="node37" class="node"><title>cDate</title>
<polygon fill="none" stroke="black" points="346,-17 346,-53 400,-53 400,-17 346,-17"/>
<text text-anchor="middle" x="373" y="-32.5" font-family="Times New Roman,serif" font-size="10.00">cDate</text>
</g>
<!-- checkEnv -->
<g id="node39" class="node"><title>checkEnv</title>
<polygon fill="none" stroke="black" points="345,-347 345,-383 401,-383 401,-347 345,-347"/>
<text text-anchor="middle" x="373" y="-362.5" font-family="Times New Roman,serif" font-size="10.00">checkEnv</text>
</g>
<!-- setConvertFreq -->
<g id="node40" class="node"><title>setConvertFreq</title>
<polygon fill="none" stroke="black" points="333.5,-292 333.5,-328 412.5,-328 412.5,-292 333.5,-292"/>
<text text-anchor="middle" x="373" y="-307.5" font-family="Times New Roman,serif" font-size="10.00">setConvertFreq</text>
</g>
<!-- setConvertFreq&#45;&gt;RegExpMain -->
<g id="edge89" class="edge"><title>setConvertFreq&#45;&gt;RegExpMain</title>
<path fill="none" stroke="black" d="M375.934,-328.15C389.931,-466.724 475.636,-1354.4 491.482,-1524.79"/>
<polygon fill="black" stroke="black" points="488.016,-1525.32 492.423,-1534.96 494.986,-1524.68 488.016,-1525.32"/>
</g>
<!-- setConvertFreq&#45;&gt;RegExpMain -->
<g id="edge90" class="edge"><title>setConvertFreq&#45;&gt;RegExpMain</title>
<path fill="none" stroke="blue" d="M375.606,-328.351C388.417,-467.563 474.002,-1354.27 491.05,-1524.73"/>
<polygon fill="blue" stroke="blue" points="487.568,-1525.09 492.051,-1534.69 494.533,-1524.39 487.568,-1525.09"/>
</g>
<!-- load_params -->
<g id="node41" class="node"><title>load_params</title>
<polygon fill="none" stroke="black" points="339,-237 339,-273 407,-273 407,-237 339,-237"/>
<text text-anchor="middle" x="373" y="-252.5" font-family="Times New Roman,serif" font-size="10.00">load_params</text>
</g>
<!-- load_opt -->
<g id="node42" class="node"><title>load_opt</title>
<polygon fill="none" stroke="black" points="346,-182 346,-218 400,-218 400,-182 346,-182"/>
<text text-anchor="middle" x="373" y="-197.5" font-family="Times New Roman,serif" font-size="10.00">load_opt</text>
</g>
<!-- dumperHash -->
<g id="node43" class="node"><title>dumperHash</title>
<polygon fill="none" stroke="black" points="461,-127 461,-163 529,-163 529,-127 461,-127"/>
<text text-anchor="middle" x="495" y="-142.5" font-family="Times New Roman,serif" font-size="10.00">dumperHash</text>
</g>
<!-- writeLog -->
<g id="node44" class="node"><title>writeLog</title>
<polygon fill="none" stroke="black" points="346,-127 346,-163 400,-163 400,-127 346,-127"/>
<text text-anchor="middle" x="373" y="-142.5" font-family="Times New Roman,serif" font-size="10.00">writeLog</text>
</g>
<!-- writeLog&#45;&gt;dumperHash -->
<g id="edge91" class="edge"><title>writeLog&#45;&gt;dumperHash</title>
<path fill="none" stroke="#ee0000" d="M382.248,-126.842C401.858,-108.262 451.566,-106.287 477.572,-120.919"/>
<polygon fill="#ee0000" stroke="#ee0000" points="475.539,-123.768 485.694,-126.787 479.638,-118.094 475.539,-123.768"/>
</g>
<!-- writeLog&#45;&gt;dumperHash -->
<g id="edge92" class="edge"><title>writeLog&#45;&gt;dumperHash</title>
<path fill="none" stroke="green" d="M400.038,-127.965C415.366,-124.698 435.102,-123.921 452.527,-125.634"/>
<polygon fill="green" stroke="green" points="452.1,-129.108 462.469,-126.93 453.005,-122.166 452.1,-129.108"/>
</g>
<!-- writeLog&#45;&gt;dumperHash -->
<g id="edge93" class="edge"><title>writeLog&#45;&gt;dumperHash</title>
<path fill="none" stroke="#473c8b" d="M400.038,-139.322C414.766,-138.275 433.564,-137.995 450.471,-138.481"/>
<polygon fill="#473c8b" stroke="#473c8b" points="450.571,-141.988 460.7,-138.883 450.845,-134.993 450.571,-141.988"/>
</g>
<!-- writeLog&#45;&gt;dumperHash -->
<g id="edge94" class="edge"><title>writeLog&#45;&gt;dumperHash</title>
<path fill="none" stroke="#8b2252" d="M400.038,-150.678C414.766,-151.725 433.564,-152.005 450.471,-151.519"/>
<polygon fill="#8b2252" stroke="#8b2252" points="450.845,-155.007 460.7,-151.117 450.571,-148.012 450.845,-155.007"/>
</g>
<!-- writeLog&#45;&gt;dumperHash -->
<g id="edge95" class="edge"><title>writeLog&#45;&gt;dumperHash</title>
<path fill="none" stroke="#8b4513" d="M400.038,-162.035C415.366,-165.302 435.102,-166.079 452.527,-164.366"/>
<polygon fill="#8b4513" stroke="#8b4513" points="453.005,-167.834 462.469,-163.07 452.1,-160.892 453.005,-167.834"/>
</g>
<!-- writeLog&#45;&gt;dumperHash -->
<g id="edge96" class="edge"><title>writeLog&#45;&gt;dumperHash</title>
<path fill="none" stroke="darkorange" d="M382.248,-163.158C401.858,-181.738 451.566,-183.713 477.572,-169.081"/>
<polygon fill="darkorange" stroke="darkorange" points="479.638,-171.906 485.694,-163.213 475.539,-166.232 479.638,-171.906"/>
</g>
<!-- makeXlsFile -->
<g id="node45" class="node"><title>makeXlsFile</title>
<polygon fill="none" stroke="black" points="340.5,-72 340.5,-108 405.5,-108 405.5,-72 340.5,-72"/>
<text text-anchor="middle" x="373" y="-87.5" font-family="Times New Roman,serif" font-size="10.00">makeXlsFile</text>
</g>
<!-- main.pl -->
<g id="node47" class="node"><title>main.pl</title>
<polygon fill="none" stroke="black" points="4,-741 4,-777 58,-777 58,-741 4,-741"/>
<text text-anchor="middle" x="31" y="-756.5" font-family="Times New Roman,serif" font-size="10.00">main.pl</text>
</g>
<!-- main.pl&#45;&gt;initLegende -->
<g id="edge12" class="edge"><title>main.pl&#45;&gt;initLegende</title>
<path fill="none" stroke="black" d="M38.8893,-777.372C56.8801,-825.347 105.354,-954.61 126.685,-1011.49"/>
<polygon fill="black" stroke="black" points="123.433,-1012.79 130.222,-1020.92 129.988,-1010.33 123.433,-1012.79"/>
</g>
<!-- main.pl&#45;&gt;set_sched -->
<g id="edge10" class="edge"><title>main.pl&#45;&gt;set_sched</title>
<path fill="none" stroke="#cd1076" d="M36.8538,-777.028C53.6103,-839.267 109.113,-1045.42 129.448,-1120.95"/>
<polygon fill="#cd1076" stroke="#cd1076" points="126.097,-1121.97 132.077,-1130.71 132.856,-1120.15 126.097,-1121.97"/>
</g>
<!-- main.pl&#45;&gt;set_jobs -->
<g id="edge7" class="edge"><title>main.pl&#45;&gt;set_jobs</title>
<path fill="none" stroke="#8b4513" d="M37.6453,-777.011C54.9509,-832.224 107.349,-999.399 128.253,-1066.09"/>
<polygon fill="#8b4513" stroke="#8b4513" points="124.996,-1067.4 131.327,-1075.9 131.676,-1065.31 124.996,-1067.4"/>
</g>
<!-- main.pl&#45;&gt;set_next -->
<g id="edge13" class="edge"><title>main.pl&#45;&gt;set_next</title>
<path fill="none" stroke="blue" d="M40.4151,-777.032C58.7699,-816.364 102.496,-910.063 124.253,-956.684"/>
<polygon fill="blue" stroke="blue" points="121.144,-958.3 128.545,-965.882 127.488,-955.34 121.144,-958.3"/>
</g>
<!-- main.pl&#45;&gt;set_conf -->
<g id="edge11" class="edge"><title>main.pl&#45;&gt;set_conf</title>
<path fill="none" stroke="#838b8b" d="M36.3119,-777.274C52.6322,-846.441 110.688,-1092.49 130.398,-1176.02"/>
<polygon fill="#838b8b" stroke="#838b8b" points="127.007,-1176.89 132.71,-1185.82 133.82,-1175.28 127.007,-1176.89"/>
</g>
<!-- main.pl&#45;&gt;setCluster -->
<g id="edge14" class="edge"><title>main.pl&#45;&gt;setCluster</title>
<path fill="none" stroke="#ee0000" d="M43.2368,-777.193C61.7886,-807.229 98.9105,-867.331 120.463,-902.226"/>
<polygon fill="#ee0000" stroke="#ee0000" points="117.611,-904.269 125.844,-910.938 123.567,-900.591 117.611,-904.269"/>
</g>
<!-- main.pl&#45;&gt;set_link_after -->
<g id="edge16" class="edge"><title>main.pl&#45;&gt;set_link_after</title>
<path fill="none" stroke="#473c8b" d="M54.7579,-740.914C94.8777,-710.372 176.075,-648.56 221.108,-614.278"/>
<polygon fill="#473c8b" stroke="#473c8b" points="223.241,-617.053 229.077,-608.211 219.001,-611.484 223.241,-617.053"/>
</g>
<!-- main.pl&#45;&gt;set_links -->
<g id="edge17" class="edge"><title>main.pl&#45;&gt;set_links</title>
<path fill="none" stroke="#8b2252" d="M58.2216,-745.021C98.108,-724.539 172.5,-686.338 216.906,-663.535"/>
<polygon fill="#8b2252" stroke="#8b2252" points="218.607,-666.596 225.903,-658.914 215.409,-660.369 218.607,-666.596"/>
</g>
<!-- main.pl&#45;&gt;buildNodes -->
<g id="edge18" class="edge"><title>main.pl&#45;&gt;buildNodes</title>
<path fill="none" stroke="#8b4513" d="M58.2251,-767.862C76.8721,-780.074 101.478,-799.934 118.193,-816.495"/>
<polygon fill="#8b4513" stroke="#8b4513" points="115.807,-819.063 125.268,-823.832 120.846,-814.204 115.807,-819.063"/>
</g>
<!-- main.pl&#45;&gt;buildNodes -->
<g id="edge20" class="edge"><title>main.pl&#45;&gt;buildNodes</title>
<path fill="none" stroke="#cd9b1d" d="M54.7834,-777.01C69.6784,-788.784 89.3319,-804.319 105.688,-817.249"/>
<polygon fill="#cd9b1d" stroke="#cd9b1d" points="103.883,-820.283 113.898,-823.739 108.224,-814.792 103.883,-820.283"/>
</g>
<!-- main.pl&#45;&gt;buildNodes -->
<g id="edge22" class="edge"><title>main.pl&#45;&gt;buildNodes</title>
<path fill="none" stroke="#838b8b" d="M43.638,-777.065C56.6613,-791.343 78.4639,-809.993 97.7257,-824.066"/>
<polygon fill="#838b8b" stroke="#838b8b" points="95.8911,-827.056 106.073,-829.984 99.9396,-821.346 95.8911,-827.056"/>
</g>
<!-- main.pl&#45;&gt;setClusterColor -->
<g id="edge15" class="edge"><title>main.pl&#45;&gt;setClusterColor</title>
<path fill="none" stroke="green" d="M58.2251,-765.993C67.4314,-768.448 78.0901,-771.291 88.5346,-774.076"/>
<polygon fill="green" stroke="green" points="87.8641,-777.519 98.4283,-776.714 89.6678,-770.756 87.8641,-777.519"/>
</g>
<!-- main.pl&#45;&gt;writeVgFile -->
<g id="edge19" class="edge"><title>main.pl&#45;&gt;writeVgFile</title>
<path fill="none" stroke="darkorange" d="M56.8835,-740.922C68.7717,-736.135 83.301,-731.902 96.7063,-729.191"/>
<polygon fill="darkorange" stroke="darkorange" points="97.4368,-732.616 106.676,-727.431 96.2196,-725.723 97.4368,-732.616"/>
</g>
<!-- main.pl&#45;&gt;writeVgFile -->
<g id="edge21" class="edge"><title>main.pl&#45;&gt;writeVgFile</title>
<path fill="none" stroke="#cd1076" d="M58.2251,-752.256C69.8241,-749.274 83.7285,-745.698 96.6054,-742.387"/>
<polygon fill="#cd1076" stroke="#cd1076" points="97.8351,-745.685 106.648,-739.805 96.0918,-738.905 97.8351,-745.685"/>
</g>
<!-- main.pl&#45;&gt;writeVgFile -->
<g id="edge23" class="edge"><title>main.pl&#45;&gt;writeVgFile</title>
<path fill="none" stroke="black" d="M58.2251,-764.125C71.6492,-762.493 88.1614,-758.544 102.595,-753.608"/>
<polygon fill="black" stroke="black" points="104.032,-756.807 112.191,-750.048 101.598,-750.244 104.032,-756.807"/>
</g>
<!-- main.pl&#45;&gt;RegExpMain -->
<g id="edge8" class="edge"><title>main.pl&#45;&gt;RegExpMain</title>
<path fill="none" stroke="darkorange" d="M42.936,-777.088C107.083,-881.044 410.576,-1400.31 480.574,-1525.76"/>
<polygon fill="darkorange" stroke="darkorange" points="477.649,-1527.71 485.561,-1534.75 483.77,-1524.31 477.649,-1527.71"/>
</g>
<!-- main.pl&#45;&gt;RegExpMain -->
<g id="edge9" class="edge"><title>main.pl&#45;&gt;RegExpMain</title>
<path fill="none" stroke="#cd9b1d" d="M40.4788,-777.319C98.153,-881.984 401.969,-1402.1 477.826,-1526.37"/>
<polygon fill="#cd9b1d" stroke="#cd9b1d" points="474.873,-1528.25 483.085,-1534.95 480.84,-1524.59 474.873,-1528.25"/>
</g>
<!-- main.pl&#45;&gt;trim -->
<g id="edge6" class="edge"><title>main.pl&#45;&gt;trim</title>
<path fill="none" stroke="#8b2252" d="M46.704,-777.005C115.624,-856.025 391.469,-1172.3 472.506,-1265.21"/>
<polygon fill="#8b2252" stroke="#8b2252" points="470.089,-1267.76 479.3,-1273 475.365,-1263.16 470.089,-1267.76"/>
</g>
<!-- main.pl&#45;&gt;cDate -->
<g id="edge1" class="edge"><title>main.pl&#45;&gt;cDate</title>
<path fill="none" stroke="black" d="M39.625,-740.741C85.8755,-642.831 304.48,-180.054 360.101,-62.3062"/>
<polygon fill="black" stroke="black" points="363.292,-63.7464 364.398,-53.2095 356.962,-60.7565 363.292,-63.7464"/>
</g>
<!-- main.pl&#45;&gt;checkEnv -->
<g id="edge2" class="edge"><title>main.pl&#45;&gt;checkEnv</title>
<path fill="none" stroke="blue" d="M46.8095,-740.787C101.961,-677.25 285.978,-465.253 350.451,-390.978"/>
<polygon fill="blue" stroke="blue" points="353.446,-392.866 357.358,-383.02 348.16,-388.278 353.446,-392.866"/>
</g>
<!-- main.pl&#45;&gt;setConvertFreq -->
<g id="edge5" class="edge"><title>main.pl&#45;&gt;setConvertFreq</title>
<path fill="none" stroke="#473c8b" d="M44.8304,-740.843C98.0569,-670.963 289.832,-419.188 352.807,-336.51"/>
<polygon fill="#473c8b" stroke="#473c8b" points="355.722,-338.459 358.998,-328.383 350.154,-334.218 355.722,-338.459"/>
</g>
<!-- main.pl&#45;&gt;load_params -->
<g id="edge4" class="edge"><title>main.pl&#45;&gt;load_params</title>
<path fill="none" stroke="green" d="M43.374,-740.765C95.0627,-664.592 293.862,-371.624 355.003,-281.522"/>
<polygon fill="green" stroke="green" points="357.924,-283.451 360.643,-273.211 352.131,-279.52 357.924,-283.451"/>
</g>
<!-- main.pl&#45;&gt;load_opt -->
<g id="edge3" class="edge"><title>main.pl&#45;&gt;load_opt</title>
<path fill="none" stroke="#ee0000" d="M42.1845,-740.719C92.3696,-658.691 296.92,-324.352 356.589,-226.824"/>
<polygon fill="#ee0000" stroke="#ee0000" points="359.668,-228.498 361.901,-218.142 353.696,-224.845 359.668,-228.498"/>
</g>
<!-- main.pl&#45;&gt;writeLog -->
<g id="edge25" class="edge"><title>main.pl&#45;&gt;writeLog</title>
<path fill="none" stroke="#ee0000" d="M41.0502,-740.957C89.5716,-653.845 299.638,-276.708 357.942,-172.034"/>
<polygon fill="#ee0000" stroke="#ee0000" points="361.141,-173.484 362.949,-163.044 355.025,-170.077 361.141,-173.484"/>
</g>
<!-- main.pl&#45;&gt;makeXlsFile -->
<g id="edge24" class="edge"><title>main.pl&#45;&gt;makeXlsFile</title>
<path fill="none" stroke="blue" d="M40.325,-740.759C87.7601,-647.969 302.242,-228.413 359.12,-117.152"/>
<polygon fill="blue" stroke="blue" points="362.248,-118.722 363.683,-108.225 356.015,-115.536 362.248,-118.722"/>
</g>
<!-- launcher.pl -->
<g id="node48" class="node"><title>launcher.pl</title>
<polygon fill="none" stroke="black" points="0.5,-1867 0.5,-1903 61.5,-1903 61.5,-1867 0.5,-1867"/>
<text text-anchor="middle" x="31" y="-1882.5" font-family="Times New Roman,serif" font-size="10.00">launcher.pl</text>
</g>
<!-- launcher.pl&#45;&gt;print_service -->
<g id="edge39" class="edge"><title>launcher.pl&#45;&gt;print_service</title>
<path fill="none" stroke="#ee0000" d="M61.5278,-1892.87C71.466,-1895.52 82.7724,-1898.54 93.5535,-1901.41"/>
<polygon fill="#ee0000" stroke="#ee0000" points="92.6883,-1904.81 103.253,-1904 94.492,-1898.04 92.6883,-1904.81"/>
</g>
<!-- launcher.pl&#45;&gt;build_service -->
<g id="edge38" class="edge"><title>launcher.pl&#45;&gt;build_service</title>
<path fill="none" stroke="blue" d="M61.5278,-1877.41C71.1808,-1874.92 82.1244,-1872.11 92.6238,-1869.41"/>
<polygon fill="blue" stroke="blue" points="93.6842,-1872.75 102.498,-1866.87 91.9409,-1865.97 93.6842,-1872.75"/>
</g>
<!-- launcher.pl&#45;&gt;set_service -->
<g id="edge40" class="edge"><title>launcher.pl&#45;&gt;set_service</title>
<path fill="none" stroke="green" d="M49.1672,-1867C88.601,-1827.92 182.13,-1735.23 227.474,-1690.3"/>
<polygon fill="green" stroke="green" points="229.942,-1692.78 234.582,-1683.25 225.015,-1687.81 229.942,-1692.78"/>
</g>
<!-- launcher.pl&#45;&gt;build_files -->
<g id="edge41" class="edge"><title>launcher.pl&#45;&gt;build_files</title>
<path fill="none" stroke="#473c8b" d="M61.8681,-1898.07C101.632,-1914.91 170.773,-1944.18 214.093,-1962.53"/>
<polygon fill="#473c8b" stroke="#473c8b" points="212.882,-1965.81 223.456,-1966.49 215.612,-1959.37 212.882,-1965.81"/>
</g>
<!-- launcher.pl&#45;&gt;print_files -->
<g id="edge42" class="edge"><title>launcher.pl&#45;&gt;print_files</title>
<path fill="none" stroke="#8b2252" d="M61.8681,-1890.42C101.685,-1897.42 170.959,-1909.59 214.268,-1917.2"/>
<polygon fill="#8b2252" stroke="#8b2252" points="213.7,-1920.65 224.155,-1918.93 214.912,-1913.76 213.7,-1920.65"/>
</g>
<!-- launcher.pl&#45;&gt;set_files -->
<g id="edge43" class="edge"><title>launcher.pl&#45;&gt;set_files</title>
<path fill="none" stroke="#8b4513" d="M55.3029,-1866.8C70.1203,-1855.23 89.4875,-1840.1 105.646,-1827.49"/>
<polygon fill="#8b4513" stroke="#8b4513" points="108.035,-1830.06 113.762,-1821.15 103.727,-1824.54 108.035,-1830.06"/>
</g>
</g>
</svg>
