<?xml version="1.0" encoding="UTF-8" standalone="no"?>
<!DOCTYPE svg PUBLIC "-//W3C//DTD SVG 1.1//EN"
 "http://www.w3.org/Graphics/SVG/1.1/DTD/svg11.dtd">
<!-- Generated by graphviz version 2.33.20130816.0446 (20130816.0446)
 -->
<!-- Title: %3 Pages: 1 -->
<svg width="598pt" height="1477pt"
 viewBox="0.00 0.00 598.00 1477.00" xmlns="http://www.w3.org/2000/svg" xmlns:xlink="http://www.w3.org/1999/xlink">
<g id="graph0" class="graph" transform="scale(1 1) rotate(0) translate(4 1473)">
<title>%3</title>
<polygon fill="white" stroke="white" points="-4,5 -4,-1473 595,-1473 595,5 -4,5"/>
<g id="clust1" class="cluster"><title>cluster_launcher_pl</title>
<polygon fill="lightgrey" stroke="black" points="362,-1346 362,-1461 445,-1461 445,-1346 362,-1346"/>
<text text-anchor="middle" x="403.5" y="-1445" font-family="Times New Roman,serif" font-size="15.00">launcher.pl</text>
</g>
<g id="clust2" class="cluster"><title>cluster_lib_hash_pl</title>
<polygon fill="lightgrey" stroke="black" points="228,-874 228,-1338 438,-1338 438,-874 228,-874"/>
<text text-anchor="middle" x="333" y="-1322" font-family="Times New Roman,serif" font-size="15.00">lib_hash.pl</text>
</g>
<g id="clust3" class="cluster"><title>cluster_lib_link_pl</title>
<polygon fill="lightgrey" stroke="black" points="238,-260 238,-394 438,-394 438,-260 238,-260"/>
<text text-anchor="middle" x="338" y="-378" font-family="Times New Roman,serif" font-size="15.00">lib_link.pl</text>
</g>
<g id="clust4" class="cluster"><title>cluster_lib_log_pl</title>
<polygon fill="lightgrey" stroke="black" points="239,-8 239,-252 445,-252 445,-8 239,-8"/>
<text text-anchor="middle" x="342" y="-236" font-family="Times New Roman,serif" font-size="15.00">lib_log.pl</text>
</g>
<g id="clust5" class="cluster"><title>cluster_lib_makeGvFile_pl</title>
<polygon fill="lightgrey" stroke="black" points="82,-416 82,-605 322,-605 322,-416 82,-416"/>
<text text-anchor="middle" x="202" y="-589" font-family="Times New Roman,serif" font-size="15.00">lib_makeGvFile.pl</text>
</g>
<g id="clust6" class="cluster"><title>cluster_lib_params_pl</title>
<polygon fill="lightgrey" stroke="black" points="96,-147 96,-226 195,-226 195,-147 96,-147"/>
<text text-anchor="middle" x="145.5" y="-210" font-family="Times New Roman,serif" font-size="15.00">lib_params.pl</text>
</g>
<g id="clust7" class="cluster"><title>cluster_lib_regexp_pl</title>
<polygon fill="lightgrey" stroke="black" points="352,-402 352,-866 582,-866 582,-402 352,-402"/>
<text text-anchor="middle" x="467" y="-850" font-family="Times New Roman,serif" font-size="15.00">lib_regexp.pl</text>
</g>
<!-- getSelect -->
<g id="node1" class="node"><title>getSelect</title>
<polygon fill="none" stroke="black" points="376,-1355 376,-1391 430,-1391 430,-1355 376,-1355"/>
<text text-anchor="middle" x="403" y="-1370.5" font-family="Times New Roman,serif" font-size="10.00">getSelect</text>
</g>
<!-- getSelect&#45;&gt;getSelect -->
<g id="edge24" class="edge"><title>getSelect&#45;&gt;getSelect</title>
<path fill="none" stroke="blue" d="M391.965,-1391.15C390.267,-1400.54 393.945,-1409 403,-1409 408.518,-1409 412.039,-1405.86 413.564,-1401.28"/>
<polygon fill="blue" stroke="blue" points="417.066,-1401.3 414.035,-1391.15 410.074,-1400.98 417.066,-1401.3"/>
</g>
<!-- getSelect&#45;&gt;getSelect -->
<g id="edge25" class="edge"><title>getSelect&#45;&gt;getSelect</title>
<path fill="none" stroke="#ee0000" d="M384.503,-1391.26C374.913,-1408.4 381.078,-1427 403,-1427 420.812,-1427 428.221,-1414.72 425.23,-1400.92"/>
<polygon fill="#ee0000" stroke="#ee0000" points="428.365,-1399.32 421.497,-1391.26 421.835,-1401.85 428.365,-1399.32"/>
</g>
<!-- RegExpMain -->
<g id="node25" class="node"><title>RegExpMain</title>
<polygon fill="none" stroke="black" points="494,-796 494,-832 562,-832 562,-796 494,-796"/>
<text text-anchor="middle" x="528" y="-811.5" font-family="Times New Roman,serif" font-size="10.00">RegExpMain</text>
</g>
<!-- getSelect&#45;&gt;RegExpMain -->
<g id="edge23" class="edge"><title>getSelect&#45;&gt;RegExpMain</title>
<path fill="none" stroke="black" d="M408.023,-1354.72C425.999,-1273.02 499.046,-941.044 520.836,-842.015"/>
<polygon fill="black" stroke="black" points="524.277,-842.66 523.008,-832.142 517.441,-841.156 524.277,-842.66"/>
</g>
<!-- initNode -->
<g id="node2" class="node"><title>initNode</title>
<polygon fill="none" stroke="black" points="376,-1158 376,-1194 430,-1194 430,-1158 376,-1158"/>
<text text-anchor="middle" x="403" y="-1173.5" font-family="Times New Roman,serif" font-size="10.00">initNode</text>
</g>
<!-- initLegende -->
<g id="node3" class="node"><title>initLegende</title>
<polygon fill="none" stroke="black" points="248,-1158 248,-1194 312,-1194 312,-1158 248,-1158"/>
<text text-anchor="middle" x="280" y="-1173.5" font-family="Times New Roman,serif" font-size="10.00">initLegende</text>
</g>
<!-- initLegende&#45;&gt;initNode -->
<g id="edge27" class="edge"><title>initLegende&#45;&gt;initNode</title>
<path fill="none" stroke="black" d="M312.161,-1170.01C328.513,-1169.09 348.638,-1169 365.693,-1169.75"/>
<polygon fill="black" stroke="black" points="365.672,-1173.26 375.854,-1170.33 366.068,-1166.27 365.672,-1173.26"/>
</g>
<!-- initLegende&#45;&gt;initNode -->
<g id="edge28" class="edge"><title>initLegende&#45;&gt;initNode</title>
<path fill="none" stroke="blue" d="M312.161,-1181.99C328.513,-1182.91 348.638,-1183 365.693,-1182.25"/>
<polygon fill="blue" stroke="blue" points="366.068,-1185.73 375.854,-1181.67 365.672,-1178.74 366.068,-1185.73"/>
</g>
<!-- setCluster -->
<g id="node4" class="node"><title>setCluster</title>
<polygon fill="none" stroke="black" points="251.5,-1268 251.5,-1304 308.5,-1304 308.5,-1268 251.5,-1268"/>
<text text-anchor="middle" x="280" y="-1283.5" font-family="Times New Roman,serif" font-size="10.00">setCluster</text>
</g>
<!-- setNext -->
<g id="node5" class="node"><title>setNext</title>
<polygon fill="none" stroke="black" points="253,-1213 253,-1249 307,-1249 307,-1213 253,-1213"/>
<text text-anchor="middle" x="280" y="-1228.5" font-family="Times New Roman,serif" font-size="10.00">setNext</text>
</g>
<!-- setNext&#45;&gt;initNode -->
<g id="edge29" class="edge"><title>setNext&#45;&gt;initNode</title>
<path fill="none" stroke="#ee0000" d="M307.255,-1213.39C324.538,-1204.31 347.381,-1193.75 366.306,-1186.01"/>
<polygon fill="#ee0000" stroke="#ee0000" points="367.795,-1189.18 375.796,-1182.24 365.21,-1182.68 367.795,-1189.18"/>
</g>
<!-- setNext&#45;&gt;initNode -->
<g id="edge30" class="edge"><title>setNext&#45;&gt;initNode</title>
<path fill="none" stroke="green" d="M307.255,-1224.74C324.697,-1218.05 347.8,-1207.72 366.826,-1198.18"/>
<polygon fill="green" stroke="green" points="368.493,-1201.26 375.796,-1193.59 365.3,-1195.03 368.493,-1201.26"/>
</g>
<!-- setConfFile -->
<g id="node6" class="node"><title>setConfFile</title>
<polygon fill="none" stroke="black" points="249,-1103 249,-1139 311,-1139 311,-1103 249,-1103"/>
<text text-anchor="middle" x="280" y="-1118.5" font-family="Times New Roman,serif" font-size="10.00">setConfFile</text>
</g>
<!-- setConfFile&#45;&gt;initNode -->
<g id="edge32" class="edge"><title>setConfFile&#45;&gt;initNode</title>
<path fill="none" stroke="#8b2252" d="M311.221,-1134.74C327.995,-1142.36 348.952,-1151.89 366.503,-1159.86"/>
<polygon fill="#8b2252" stroke="#8b2252" points="365.302,-1163.16 375.854,-1164.12 368.199,-1156.79 365.302,-1163.16"/>
</g>
<!-- splitLine -->
<g id="node34" class="node"><title>splitLine</title>
<polygon fill="none" stroke="black" points="376,-796 376,-832 430,-832 430,-796 376,-796"/>
<text text-anchor="middle" x="403" y="-811.5" font-family="Times New Roman,serif" font-size="10.00">splitLine</text>
</g>
<!-- setConfFile&#45;&gt;splitLine -->
<g id="edge31" class="edge"><title>setConfFile&#45;&gt;splitLine</title>
<path fill="none" stroke="#473c8b" d="M288.207,-1102.72C308.593,-1050.99 366.765,-903.397 391.095,-841.669"/>
<polygon fill="#473c8b" stroke="#473c8b" points="394.42,-842.776 394.831,-832.189 387.908,-840.209 394.42,-842.776"/>
</g>
<!-- setSchedFiles -->
<g id="node7" class="node"><title>setSchedFiles</title>
<polygon fill="none" stroke="black" points="244,-938 244,-974 316,-974 316,-938 244,-938"/>
<text text-anchor="middle" x="280" y="-953.5" font-family="Times New Roman,serif" font-size="10.00">setSchedFiles</text>
</g>
<!-- setSchedFiles&#45;&gt;initNode -->
<g id="edge33" class="edge"><title>setSchedFiles&#45;&gt;initNode</title>
<path fill="none" stroke="#8b4513" d="M290.902,-974.004C312.085,-1012.52 361.907,-1103.1 387.001,-1148.73"/>
<polygon fill="#8b4513" stroke="#8b4513" points="384.075,-1150.67 391.961,-1157.75 390.209,-1147.3 384.075,-1150.67"/>
</g>
<!-- setSchedFiles&#45;&gt;RegExpMain -->
<g id="edge39" class="edge"><title>setSchedFiles&#45;&gt;RegExpMain</title>
<path fill="none" stroke="blue" d="M298.64,-937.78C337.827,-908.585 429.646,-855.007 484.485,-828.354"/>
<polygon fill="blue" stroke="blue" points="486.089,-831.467 493.614,-824.009 483.081,-825.147 486.089,-831.467"/>
</g>
<!-- setSchedFiles&#45;&gt;RegExpMain -->
<g id="edge41" class="edge"><title>setSchedFiles&#45;&gt;RegExpMain</title>
<path fill="none" stroke="green" d="M311.661,-937.871C356.531,-912.18 438.614,-865.181 487.752,-837.045"/>
<polygon fill="green" stroke="green" points="489.588,-840.027 496.527,-832.021 486.11,-833.952 489.588,-840.027"/>
</g>
<!-- setSchedFiles&#45;&gt;RegExpMain -->
<g id="edge42" class="edge"><title>setSchedFiles&#45;&gt;RegExpMain</title>
<path fill="none" stroke="#473c8b" d="M316.061,-945.208C366.313,-921.626 456.263,-869.767 501.082,-838.203"/>
<polygon fill="#473c8b" stroke="#473c8b" points="503.366,-840.871 509.419,-832.176 499.265,-835.198 503.366,-840.871"/>
</g>
<!-- RegExpOnExcept -->
<g id="node27" class="node"><title>RegExpOnExcept</title>
<polygon fill="none" stroke="black" points="360.5,-521 360.5,-557 445.5,-557 445.5,-521 360.5,-521"/>
<text text-anchor="middle" x="403" y="-536.5" font-family="Times New Roman,serif" font-size="10.00">RegExpOnExcept</text>
</g>
<!-- setSchedFiles&#45;&gt;RegExpOnExcept -->
<g id="edge34" class="edge"><title>setSchedFiles&#45;&gt;RegExpOnExcept</title>
<path fill="none" stroke="darkorange" d="M285.45,-937.911C303.118,-872.061 368.535,-646.273 392.834,-566.802"/>
<polygon fill="darkorange" stroke="darkorange" points="396.251,-567.597 395.851,-557.01 389.562,-565.536 396.251,-567.597"/>
</g>
<!-- setSchedFiles&#45;&gt;RegExpOnExcept -->
<g id="edge35" class="edge"><title>setSchedFiles&#45;&gt;RegExpOnExcept</title>
<path fill="none" stroke="#cd9b1d" d="M287.167,-937.934C307.585,-872.243 372.927,-647.131 394.793,-567.249"/>
<polygon fill="#cd9b1d" stroke="#cd9b1d" points="398.226,-567.963 397.468,-557.395 391.471,-566.129 398.226,-567.963"/>
</g>
<!-- RegExpNeeds -->
<g id="node28" class="node"><title>RegExpNeeds</title>
<polygon fill="none" stroke="black" points="367,-631 367,-667 439,-667 439,-631 367,-631"/>
<text text-anchor="middle" x="403" y="-646.5" font-family="Times New Roman,serif" font-size="10.00">RegExpNeeds</text>
</g>
<!-- setSchedFiles&#45;&gt;RegExpNeeds -->
<g id="edge43" class="edge"><title>setSchedFiles&#45;&gt;RegExpNeeds</title>
<path fill="none" stroke="#8b2252" d="M288.207,-937.715C308.593,-885.992 366.765,-738.397 391.095,-676.669"/>
<polygon fill="#8b2252" stroke="#8b2252" points="394.42,-677.776 394.831,-667.189 387.908,-675.209 394.42,-677.776"/>
</g>
<!-- RegExpFollows -->
<g id="node29" class="node"><title>RegExpFollows</title>
<polygon fill="none" stroke="black" points="364,-576 364,-612 442,-612 442,-576 364,-576"/>
<text text-anchor="middle" x="403" y="-591.5" font-family="Times New Roman,serif" font-size="10.00">RegExpFollows</text>
</g>
<!-- setSchedFiles&#45;&gt;RegExpFollows -->
<g id="edge36" class="edge"><title>setSchedFiles&#45;&gt;RegExpFollows</title>
<path fill="none" stroke="#cd1076" d="M287.167,-937.551C306.95,-878.363 368.911,-692.993 392.633,-622.024"/>
<polygon fill="#cd1076" stroke="#cd1076" points="395.995,-623.006 395.846,-612.412 389.356,-620.787 395.995,-623.006"/>
</g>
<!-- RegExpOpens -->
<g id="node30" class="node"><title>RegExpOpens</title>
<polygon fill="none" stroke="black" points="366.5,-741 366.5,-777 439.5,-777 439.5,-741 366.5,-741"/>
<text text-anchor="middle" x="403" y="-756.5" font-family="Times New Roman,serif" font-size="10.00">RegExpOpens</text>
</g>
<!-- setSchedFiles&#45;&gt;RegExpOpens -->
<g id="edge37" class="edge"><title>setSchedFiles&#45;&gt;RegExpOpens</title>
<path fill="none" stroke="#838b8b" d="M292.167,-937.82C313.597,-902.929 360.58,-826.436 385.585,-785.726"/>
<polygon fill="#838b8b" stroke="#838b8b" points="388.609,-787.489 390.86,-777.136 382.644,-783.825 388.609,-787.489"/>
</g>
<!-- RegExpAt -->
<g id="node31" class="node"><title>RegExpAt</title>
<polygon fill="none" stroke="black" points="374.5,-686 374.5,-722 431.5,-722 431.5,-686 374.5,-686"/>
<text text-anchor="middle" x="403" y="-701.5" font-family="Times New Roman,serif" font-size="10.00">RegExpAt</text>
</g>
<!-- setSchedFiles&#45;&gt;RegExpAt -->
<g id="edge38" class="edge"><title>setSchedFiles&#45;&gt;RegExpAt</title>
<path fill="none" stroke="black" d="M288.028,-937.986C307.117,-894.218 360.254,-783.119 386.677,-731.238"/>
<polygon fill="black" stroke="black" points="389.829,-732.764 391.286,-722.27 383.602,-729.565 389.829,-732.764"/>
</g>
<!-- setSchedFiles&#45;&gt;RegExpAt -->
<g id="edge40" class="edge"><title>setSchedFiles&#45;&gt;RegExpAt</title>
<path fill="none" stroke="#ee0000" d="M291.738,-937.684C314.559,-893.738 367.69,-783.106 390.861,-731.307"/>
<polygon fill="#ee0000" stroke="#ee0000" points="394.108,-732.619 394.952,-722.058 387.706,-729.788 394.108,-732.619"/>
</g>
<!-- setJobsHash -->
<g id="node8" class="node"><title>setJobsHash</title>
<polygon fill="none" stroke="black" points="246,-993 246,-1029 314,-1029 314,-993 246,-993"/>
<text text-anchor="middle" x="280" y="-1008.5" font-family="Times New Roman,serif" font-size="10.00">setJobsHash</text>
</g>
<!-- setJobsHash&#45;&gt;initNode -->
<g id="edge46" class="edge"><title>setJobsHash&#45;&gt;initNode</title>
<path fill="none" stroke="#cd9b1d" d="M294.411,-1029.29C315.819,-1058.48 357.811,-1115.74 382.528,-1149.45"/>
<polygon fill="#cd9b1d" stroke="#cd9b1d" points="379.977,-1151.89 388.713,-1157.88 385.622,-1147.75 379.977,-1151.89"/>
</g>
<!-- setJobsHash&#45;&gt;RegExpMain -->
<g id="edge44" class="edge"><title>setJobsHash&#45;&gt;RegExpMain</title>
<path fill="none" stroke="#8b4513" d="M298.236,-992.776C338.797,-957.005 437.146,-878.47 491.088,-838.349"/>
<polygon fill="#8b4513" stroke="#8b4513" points="493.381,-841.007 499.349,-832.253 489.224,-835.375 493.381,-841.007"/>
</g>
<!-- setJobsHash&#45;&gt;RegExpMain -->
<g id="edge45" class="edge"><title>setJobsHash&#45;&gt;RegExpMain</title>
<path fill="none" stroke="darkorange" d="M308.449,-992.896C357.159,-957.272 455.782,-878.867 502.437,-838.61"/>
<polygon fill="darkorange" stroke="darkorange" points="504.756,-841.232 509.993,-832.022 500.155,-835.956 504.756,-841.232"/>
</g>
<!-- writeJobsInSched -->
<g id="node9" class="node"><title>writeJobsInSched</title>
<polygon fill="none" stroke="black" points="236,-883 236,-919 324,-919 324,-883 236,-883"/>
<text text-anchor="middle" x="280" y="-898.5" font-family="Times New Roman,serif" font-size="10.00">writeJobsInSched</text>
</g>
<!-- setConvertFreq -->
<g id="node10" class="node"><title>setConvertFreq</title>
<polygon fill="none" stroke="black" points="240.5,-1048 240.5,-1084 319.5,-1084 319.5,-1048 240.5,-1048"/>
<text text-anchor="middle" x="280" y="-1063.5" font-family="Times New Roman,serif" font-size="10.00">setConvertFreq</text>
</g>
<!-- setConvertFreq&#45;&gt;RegExpMain -->
<g id="edge47" class="edge"><title>setConvertFreq&#45;&gt;RegExpMain</title>
<path fill="none" stroke="#cd1076" d="M294.405,-1047.99C334.015,-1003.67 445.161,-890.342 498.592,-839.329"/>
<polygon fill="#cd1076" stroke="#cd1076" points="501.19,-841.689 506.041,-832.27 496.375,-836.608 501.19,-841.689"/>
</g>
<!-- setConvertFreq&#45;&gt;RegExpMain -->
<g id="edge48" class="edge"><title>setConvertFreq&#45;&gt;RegExpMain</title>
<path fill="none" stroke="#838b8b" d="M302.008,-1047.68C349.269,-1003.28 459.95,-890.799 506.632,-839.71"/>
<polygon fill="#838b8b" stroke="#838b8b" points="509.441,-841.822 513.555,-832.058 504.25,-837.126 509.441,-841.822"/>
</g>
<!-- setLinkAfter -->
<g id="node11" class="node"><title>setLinkAfter</title>
<polygon fill="none" stroke="black" points="246.5,-324 246.5,-360 313.5,-360 313.5,-324 246.5,-324"/>
<text text-anchor="middle" x="280" y="-339.5" font-family="Times New Roman,serif" font-size="10.00">setLinkAfter</text>
</g>
<!-- makeLink -->
<g id="node13" class="node"><title>makeLink</title>
<polygon fill="none" stroke="black" points="376,-269 376,-305 430,-305 430,-269 376,-269"/>
<text text-anchor="middle" x="403" y="-284.5" font-family="Times New Roman,serif" font-size="10.00">makeLink</text>
</g>
<!-- setLinkAfter&#45;&gt;makeLink -->
<g id="edge49" class="edge"><title>setLinkAfter&#45;&gt;makeLink</title>
<path fill="none" stroke="black" d="M313.744,-327.116C330.009,-319.723 349.691,-310.777 366.337,-303.21"/>
<polygon fill="black" stroke="black" points="368.084,-306.261 375.739,-298.937 365.187,-299.889 368.084,-306.261"/>
</g>
<!-- setLinks -->
<g id="node12" class="node"><title>setLinks</title>
<polygon fill="none" stroke="black" points="253,-269 253,-305 307,-305 307,-269 253,-269"/>
<text text-anchor="middle" x="280" y="-284.5" font-family="Times New Roman,serif" font-size="10.00">setLinks</text>
</g>
<!-- setLinks&#45;&gt;makeLink -->
<g id="edge50" class="edge"><title>setLinks&#45;&gt;makeLink</title>
<path fill="none" stroke="blue" d="M307.255,-275.643C324.38,-273.23 346.962,-272.855 365.785,-274.517"/>
<polygon fill="blue" stroke="blue" points="365.466,-278.003 375.796,-275.65 366.253,-271.048 365.466,-278.003"/>
</g>
<!-- setLinks&#45;&gt;makeLink -->
<g id="edge51" class="edge"><title>setLinks&#45;&gt;makeLink</title>
<path fill="none" stroke="#ee0000" d="M307.255,-287C324.38,-287 346.962,-287 365.785,-287"/>
<polygon fill="#ee0000" stroke="#ee0000" points="365.796,-290.5 375.796,-287 365.796,-283.5 365.796,-290.5"/>
</g>
<!-- setLinks&#45;&gt;makeLink -->
<g id="edge52" class="edge"><title>setLinks&#45;&gt;makeLink</title>
<path fill="none" stroke="green" d="M307.255,-298.357C324.38,-300.77 346.962,-301.145 365.785,-299.483"/>
<polygon fill="green" stroke="green" points="366.253,-302.952 375.796,-298.35 365.466,-295.997 366.253,-302.952"/>
</g>
<!-- cDate -->
<g id="node14" class="node"><title>cDate</title>
<polygon fill="none" stroke="black" points="253,-72 253,-108 307,-108 307,-72 253,-72"/>
<text text-anchor="middle" x="280" y="-87.5" font-family="Times New Roman,serif" font-size="10.00">cDate</text>
</g>
<!-- dumperHash -->
<g id="node15" class="node"><title>dumperHash</title>
<polygon fill="none" stroke="black" points="369,-17 369,-53 437,-53 437,-17 369,-17"/>
<text text-anchor="middle" x="403" y="-32.5" font-family="Times New Roman,serif" font-size="10.00">dumperHash</text>
</g>
<!-- writeLog -->
<g id="node16" class="node"><title>writeLog</title>
<polygon fill="none" stroke="black" points="253,-17 253,-53 307,-53 307,-17 253,-17"/>
<text text-anchor="middle" x="280" y="-32.5" font-family="Times New Roman,serif" font-size="10.00">writeLog</text>
</g>
<!-- writeLog&#45;&gt;dumperHash -->
<g id="edge53" class="edge"><title>writeLog&#45;&gt;dumperHash</title>
<path fill="none" stroke="black" d="M307.255,-17.9647C322.711,-14.6979 342.612,-13.9209 360.182,-15.6337"/>
<polygon fill="black" stroke="black" points="359.84,-19.1185 370.206,-16.9298 360.738,-12.1763 359.84,-19.1185"/>
</g>
<!-- writeLog&#45;&gt;dumperHash -->
<g id="edge54" class="edge"><title>writeLog&#45;&gt;dumperHash</title>
<path fill="none" stroke="blue" d="M307.255,-29.3216C322.221,-28.2672 341.355,-27.9909 358.504,-28.4928"/>
<polygon fill="blue" stroke="blue" points="358.74,-32.0048 368.871,-28.9058 359.019,-25.0104 358.74,-32.0048"/>
</g>
<!-- writeLog&#45;&gt;dumperHash -->
<g id="edge55" class="edge"><title>writeLog&#45;&gt;dumperHash</title>
<path fill="none" stroke="#ee0000" d="M307.255,-40.6784C322.221,-41.7328 341.355,-42.0091 358.504,-41.5072"/>
<polygon fill="#ee0000" stroke="#ee0000" points="359.019,-44.9896 368.871,-41.0942 358.74,-37.9952 359.019,-44.9896"/>
</g>
<!-- writeLog&#45;&gt;dumperHash -->
<g id="edge56" class="edge"><title>writeLog&#45;&gt;dumperHash</title>
<path fill="none" stroke="green" d="M307.255,-52.0353C322.711,-55.3021 342.612,-56.0791 360.182,-54.3663"/>
<polygon fill="green" stroke="green" points="360.738,-57.8237 370.206,-53.0702 359.84,-50.8815 360.738,-57.8237"/>
</g>
<!-- makeXlsFile -->
<g id="node17" class="node"><title>makeXlsFile</title>
<polygon fill="none" stroke="black" points="247.5,-127 247.5,-163 312.5,-163 312.5,-127 247.5,-127"/>
<text text-anchor="middle" x="280" y="-142.5" font-family="Times New Roman,serif" font-size="10.00">makeXlsFile</text>
</g>
<!-- _add_carac -->
<g id="node18" class="node"><title>_add_carac</title>
<polygon fill="none" stroke="black" points="248.5,-182 248.5,-218 311.5,-218 311.5,-182 248.5,-182"/>
<text text-anchor="middle" x="280" y="-197.5" font-family="Times New Roman,serif" font-size="10.00">_add_carac</text>
</g>
<!-- setInNode -->
<g id="node19" class="node"><title>setInNode</title>
<polygon fill="none" stroke="black" points="250.5,-535 250.5,-571 309.5,-571 309.5,-535 250.5,-535"/>
<text text-anchor="middle" x="280" y="-550.5" font-family="Times New Roman,serif" font-size="10.00">setInNode</text>
</g>
<!-- RegExpDesc -->
<g id="node32" class="node"><title>RegExpDesc</title>
<polygon fill="none" stroke="black" points="369.5,-411 369.5,-447 436.5,-447 436.5,-411 369.5,-411"/>
<text text-anchor="middle" x="403" y="-426.5" font-family="Times New Roman,serif" font-size="10.00">RegExpDesc</text>
</g>
<!-- setInNode&#45;&gt;RegExpDesc -->
<g id="edge57" class="edge"><title>setInNode&#45;&gt;RegExpDesc</title>
<path fill="none" stroke="black" d="M298.594,-534.969C319.295,-513.756 353.802,-478.393 377.207,-454.408"/>
<polygon fill="black" stroke="black" points="379.905,-456.654 384.384,-447.052 374.895,-451.765 379.905,-456.654"/>
</g>
<!-- addBrLine -->
<g id="node35" class="node"><title>addBrLine</title>
<polygon fill="none" stroke="black" points="374,-466 374,-502 432,-502 432,-466 374,-466"/>
<text text-anchor="middle" x="403" y="-481.5" font-family="Times New Roman,serif" font-size="10.00">addBrLine</text>
</g>
<!-- setInNode&#45;&gt;addBrLine -->
<g id="edge58" class="edge"><title>setInNode&#45;&gt;addBrLine</title>
<path fill="none" stroke="blue" d="M309.675,-536.648C326.22,-527.214 347.203,-515.248 364.983,-505.109"/>
<polygon fill="blue" stroke="blue" points="366.995,-507.991 373.948,-499.997 363.527,-501.91 366.995,-507.991"/>
</g>
<!-- setInfoNode -->
<g id="node20" class="node"><title>setInfoNode</title>
<polygon fill="none" stroke="black" points="246.5,-452 246.5,-488 313.5,-488 313.5,-452 246.5,-452"/>
<text text-anchor="middle" x="280" y="-467.5" font-family="Times New Roman,serif" font-size="10.00">setInfoNode</text>
</g>
<!-- setInfoNode&#45;&gt;makeLink -->
<g id="edge61" class="edge"><title>setInfoNode&#45;&gt;makeLink</title>
<path fill="none" stroke="#473c8b" d="M293.044,-451.784C314.516,-419.31 359.488,-351.295 384.418,-313.592"/>
<polygon fill="#473c8b" stroke="#473c8b" points="387.408,-315.414 390.004,-305.142 381.569,-311.553 387.408,-315.414"/>
</g>
<!-- setInfoNode&#45;&gt;RegExpDesc -->
<g id="edge59" class="edge"><title>setInfoNode&#45;&gt;RegExpDesc</title>
<path fill="none" stroke="#ee0000" d="M313.744,-458.905C327.868,-454.119 344.568,-448.46 359.62,-443.36"/>
<polygon fill="#ee0000" stroke="#ee0000" points="360.882,-446.628 369.229,-440.104 358.635,-439.998 360.882,-446.628"/>
</g>
<!-- setInfoNode&#45;&gt;addBrLine -->
<g id="edge60" class="edge"><title>setInfoNode&#45;&gt;addBrLine</title>
<path fill="none" stroke="green" d="M313.744,-473.789C329.131,-475.569 347.576,-477.703 363.616,-479.559"/>
<polygon fill="green" stroke="green" points="363.417,-483.059 373.753,-480.732 364.221,-476.105 363.417,-483.059"/>
</g>
<!-- setNodeclusterRelation -->
<g id="node21" class="node"><title>setNodeclusterRelation</title>
<polygon fill="none" stroke="black" points="90,-535 90,-571 200,-571 200,-535 90,-535"/>
<text text-anchor="middle" x="145" y="-550.5" font-family="Times New Roman,serif" font-size="10.00">setNodeclusterRelation</text>
</g>
<!-- setNodeclusterRelation&#45;&gt;setInNode -->
<g id="edge62" class="edge"><title>setNodeclusterRelation&#45;&gt;setInNode</title>
<path fill="none" stroke="#8b2252" d="M149.156,-534.992C165.979,-490.401 245.287,-487.243 270.96,-525.519"/>
<polygon fill="#8b2252" stroke="#8b2252" points="268.114,-527.636 275.814,-534.914 274.333,-524.423 268.114,-527.636"/>
</g>
<!-- setNodeclusterRelation&#45;&gt;setInNode -->
<g id="edge63" class="edge"><title>setNodeclusterRelation&#45;&gt;setInNode</title>
<path fill="none" stroke="#8b4513" d="M152.06,-534.809C172.226,-507.751 237.387,-505.306 265.681,-527.476"/>
<polygon fill="#8b4513" stroke="#8b4513" points="263.378,-530.124 272.904,-534.761 268.349,-525.196 263.378,-530.124"/>
</g>
<!-- setNodeclusterRelation&#45;&gt;setInNode -->
<g id="edge64" class="edge"><title>setNodeclusterRelation&#45;&gt;setInNode</title>
<path fill="none" stroke="darkorange" d="M161.517,-534.903C184.242,-524.364 226.817,-523.182 253.993,-531.357"/>
<polygon fill="darkorange" stroke="darkorange" points="252.989,-534.718 263.582,-534.949 255.445,-528.163 252.989,-534.718"/>
</g>
<!-- setNodeclusterRelation&#45;&gt;setInNode -->
<g id="edge65" class="edge"><title>setNodeclusterRelation&#45;&gt;setInNode</title>
<path fill="none" stroke="#cd9b1d" d="M200.096,-539.711C213.581,-539.247 227.771,-539.548 240.341,-540.612"/>
<polygon fill="#cd9b1d" stroke="#cd9b1d" points="240.155,-544.112 250.468,-541.685 240.893,-537.151 240.155,-544.112"/>
</g>
<!-- setNodeclusterRelation&#45;&gt;setInNode -->
<g id="edge66" class="edge"><title>setNodeclusterRelation&#45;&gt;setInNode</title>
<path fill="none" stroke="#cd1076" d="M200.096,-553C213.581,-553 227.771,-553 240.341,-553"/>
<polygon fill="#cd1076" stroke="#cd1076" points="240.468,-556.5 250.468,-553 240.468,-549.5 240.468,-556.5"/>
</g>
<!-- setNodeclusterRelation&#45;&gt;setInNode -->
<g id="edge67" class="edge"><title>setNodeclusterRelation&#45;&gt;setInNode</title>
<path fill="none" stroke="#838b8b" d="M200.096,-566.289C213.581,-566.753 227.771,-566.452 240.341,-565.388"/>
<polygon fill="#838b8b" stroke="#838b8b" points="240.893,-568.849 250.468,-564.315 240.155,-561.888 240.893,-568.849"/>
</g>
<!-- setNodeclusterRelation&#45;&gt;setInNode -->
<g id="edge68" class="edge"><title>setNodeclusterRelation&#45;&gt;setInNode</title>
<path fill="none" stroke="black" d="M161.517,-571.097C184.242,-581.636 226.817,-582.818 253.993,-574.643"/>
<polygon fill="black" stroke="black" points="255.445,-577.837 263.582,-571.051 252.989,-571.282 255.445,-577.837"/>
</g>
<!-- setNodeclusterRelation&#45;&gt;setInNode -->
<g id="edge69" class="edge"><title>setNodeclusterRelation&#45;&gt;setInNode</title>
<path fill="none" stroke="blue" d="M152.06,-571.191C172.226,-598.249 237.387,-600.694 265.681,-578.524"/>
<polygon fill="blue" stroke="blue" points="268.349,-580.804 272.904,-571.239 263.378,-575.876 268.349,-580.804"/>
</g>
<!-- setNodeclusterRelation&#45;&gt;setInNode -->
<g id="edge70" class="edge"><title>setNodeclusterRelation&#45;&gt;setInNode</title>
<path fill="none" stroke="#ee0000" d="M149.156,-571.008C165.979,-615.599 245.287,-618.757 270.96,-580.481"/>
<polygon fill="#ee0000" stroke="#ee0000" points="274.333,-581.577 275.814,-571.086 268.114,-578.364 274.333,-581.577"/>
</g>
<!-- setNodeclusterRelation&#45;&gt;setInfoNode -->
<g id="edge71" class="edge"><title>setNodeclusterRelation&#45;&gt;setInfoNode</title>
<path fill="none" stroke="green" d="M174.859,-534.99C194.245,-522.892 219.995,-506.822 241.039,-493.69"/>
<polygon fill="green" stroke="green" points="243.107,-496.525 249.738,-488.261 239.401,-490.586 243.107,-496.525"/>
</g>
<!-- setClusterColor -->
<g id="node22" class="node"><title>setClusterColor</title>
<polygon fill="none" stroke="black" points="105.5,-480 105.5,-516 184.5,-516 184.5,-480 105.5,-480"/>
<text text-anchor="middle" x="145" y="-495.5" font-family="Times New Roman,serif" font-size="10.00">setClusterColor</text>
</g>
<!-- writeVgFile -->
<g id="node23" class="node"><title>writeVgFile</title>
<polygon fill="none" stroke="black" points="114,-425 114,-461 176,-461 176,-425 114,-425"/>
<text text-anchor="middle" x="145" y="-440.5" font-family="Times New Roman,serif" font-size="10.00">writeVgFile</text>
</g>
<!-- writeVgFile&#45;&gt;_add_carac -->
<g id="edge72" class="edge"><title>writeVgFile&#45;&gt;_add_carac</title>
<path fill="none" stroke="#473c8b" d="M155.997,-424.736C179.209,-382.325 236.856,-277 264.181,-227.076"/>
<polygon fill="#473c8b" stroke="#473c8b" points="267.338,-228.597 269.069,-218.145 261.197,-225.237 267.338,-228.597"/>
</g>
<!-- load_params -->
<g id="node24" class="node"><title>load_params</title>
<polygon fill="none" stroke="black" points="111,-156 111,-192 179,-192 179,-156 111,-156"/>
<text text-anchor="middle" x="145" y="-171.5" font-family="Times New Roman,serif" font-size="10.00">load_params</text>
</g>
<!-- RegExpFreq -->
<g id="node26" class="node"><title>RegExpFreq</title>
<polygon fill="none" stroke="black" points="495.5,-521 495.5,-557 560.5,-557 560.5,-521 495.5,-521"/>
<text text-anchor="middle" x="528" y="-536.5" font-family="Times New Roman,serif" font-size="10.00">RegExpFreq</text>
</g>
<!-- RegExpOnExcept&#45;&gt;RegExpMain -->
<g id="edge74" class="edge"><title>RegExpOnExcept&#45;&gt;RegExpMain</title>
<path fill="none" stroke="blue" d="M412.07,-557.044C433.095,-604.05 489.657,-730.51 514.737,-786.584"/>
<polygon fill="blue" stroke="blue" points="511.622,-788.191 518.9,-795.89 518.012,-785.332 511.622,-788.191"/>
</g>
<!-- RegExpOnExcept&#45;&gt;RegExpFreq -->
<g id="edge73" class="edge"><title>RegExpOnExcept&#45;&gt;RegExpFreq</title>
<path fill="none" stroke="black" d="M445.642,-539C458.274,-539 472.158,-539 484.825,-539"/>
<polygon fill="black" stroke="black" points="485.124,-542.5 495.124,-539 485.124,-535.5 485.124,-542.5"/>
</g>
<!-- RegExpNeeds&#45;&gt;RegExpMain -->
<g id="edge75" class="edge"><title>RegExpNeeds&#45;&gt;RegExpMain</title>
<path fill="none" stroke="#ee0000" d="M417.633,-667.288C439.394,-696.48 482.08,-753.742 507.206,-787.447"/>
<polygon fill="#ee0000" stroke="#ee0000" points="504.71,-789.956 513.493,-795.881 510.323,-785.772 504.71,-789.956"/>
</g>
<!-- RegExpFollows&#45;&gt;RegExpMain -->
<g id="edge76" class="edge"><title>RegExpFollows&#45;&gt;RegExpMain</title>
<path fill="none" stroke="green" d="M414.066,-612.004C435.644,-650.599 486.457,-741.484 511.913,-787.015"/>
<polygon fill="green" stroke="green" points="508.86,-788.727 516.795,-795.748 514.97,-785.311 508.86,-788.727"/>
</g>
<!-- RegExpOpens&#45;&gt;RegExpMain -->
<g id="edge77" class="edge"><title>RegExpOpens&#45;&gt;RegExpMain</title>
<path fill="none" stroke="#473c8b" d="M439.577,-774.908C453.545,-781.154 469.697,-788.377 484.289,-794.901"/>
<polygon fill="#473c8b" stroke="#473c8b" points="483.055,-798.184 493.613,-799.071 485.913,-791.794 483.055,-798.184"/>
</g>
<!-- RegExpAt&#45;&gt;RegExpMain -->
<g id="edge78" class="edge"><title>RegExpAt&#45;&gt;RegExpMain</title>
<path fill="none" stroke="#8b2252" d="M424.311,-722.164C444.697,-740.396 476.259,-768.622 499.011,-788.969"/>
<polygon fill="#8b2252" stroke="#8b2252" points="496.872,-791.751 506.659,-795.809 501.538,-786.534 496.872,-791.751"/>
</g>
<!-- RegExpDesc&#45;&gt;RegExpMain -->
<g id="edge79" class="edge"><title>RegExpDesc&#45;&gt;RegExpMain</title>
<path fill="none" stroke="#8b4513" d="M409.768,-447.053C429.5,-508.817 494.399,-711.958 518.172,-786.369"/>
<polygon fill="#8b4513" stroke="#8b4513" points="514.868,-787.526 521.245,-795.986 521.536,-785.395 514.868,-787.526"/>
</g>
<!-- RegExpDelNoAlph -->
<g id="node33" class="node"><title>RegExpDelNoAlph</title>
<polygon fill="none" stroke="black" points="482,-659 482,-695 574,-695 574,-659 482,-659"/>
<text text-anchor="middle" x="528" y="-674.5" font-family="Times New Roman,serif" font-size="10.00">RegExpDelNoAlph</text>
</g>
<!-- RegExpDesc&#45;&gt;RegExpDelNoAlph -->
<g id="edge80" class="edge"><title>RegExpDesc&#45;&gt;RegExpDelNoAlph</title>
<path fill="none" stroke="darkorange" d="M413.044,-447.236C434.414,-490.322 488.124,-598.616 513.421,-649.622"/>
<polygon fill="darkorange" stroke="darkorange" points="510.363,-651.334 517.942,-658.737 516.635,-648.223 510.363,-651.334"/>
</g>
<!-- splitLine&#45;&gt;RegExpMain -->
<g id="edge82" class="edge"><title>splitLine&#45;&gt;RegExpMain</title>
<path fill="none" stroke="#cd1076" d="M430.085,-802.728C445.72,-800.501 465.988,-799.944 483.945,-801.055"/>
<polygon fill="#cd1076" stroke="#cd1076" points="483.664,-804.543 493.917,-801.872 484.236,-797.567 483.664,-804.543"/>
</g>
<!-- splitLine&#45;&gt;RegExpMain -->
<g id="edge83" class="edge"><title>splitLine&#45;&gt;RegExpMain</title>
<path fill="none" stroke="#838b8b" d="M430.085,-814C445.648,-814 465.8,-814 483.694,-814"/>
<polygon fill="#838b8b" stroke="#838b8b" points="483.917,-817.5 493.917,-814 483.917,-810.5 483.917,-817.5"/>
</g>
<!-- splitLine&#45;&gt;RegExpMain -->
<g id="edge84" class="edge"><title>splitLine&#45;&gt;RegExpMain</title>
<path fill="none" stroke="black" d="M430.085,-825.272C445.72,-827.499 465.988,-828.056 483.945,-826.945"/>
<polygon fill="black" stroke="black" points="484.236,-830.433 493.917,-826.128 483.664,-823.457 484.236,-830.433"/>
</g>
<!-- splitLine&#45;&gt;RegExpDelNoAlph -->
<g id="edge81" class="edge"><title>splitLine&#45;&gt;RegExpDelNoAlph</title>
<path fill="none" stroke="#cd9b1d" d="M420.333,-795.807C441.745,-771.959 479.436,-729.978 503.802,-702.839"/>
<polygon fill="#cd9b1d" stroke="#cd9b1d" points="506.523,-705.047 510.599,-695.268 501.314,-700.371 506.523,-705.047"/>
</g>
<!-- addBrLine&#45;&gt;RegExpMain -->
<g id="edge85" class="edge"><title>addBrLine&#45;&gt;RegExpMain</title>
<path fill="none" stroke="blue" d="M410.788,-502.212C431.201,-556.978 492.123,-720.427 516.625,-786.164"/>
<polygon fill="blue" stroke="blue" points="513.461,-787.696 520.233,-795.844 520.02,-785.251 513.461,-787.696"/>
</g>
<!-- main.pl -->
<g id="node36" class="node"><title>main.pl</title>
<polygon fill="none" stroke="black" points="0,-535 0,-571 54,-571 54,-535 0,-535"/>
<text text-anchor="middle" x="27" y="-550.5" font-family="Times New Roman,serif" font-size="10.00">main.pl</text>
</g>
<!-- main.pl&#45;&gt;initLegende -->
<g id="edge7" class="edge"><title>main.pl&#45;&gt;initLegende</title>
<path fill="none" stroke="#8b4513" d="M34.4348,-571.308C70.3327,-659.705 225.759,-1042.43 268.873,-1148.6"/>
<polygon fill="#8b4513" stroke="#8b4513" points="265.681,-1150.04 272.687,-1157.99 272.167,-1147.41 265.681,-1150.04"/>
</g>
<!-- main.pl&#45;&gt;setCluster -->
<g id="edge8" class="edge"><title>main.pl&#45;&gt;setCluster</title>
<path fill="none" stroke="darkorange" d="M33.254,-571.119C67.1918,-669.445 229.236,-1138.93 270.449,-1258.33"/>
<polygon fill="darkorange" stroke="darkorange" points="267.167,-1259.55 273.738,-1267.86 273.784,-1257.26 267.167,-1259.55"/>
</g>
<!-- main.pl&#45;&gt;setNext -->
<g id="edge9" class="edge"><title>main.pl&#45;&gt;setNext</title>
<path fill="none" stroke="#cd9b1d" d="M33.7671,-571.135C68.554,-664.358 227.258,-1089.66 269.594,-1203.11"/>
<polygon fill="#cd9b1d" stroke="#cd9b1d" points="266.437,-1204.66 273.212,-1212.81 272.995,-1202.22 266.437,-1204.66"/>
</g>
<!-- main.pl&#45;&gt;setConfFile -->
<g id="edge6" class="edge"><title>main.pl&#45;&gt;setConfFile</title>
<path fill="none" stroke="#8b2252" d="M35.1312,-571.255C71.9692,-653.959 223.329,-993.771 267.714,-1093.42"/>
<polygon fill="#8b2252" stroke="#8b2252" points="264.633,-1095.1 271.899,-1102.81 271.027,-1092.25 264.633,-1095.1"/>
</g>
<!-- main.pl&#45;&gt;setSchedFiles -->
<g id="edge5" class="edge"><title>main.pl&#45;&gt;setSchedFiles</title>
<path fill="none" stroke="#473c8b" d="M38.3624,-571.099C78.7391,-635.415 215.43,-853.148 263.286,-929.376"/>
<polygon fill="#473c8b" stroke="#473c8b" points="260.388,-931.343 268.669,-937.951 266.316,-927.621 260.388,-931.343"/>
</g>
<!-- main.pl&#45;&gt;setJobsHash -->
<g id="edge11" class="edge"><title>main.pl&#45;&gt;setJobsHash</title>
<path fill="none" stroke="#838b8b" d="M37.074,-571.237C76.1882,-642.044 218.13,-898.998 264.922,-983.705"/>
<polygon fill="#838b8b" stroke="#838b8b" points="261.998,-985.65 269.897,-992.711 268.125,-982.265 261.998,-985.65"/>
</g>
<!-- main.pl&#45;&gt;writeJobsInSched -->
<g id="edge12" class="edge"><title>main.pl&#45;&gt;writeJobsInSched</title>
<path fill="none" stroke="black" d="M40.2462,-571.22C82.087,-628.772 211.555,-806.854 260.758,-874.533"/>
<polygon fill="black" stroke="black" points="258.174,-876.93 266.885,-882.96 263.836,-872.814 258.174,-876.93"/>
</g>
<!-- main.pl&#45;&gt;setConvertFreq -->
<g id="edge4" class="edge"><title>main.pl&#45;&gt;setConvertFreq</title>
<path fill="none" stroke="green" d="M36.0044,-571.258C73.9687,-648.237 221.104,-946.578 266.551,-1038.73"/>
<polygon fill="green" stroke="green" points="263.541,-1040.54 271.103,-1047.96 269.819,-1037.44 263.541,-1040.54"/>
</g>
<!-- main.pl&#45;&gt;setLinkAfter -->
<g id="edge13" class="edge"><title>main.pl&#45;&gt;setLinkAfter</title>
<path fill="none" stroke="blue" d="M49.0095,-534.644C94.5419,-496.671 199.107,-409.464 250.455,-366.641"/>
<polygon fill="blue" stroke="blue" points="252.783,-369.256 258.222,-360.163 248.3,-363.88 252.783,-369.256"/>
</g>
<!-- main.pl&#45;&gt;setLinks -->
<g id="edge10" class="edge"><title>main.pl&#45;&gt;setLinks</title>
<path fill="none" stroke="#cd1076" d="M44.3897,-534.717C88.5487,-488.289 205.098,-365.75 255.832,-312.41"/>
<polygon fill="#cd1076" stroke="#cd1076" points="258.467,-314.718 262.823,-305.059 253.395,-309.893 258.467,-314.718"/>
</g>
<!-- main.pl&#45;&gt;cDate -->
<g id="edge1" class="edge"><title>main.pl&#45;&gt;cDate</title>
<path fill="none" stroke="black" d="M36.9179,-534.85C75.9278,-463.46 218.937,-201.748 265.349,-116.812"/>
<polygon fill="black" stroke="black" points="268.427,-118.478 270.151,-108.025 262.284,-115.122 268.427,-118.478"/>
</g>
<!-- main.pl&#45;&gt;writeLog -->
<g id="edge22" class="edge"><title>main.pl&#45;&gt;writeLog</title>
<path fill="none" stroke="#838b8b" d="M35.8561,-534.868C73.6142,-457.561 221.282,-155.221 266.661,-62.3114"/>
<polygon fill="#838b8b" stroke="#838b8b" points="269.841,-63.7751 271.085,-53.2535 263.551,-60.703 269.841,-63.7751"/>
</g>
<!-- main.pl&#45;&gt;makeXlsFile -->
<g id="edge21" class="edge"><title>main.pl&#45;&gt;makeXlsFile</title>
<path fill="none" stroke="#cd1076" d="M38.1975,-534.942C78.3559,-470.181 215.298,-249.342 263.25,-172.011"/>
<polygon fill="#cd1076" stroke="#cd1076" points="266.349,-173.655 268.645,-163.312 260.4,-169.966 266.349,-173.655"/>
</g>
<!-- main.pl&#45;&gt;setNodeclusterRelation -->
<g id="edge15" class="edge"><title>main.pl&#45;&gt;setNodeclusterRelation</title>
<path fill="none" stroke="green" d="M54.0327,-541.519C61.7009,-540.437 70.4533,-539.79 79.4181,-539.578"/>
<polygon fill="green" stroke="green" points="79.6026,-543.077 89.5836,-539.523 79.5649,-536.077 79.6026,-543.077"/>
</g>
<!-- main.pl&#45;&gt;setNodeclusterRelation -->
<g id="edge17" class="edge"><title>main.pl&#45;&gt;setNodeclusterRelation</title>
<path fill="none" stroke="#8b2252" d="M54.0327,-553C61.7009,-553 70.4533,-553 79.4181,-553"/>
<polygon fill="#8b2252" stroke="#8b2252" points="79.5836,-556.5 89.5836,-553 79.5836,-549.5 79.5836,-556.5"/>
</g>
<!-- main.pl&#45;&gt;setNodeclusterRelation -->
<g id="edge19" class="edge"><title>main.pl&#45;&gt;setNodeclusterRelation</title>
<path fill="none" stroke="darkorange" d="M54.0327,-564.481C61.7009,-565.563 70.4533,-566.21 79.4181,-566.422"/>
<polygon fill="darkorange" stroke="darkorange" points="79.5649,-569.923 89.5836,-566.477 79.6026,-562.923 79.5649,-569.923"/>
</g>
<!-- main.pl&#45;&gt;setClusterColor -->
<g id="edge14" class="edge"><title>main.pl&#45;&gt;setClusterColor</title>
<path fill="none" stroke="#ee0000" d="M54.0327,-540.657C66.526,-534.733 81.8971,-527.445 96.3764,-520.58"/>
<polygon fill="#ee0000" stroke="#ee0000" points="98.1871,-523.595 105.723,-516.148 95.1881,-517.27 98.1871,-523.595"/>
</g>
<!-- main.pl&#45;&gt;writeVgFile -->
<g id="edge16" class="edge"><title>main.pl&#45;&gt;writeVgFile</title>
<path fill="none" stroke="#473c8b" d="M38.4988,-534.884C53.6309,-515.648 82.3532,-486.879 106.012,-466.264"/>
<polygon fill="#473c8b" stroke="#473c8b" points="108.476,-468.763 113.815,-459.611 103.934,-463.436 108.476,-468.763"/>
</g>
<!-- main.pl&#45;&gt;writeVgFile -->
<g id="edge18" class="edge"><title>main.pl&#45;&gt;writeVgFile</title>
<path fill="none" stroke="#8b4513" d="M47.155,-534.836C66.2972,-516.684 95.8868,-488.625 117.322,-468.298"/>
<polygon fill="#8b4513" stroke="#8b4513" points="119.969,-470.612 124.817,-461.191 115.152,-465.533 119.969,-470.612"/>
</g>
<!-- main.pl&#45;&gt;writeVgFile -->
<g id="edge20" class="edge"><title>main.pl&#45;&gt;writeVgFile</title>
<path fill="none" stroke="#cd9b1d" d="M54.0327,-539.795C76.2827,-521.836 107.66,-491.558 126.872,-469.155"/>
<polygon fill="#cd9b1d" stroke="#cd9b1d" points="129.694,-471.235 133.36,-461.295 124.295,-466.779 129.694,-471.235"/>
</g>
<!-- main.pl&#45;&gt;load_params -->
<g id="edge2" class="edge"><title>main.pl&#45;&gt;load_params</title>
<path fill="none" stroke="blue" d="M33.5169,-534.975C52.1418,-474.123 112.788,-275.976 135.399,-202.102"/>
<polygon fill="blue" stroke="blue" points="138.869,-202.722 138.449,-192.135 132.176,-200.673 138.869,-202.722"/>
</g>
<!-- main.pl&#45;&gt;RegExpMain -->
<g id="edge3" class="edge"><title>main.pl&#45;&gt;RegExpMain</title>
<path fill="none" stroke="#ee0000" d="M54.2917,-567.218C136.863,-610.234 384.495,-739.24 484.952,-791.574"/>
<polygon fill="#ee0000" stroke="#ee0000" points="483.435,-794.73 493.921,-796.246 486.669,-788.522 483.435,-794.73"/>
</g>
<!-- launcher.pl -->
<g id="node37" class="node"><title>launcher.pl</title>
<polygon fill="none" stroke="black" points="249.5,-1355 249.5,-1391 310.5,-1391 310.5,-1355 249.5,-1355"/>
<text text-anchor="middle" x="280" y="-1370.5" font-family="Times New Roman,serif" font-size="10.00">launcher.pl</text>
</g>
<!-- launcher.pl&#45;&gt;getSelect -->
<g id="edge26" class="edge"><title>launcher.pl&#45;&gt;getSelect</title>
<path fill="none" stroke="green" d="M310.6,-1373C327.171,-1373 347.969,-1373 365.538,-1373"/>
<polygon fill="green" stroke="green" points="365.993,-1376.5 375.993,-1373 365.993,-1369.5 365.993,-1376.5"/>
</g>
</g>
</svg>
