<?xml version="1.0" encoding="UTF-8" standalone="no"?>
<!DOCTYPE svg PUBLIC "-//W3C//DTD SVG 1.1//EN"
 "http://www.w3.org/Graphics/SVG/1.1/DTD/svg11.dtd">
<!-- Generated by graphviz version 2.33.20130816.0446 (20130816.0446)
 -->
<!-- Title: %3 Pages: 1 -->
<svg width="552pt" height="1843pt"
 viewBox="0.00 0.00 552.00 1843.00" xmlns="http://www.w3.org/2000/svg" xmlns:xlink="http://www.w3.org/1999/xlink">
<g id="graph0" class="graph" transform="scale(1 1) rotate(0) translate(4 1839)">
<title>%3</title>
<polygon fill="white" stroke="white" points="-4,5 -4,-1839 549,-1839 549,5 -4,5"/>
<g id="clust1" class="cluster"><title>cluster_launcher_pl</title>
<polygon fill="lightgrey" stroke="black" points="330,-1621 330,-1827 522,-1827 522,-1621 330,-1621"/>
<text text-anchor="middle" x="426" y="-1811" font-family="Times New Roman,serif" font-size="15.00">launcher.pl</text>
</g>
<g id="clust2" class="cluster"><title>cluster_lib_hash_pl</title>
<polygon fill="lightgrey" stroke="black" points="90,-885 90,-1239 280,-1239 280,-885 90,-885"/>
<text text-anchor="middle" x="185" y="-1223" font-family="Times New Roman,serif" font-size="15.00">lib_hash.pl</text>
</g>
<g id="clust3" class="cluster"><title>cluster_lib_link_pl</title>
<polygon fill="lightgrey" stroke="black" points="201,-546 201,-680 400,-680 400,-546 201,-546"/>
<text text-anchor="middle" x="300.5" y="-664" font-family="Times New Roman,serif" font-size="15.00">lib_link.pl</text>
</g>
<g id="clust4" class="cluster"><title>cluster_lib_makeGvFile_pl</title>
<polygon fill="lightgrey" stroke="black" points="82,-688 82,-877 287,-877 287,-688 82,-688"/>
<text text-anchor="middle" x="184.5" y="-861" font-family="Times New Roman,serif" font-size="15.00">lib_makeGvFile.pl</text>
</g>
<g id="clust5" class="cluster"><title>cluster_lib_regexp_pl</title>
<polygon fill="lightgrey" stroke="black" points="198,-1247 198,-1588 536,-1588 536,-1247 198,-1247"/>
<text text-anchor="middle" x="367" y="-1572" font-family="Times New Roman,serif" font-size="15.00">lib_regexp.pl</text>
</g>
<g id="clust6" class="cluster"><title>cluster_lib_utils_pl</title>
<polygon fill="lightgrey" stroke="black" points="312,-8 312,-472 529,-472 529,-8 312,-8"/>
<text text-anchor="middle" x="420.5" y="-456" font-family="Times New Roman,serif" font-size="15.00">lib_utils.pl</text>
</g>
<!-- interrupt -->
<g id="node1" class="node"><title>interrupt</title>
<polygon fill="none" stroke="black" points="338,-1757 338,-1793 392,-1793 392,-1757 338,-1757"/>
<text text-anchor="middle" x="365" y="-1772.5" font-family="Times New Roman,serif" font-size="10.00">interrupt</text>
</g>
<!-- envVpn -->
<g id="node2" class="node"><title>envVpn</title>
<polygon fill="none" stroke="black" points="460,-1630 460,-1666 514,-1666 514,-1630 460,-1630"/>
<text text-anchor="middle" x="487" y="-1645.5" font-family="Times New Roman,serif" font-size="10.00">envVpn</text>
</g>
<!-- getSelect -->
<g id="node3" class="node"><title>getSelect</title>
<polygon fill="none" stroke="black" points="338,-1630 338,-1666 392,-1666 392,-1630 338,-1630"/>
<text text-anchor="middle" x="365" y="-1645.5" font-family="Times New Roman,serif" font-size="10.00">getSelect</text>
</g>
<!-- getSelect&#45;&gt;envVpn -->
<g id="edge26" class="edge"><title>getSelect&#45;&gt;envVpn</title>
<path fill="none" stroke="#ee0000" d="M392.038,-1648C408.827,-1648 430.905,-1648 449.441,-1648"/>
<polygon fill="#ee0000" stroke="#ee0000" points="449.598,-1651.5 459.598,-1648 449.598,-1644.5 449.598,-1651.5"/>
</g>
<!-- getSelect&#45;&gt;getSelect -->
<g id="edge25" class="edge"><title>getSelect&#45;&gt;getSelect</title>
<path fill="none" stroke="blue" d="M359.573,-1666.15C358.738,-1675.54 360.547,-1684 365,-1684 367.714,-1684 369.445,-1680.86 370.195,-1676.28"/>
<polygon fill="blue" stroke="blue" points="373.697,-1676.23 370.427,-1666.15 366.699,-1676.07 373.697,-1676.23"/>
</g>
<!-- getSelect&#45;&gt;getSelect -->
<g id="edge27" class="edge"><title>getSelect&#45;&gt;getSelect</title>
<path fill="none" stroke="green" d="M355.903,-1666.26C351.187,-1683.4 354.219,-1702 365,-1702 373.676,-1702 377.333,-1689.96 375.974,-1676.32"/>
<polygon fill="green" stroke="green" points="379.371,-1675.45 374.097,-1666.26 372.49,-1676.73 379.371,-1675.45"/>
</g>
<!-- getSelect&#45;&gt;getSelect -->
<g id="edge29" class="edge"><title>getSelect&#45;&gt;getSelect</title>
<path fill="none" stroke="#8b2252" d="M353.614,-1666.08C343.539,-1690.41 347.334,-1720 365,-1720 380.389,-1720 385.252,-1697.55 379.591,-1675.68"/>
<polygon fill="#8b2252" stroke="#8b2252" points="382.874,-1674.45 376.386,-1666.08 376.234,-1676.67 382.874,-1674.45"/>
</g>
<!-- getSelect&#45;&gt;getSelect -->
<g id="edge30" class="edge"><title>getSelect&#45;&gt;getSelect</title>
<path fill="none" stroke="#8b4513" d="M351.961,-1666.11C335.927,-1697.24 340.273,-1738 365,-1738 387.312,-1738 393.03,-1704.81 382.154,-1675.46"/>
<polygon fill="#8b4513" stroke="#8b4513" points="385.271,-1673.86 378.039,-1666.11 378.864,-1676.68 385.271,-1673.86"/>
</g>
<!-- RegExpMain -->
<g id="node20" class="node"><title>RegExpMain</title>
<polygon fill="none" stroke="black" points="453,-1518 453,-1554 521,-1554 521,-1518 453,-1518"/>
<text text-anchor="middle" x="487" y="-1533.5" font-family="Times New Roman,serif" font-size="10.00">RegExpMain</text>
</g>
<!-- getSelect&#45;&gt;RegExpMain -->
<g id="edge24" class="edge"><title>getSelect&#45;&gt;RegExpMain</title>
<path fill="none" stroke="black" d="M380.475,-1629.91C398.285,-1611.06 429.077,-1581.81 452.817,-1560.86"/>
<polygon fill="black" stroke="black" points="455.331,-1563.31 460.568,-1554.1 450.731,-1558.04 455.331,-1563.31"/>
</g>
<!-- getSelect&#45;&gt;RegExpMain -->
<g id="edge28" class="edge"><title>getSelect&#45;&gt;RegExpMain</title>
<path fill="none" stroke="#473c8b" d="M391.449,-1629.88C413.14,-1611.22 443.97,-1582.34 464.458,-1561.43"/>
<polygon fill="#473c8b" stroke="#473c8b" points="467.085,-1563.75 471.503,-1554.12 462.044,-1558.89 467.085,-1563.75"/>
</g>
<!-- initNode -->
<g id="node4" class="node"><title>initNode</title>
<polygon fill="none" stroke="black" points="218,-949 218,-985 272,-985 272,-949 218,-949"/>
<text text-anchor="middle" x="245" y="-964.5" font-family="Times New Roman,serif" font-size="10.00">initNode</text>
</g>
<!-- initLegende -->
<g id="node5" class="node"><title>initLegende</title>
<polygon fill="none" stroke="black" points="98,-894 98,-930 162,-930 162,-894 98,-894"/>
<text text-anchor="middle" x="130" y="-909.5" font-family="Times New Roman,serif" font-size="10.00">initLegende</text>
</g>
<!-- initLegende&#45;&gt;initNode -->
<g id="edge32" class="edge"><title>initLegende&#45;&gt;initNode</title>
<path fill="none" stroke="black" d="M162.177,-921.067C176.892,-927.43 194.496,-935.945 209.599,-943.988"/>
<polygon fill="black" stroke="black" points="208.176,-947.198 218.632,-948.911 211.527,-941.052 208.176,-947.198"/>
</g>
<!-- initLegende&#45;&gt;initNode -->
<g id="edge33" class="edge"><title>initLegende&#45;&gt;initNode</title>
<path fill="none" stroke="blue" d="M156.359,-930.084C171.699,-938.661 191.492,-948.488 208.385,-955.988"/>
<polygon fill="blue" stroke="blue" points="207.373,-959.362 217.941,-960.107 210.144,-952.934 207.373,-959.362"/>
</g>
<!-- set_sched -->
<g id="node6" class="node"><title>set_sched</title>
<polygon fill="none" stroke="black" points="101,-1004 101,-1040 159,-1040 159,-1004 101,-1004"/>
<text text-anchor="middle" x="130" y="-1019.5" font-family="Times New Roman,serif" font-size="10.00">set_sched</text>
</g>
<!-- set_sched&#45;&gt;initNode -->
<g id="edge34" class="edge"><title>set_sched&#45;&gt;initNode</title>
<path fill="none" stroke="#ee0000" d="M159.223,-1008.26C174.196,-1000.98 192.739,-991.95 208.661,-984.2"/>
<polygon fill="#ee0000" stroke="#ee0000" points="210.226,-987.331 217.686,-979.808 207.163,-981.037 210.226,-987.331"/>
</g>
<!-- regexpSwitcher -->
<g id="node19" class="node"><title>regexpSwitcher</title>
<polygon fill="none" stroke="black" points="206.5,-1330 206.5,-1366 283.5,-1366 283.5,-1330 206.5,-1330"/>
<text text-anchor="middle" x="245" y="-1345.5" font-family="Times New Roman,serif" font-size="10.00">regexpSwitcher</text>
</g>
<!-- set_sched&#45;&gt;regexpSwitcher -->
<g id="edge35" class="edge"><title>set_sched&#45;&gt;regexpSwitcher</title>
<path fill="none" stroke="green" d="M138.59,-1040.3C158.928,-1094.82 214.541,-1255.21 235.689,-1320.28"/>
<polygon fill="green" stroke="green" points="232.381,-1321.43 238.776,-1329.88 239.045,-1319.29 232.381,-1321.43"/>
</g>
<!-- set_sched&#45;&gt;regexpSwitcher -->
<g id="edge36" class="edge"><title>set_sched&#45;&gt;regexpSwitcher</title>
<path fill="none" stroke="#473c8b" d="M136.299,-1040.36C153.653,-1094.91 209.035,-1255.07 232.893,-1320.18"/>
<polygon fill="#473c8b" stroke="#473c8b" points="229.692,-1321.61 236.44,-1329.78 236.258,-1319.19 229.692,-1321.61"/>
</g>
<!-- set_jobs -->
<g id="node7" class="node"><title>set_jobs</title>
<polygon fill="none" stroke="black" points="103,-1114 103,-1150 157,-1150 157,-1114 103,-1114"/>
<text text-anchor="middle" x="130" y="-1129.5" font-family="Times New Roman,serif" font-size="10.00">set_jobs</text>
</g>
<!-- set_jobs&#45;&gt;initNode -->
<g id="edge39" class="edge"><title>set_jobs&#45;&gt;initNode</title>
<path fill="none" stroke="darkorange" d="M143.525,-1113.71C163.517,-1084.52 202.732,-1027.26 225.815,-993.553"/>
<polygon fill="darkorange" stroke="darkorange" points="228.829,-995.347 231.591,-985.119 223.053,-991.392 228.829,-995.347"/>
</g>
<!-- set_jobs&#45;&gt;RegExpMain -->
<g id="edge37" class="edge"><title>set_jobs&#45;&gt;RegExpMain</title>
<path fill="none" stroke="#8b2252" d="M148.942,-1150.19C210.292,-1214.98 403.236,-1433.29 466.609,-1509.57"/>
<polygon fill="#8b2252" stroke="#8b2252" points="464.282,-1512.25 473.344,-1517.74 469.684,-1507.8 464.282,-1512.25"/>
</g>
<!-- set_jobs&#45;&gt;RegExpMain -->
<g id="edge38" class="edge"><title>set_jobs&#45;&gt;RegExpMain</title>
<path fill="none" stroke="#8b4513" d="M143.559,-1150.14C196.523,-1215.01 390.011,-1434.29 460.816,-1510.1"/>
<polygon fill="#8b4513" stroke="#8b4513" points="458.655,-1512.91 468.054,-1517.8 463.756,-1508.12 458.655,-1512.91"/>
</g>
<!-- set_next -->
<g id="node8" class="node"><title>set_next</title>
<polygon fill="none" stroke="black" points="103,-949 103,-985 157,-985 157,-949 103,-949"/>
<text text-anchor="middle" x="130" y="-964.5" font-family="Times New Roman,serif" font-size="10.00">set_next</text>
</g>
<!-- set_next&#45;&gt;initNode -->
<g id="edge40" class="edge"><title>set_next&#45;&gt;initNode</title>
<path fill="none" stroke="#cd9b1d" d="M157.208,-961.199C172.184,-960.158 191.19,-959.973 207.596,-960.645"/>
<polygon fill="#cd9b1d" stroke="#cd9b1d" points="207.758,-964.159 217.934,-961.209 208.139,-957.169 207.758,-964.159"/>
</g>
<!-- set_next&#45;&gt;initNode -->
<g id="edge41" class="edge"><title>set_next&#45;&gt;initNode</title>
<path fill="none" stroke="#cd1076" d="M157.208,-972.801C172.184,-973.842 191.19,-974.027 207.596,-973.355"/>
<polygon fill="#cd1076" stroke="#cd1076" points="208.139,-976.831 217.934,-972.791 207.758,-969.841 208.139,-976.831"/>
</g>
<!-- set_conf -->
<g id="node9" class="node"><title>set_conf</title>
<polygon fill="none" stroke="black" points="103,-1059 103,-1095 157,-1095 157,-1059 103,-1059"/>
<text text-anchor="middle" x="130" y="-1074.5" font-family="Times New Roman,serif" font-size="10.00">set_conf</text>
</g>
<!-- set_conf&#45;&gt;initNode -->
<g id="edge43" class="edge"><title>set_conf&#45;&gt;initNode</title>
<path fill="none" stroke="black" d="M149.66,-1058.84C168.307,-1040.68 197.131,-1012.62 218.012,-992.298"/>
<polygon fill="black" stroke="black" points="220.588,-994.675 225.313,-985.191 215.706,-989.659 220.588,-994.675"/>
</g>
<!-- set_conf&#45;&gt;regexpSwitcher -->
<g id="edge44" class="edge"><title>set_conf&#45;&gt;regexpSwitcher</title>
<path fill="none" stroke="blue" d="M138.59,-1095.2C157.969,-1141.68 209.374,-1264.96 232.474,-1320.36"/>
<polygon fill="blue" stroke="blue" points="229.364,-1321.99 236.443,-1329.88 235.825,-1319.3 229.364,-1321.99"/>
</g>
<!-- splitLine -->
<g id="node25" class="node"><title>splitLine</title>
<polygon fill="none" stroke="black" points="338,-1518 338,-1554 392,-1554 392,-1518 338,-1518"/>
<text text-anchor="middle" x="365" y="-1533.5" font-family="Times New Roman,serif" font-size="10.00">splitLine</text>
</g>
<!-- set_conf&#45;&gt;splitLine -->
<g id="edge42" class="edge"><title>set_conf&#45;&gt;splitLine</title>
<path fill="none" stroke="#838b8b" d="M139.357,-1095.28C175.689,-1166.24 307.532,-1423.75 350.995,-1508.65"/>
<polygon fill="#838b8b" stroke="#838b8b" points="347.943,-1510.37 355.616,-1517.67 354.174,-1507.17 347.943,-1510.37"/>
</g>
<!-- setCluster -->
<g id="node10" class="node"><title>setCluster</title>
<polygon fill="none" stroke="black" points="101.5,-1169 101.5,-1205 158.5,-1205 158.5,-1169 101.5,-1169"/>
<text text-anchor="middle" x="130" y="-1184.5" font-family="Times New Roman,serif" font-size="10.00">setCluster</text>
</g>
<!-- set_link_after -->
<g id="node11" class="node"><title>set_link_after</title>
<polygon fill="none" stroke="black" points="209.5,-555 209.5,-591 280.5,-591 280.5,-555 209.5,-555"/>
<text text-anchor="middle" x="245" y="-570.5" font-family="Times New Roman,serif" font-size="10.00">set_link_after</text>
</g>
<!-- makeLink -->
<g id="node13" class="node"><title>makeLink</title>
<polygon fill="none" stroke="black" points="338,-610 338,-646 392,-646 392,-610 338,-610"/>
<text text-anchor="middle" x="365" y="-625.5" font-family="Times New Roman,serif" font-size="10.00">makeLink</text>
</g>
<!-- set_link_after&#45;&gt;makeLink -->
<g id="edge46" class="edge"><title>set_link_after&#45;&gt;makeLink</title>
<path fill="none" stroke="blue" d="M280.766,-589.204C295.854,-596.237 313.501,-604.462 328.653,-611.525"/>
<polygon fill="blue" stroke="blue" points="327.178,-614.699 337.72,-615.751 330.135,-608.354 327.178,-614.699"/>
</g>
<!-- sort_unique_hash -->
<g id="node29" class="node"><title>sort_unique_hash</title>
<polygon fill="none" stroke="black" points="320,-402 320,-438 410,-438 410,-402 320,-402"/>
<text text-anchor="middle" x="365" y="-417.5" font-family="Times New Roman,serif" font-size="10.00">sort_unique_hash</text>
</g>
<!-- set_link_after&#45;&gt;sort_unique_hash -->
<g id="edge45" class="edge"><title>set_link_after&#45;&gt;sort_unique_hash</title>
<path fill="none" stroke="black" d="M260,-554.848C280.758,-527.932 319.815,-477.291 343.709,-446.309"/>
<polygon fill="black" stroke="black" points="346.683,-448.184 350.019,-438.128 341.14,-443.909 346.683,-448.184"/>
</g>
<!-- set_links -->
<g id="node12" class="node"><title>set_links</title>
<polygon fill="none" stroke="black" points="218,-610 218,-646 272,-646 272,-610 218,-610"/>
<text text-anchor="middle" x="245" y="-625.5" font-family="Times New Roman,serif" font-size="10.00">set_links</text>
</g>
<!-- set_links&#45;&gt;makeLink -->
<g id="edge47" class="edge"><title>set_links&#45;&gt;makeLink</title>
<path fill="none" stroke="#ee0000" d="M272.188,-616.56C288.534,-614.261 309.808,-613.886 327.761,-615.436"/>
<polygon fill="#ee0000" stroke="#ee0000" points="327.558,-618.935 337.885,-616.57 328.337,-611.978 327.558,-618.935"/>
</g>
<!-- set_links&#45;&gt;makeLink -->
<g id="edge48" class="edge"><title>set_links&#45;&gt;makeLink</title>
<path fill="none" stroke="green" d="M272.188,-628C288.534,-628 309.808,-628 327.761,-628"/>
<polygon fill="green" stroke="green" points="327.885,-631.5 337.885,-628 327.885,-624.5 327.885,-631.5"/>
</g>
<!-- set_links&#45;&gt;makeLink -->
<g id="edge49" class="edge"><title>set_links&#45;&gt;makeLink</title>
<path fill="none" stroke="#473c8b" d="M272.188,-639.44C288.534,-641.739 309.808,-642.114 327.761,-640.564"/>
<polygon fill="#473c8b" stroke="#473c8b" points="328.337,-644.022 337.885,-639.43 327.558,-637.065 328.337,-644.022"/>
</g>
<!-- setInNode -->
<g id="node14" class="node"><title>setInNode</title>
<polygon fill="none" stroke="black" points="215.5,-807 215.5,-843 274.5,-843 274.5,-807 215.5,-807"/>
<text text-anchor="middle" x="245" y="-822.5" font-family="Times New Roman,serif" font-size="10.00">setInNode</text>
</g>
<!-- addBrLine -->
<g id="node26" class="node"><title>addBrLine</title>
<polygon fill="none" stroke="black" points="336,-1256 336,-1292 394,-1292 394,-1256 336,-1256"/>
<text text-anchor="middle" x="365" y="-1271.5" font-family="Times New Roman,serif" font-size="10.00">addBrLine</text>
</g>
<!-- setInNode&#45;&gt;addBrLine -->
<g id="edge50" class="edge"><title>setInNode&#45;&gt;addBrLine</title>
<path fill="none" stroke="black" d="M250.772,-843.157C269.007,-912.542 334.37,-1161.26 356.565,-1245.71"/>
<polygon fill="black" stroke="black" points="353.242,-1246.83 359.169,-1255.62 360.012,-1245.06 353.242,-1246.83"/>
</g>
<!-- setInfoNode -->
<g id="node15" class="node"><title>setInfoNode</title>
<polygon fill="none" stroke="black" points="211.5,-752 211.5,-788 278.5,-788 278.5,-752 211.5,-752"/>
<text text-anchor="middle" x="245" y="-767.5" font-family="Times New Roman,serif" font-size="10.00">setInfoNode</text>
</g>
<!-- setInfoNode&#45;&gt;makeLink -->
<g id="edge53" class="edge"><title>setInfoNode&#45;&gt;makeLink</title>
<path fill="none" stroke="green" d="M261.185,-751.727C281.807,-726.911 318.789,-682.406 342.325,-654.083"/>
<polygon fill="green" stroke="green" points="345.174,-656.131 348.873,-646.203 339.79,-651.657 345.174,-656.131"/>
</g>
<!-- re_del_noAlpha -->
<g id="node24" class="node"><title>re_del_noAlpha</title>
<polygon fill="none" stroke="black" points="446,-1415 446,-1451 528,-1451 528,-1415 446,-1415"/>
<text text-anchor="middle" x="487" y="-1430.5" font-family="Times New Roman,serif" font-size="10.00">re_del_noAlpha</text>
</g>
<!-- setInfoNode&#45;&gt;re_del_noAlpha -->
<g id="edge51" class="edge"><title>setInfoNode&#45;&gt;re_del_noAlpha</title>
<path fill="none" stroke="blue" d="M251.598,-788.077C285.096,-879.85 436.322,-1294.16 476.934,-1405.42"/>
<polygon fill="blue" stroke="blue" points="473.691,-1406.74 480.407,-1414.94 480.266,-1404.34 473.691,-1406.74"/>
</g>
<!-- setInfoNode&#45;&gt;addBrLine -->
<g id="edge52" class="edge"><title>setInfoNode&#45;&gt;addBrLine</title>
<path fill="none" stroke="#ee0000" d="M250.269,-788.235C267.996,-863.947 335.866,-1153.84 357.402,-1245.82"/>
<polygon fill="#ee0000" stroke="#ee0000" points="354.049,-1246.85 359.736,-1255.79 360.864,-1245.25 354.049,-1246.85"/>
</g>
<!-- buildNodes -->
<g id="node16" class="node"><title>buildNodes</title>
<polygon fill="none" stroke="black" points="98.5,-807 98.5,-843 161.5,-843 161.5,-807 98.5,-807"/>
<text text-anchor="middle" x="130" y="-822.5" font-family="Times New Roman,serif" font-size="10.00">buildNodes</text>
</g>
<!-- buildNodes&#45;&gt;setInNode -->
<g id="edge54" class="edge"><title>buildNodes&#45;&gt;setInNode</title>
<path fill="none" stroke="#473c8b" d="M161.579,-825C175.044,-825 191.016,-825 205.298,-825"/>
<polygon fill="#473c8b" stroke="#473c8b" points="205.339,-828.5 215.339,-825 205.339,-821.5 205.339,-828.5"/>
</g>
<!-- buildNodes&#45;&gt;setInfoNode -->
<g id="edge55" class="edge"><title>buildNodes&#45;&gt;setInfoNode</title>
<path fill="none" stroke="#8b2252" d="M161.579,-810.116C174.113,-804.016 188.818,-796.858 202.312,-790.291"/>
<polygon fill="#8b2252" stroke="#8b2252" points="203.958,-793.382 211.418,-785.859 200.894,-787.088 203.958,-793.382"/>
</g>
<!-- setClusterColor -->
<g id="node17" class="node"><title>setClusterColor</title>
<polygon fill="none" stroke="black" points="90.5,-697 90.5,-733 169.5,-733 169.5,-697 90.5,-697"/>
<text text-anchor="middle" x="130" y="-712.5" font-family="Times New Roman,serif" font-size="10.00">setClusterColor</text>
</g>
<!-- writeVgFile -->
<g id="node18" class="node"><title>writeVgFile</title>
<polygon fill="none" stroke="black" points="99,-752 99,-788 161,-788 161,-752 99,-752"/>
<text text-anchor="middle" x="130" y="-767.5" font-family="Times New Roman,serif" font-size="10.00">writeVgFile</text>
</g>
<!-- writeVgFile&#45;&gt;sort_unique_hash -->
<g id="edge57" class="edge"><title>writeVgFile&#45;&gt;sort_unique_hash</title>
<path fill="none" stroke="darkorange" d="M142.304,-751.675C181.168,-693.793 301.425,-514.687 347.127,-446.619"/>
<polygon fill="darkorange" stroke="darkorange" points="350.149,-448.397 352.818,-438.143 344.338,-444.495 350.149,-448.397"/>
</g>
<!-- _add_carac -->
<g id="node36" class="node"><title>_add_carac</title>
<polygon fill="none" stroke="black" points="333.5,-347 333.5,-383 396.5,-383 396.5,-347 333.5,-347"/>
<text text-anchor="middle" x="365" y="-362.5" font-family="Times New Roman,serif" font-size="10.00">_add_carac</text>
</g>
<!-- writeVgFile&#45;&gt;_add_carac -->
<g id="edge56" class="edge"><title>writeVgFile&#45;&gt;_add_carac</title>
<path fill="none" stroke="#8b4513" d="M140.554,-751.811C177.982,-687.308 304.509,-469.251 349.203,-392.225"/>
<polygon fill="#8b4513" stroke="#8b4513" points="352.484,-393.545 354.475,-383.139 346.429,-390.031 352.484,-393.545"/>
</g>
<!-- re_freq -->
<g id="node21" class="node"><title>re_freq</title>
<polygon fill="none" stroke="black" points="338,-1311 338,-1347 392,-1347 392,-1311 338,-1311"/>
<text text-anchor="middle" x="365" y="-1326.5" font-family="Times New Roman,serif" font-size="10.00">re_freq</text>
</g>
<!-- regexpSwitcher&#45;&gt;re_freq -->
<g id="edge59" class="edge"><title>regexpSwitcher&#45;&gt;re_freq</title>
<path fill="none" stroke="blue" d="M283.66,-1341.94C297.742,-1339.67 313.699,-1337.1 327.659,-1334.85"/>
<polygon fill="blue" stroke="blue" points="328.565,-1338.25 337.882,-1333.21 327.452,-1331.34 328.565,-1338.25"/>
</g>
<!-- re_opens -->
<g id="node22" class="node"><title>re_opens</title>
<polygon fill="none" stroke="black" points="338,-1387 338,-1423 392,-1423 392,-1387 338,-1387"/>
<text text-anchor="middle" x="365" y="-1402.5" font-family="Times New Roman,serif" font-size="10.00">re_opens</text>
</g>
<!-- regexpSwitcher&#45;&gt;re_opens -->
<g id="edge60" class="edge"><title>regexpSwitcher&#45;&gt;re_opens</title>
<path fill="none" stroke="#ee0000" d="M283.336,-1366.04C297.847,-1373.04 314.39,-1381.04 328.7,-1387.95"/>
<polygon fill="#ee0000" stroke="#ee0000" points="327.212,-1391.12 337.739,-1392.31 330.257,-1384.81 327.212,-1391.12"/>
</g>
<!-- re_at -->
<g id="node23" class="node"><title>re_at</title>
<polygon fill="none" stroke="black" points="338,-1463 338,-1499 392,-1499 392,-1463 338,-1463"/>
<text text-anchor="middle" x="365" y="-1478.5" font-family="Times New Roman,serif" font-size="10.00">re_at</text>
</g>
<!-- regexpSwitcher&#45;&gt;re_at -->
<g id="edge61" class="edge"><title>regexpSwitcher&#45;&gt;re_at</title>
<path fill="none" stroke="green" d="M262.16,-1366.21C282.524,-1389.17 317.661,-1428.77 340.867,-1454.93"/>
<polygon fill="green" stroke="green" points="338.402,-1457.42 347.657,-1462.58 343.638,-1452.78 338.402,-1457.42"/>
</g>
<!-- regexpSwitcher&#45;&gt;re_del_noAlpha -->
<g id="edge58" class="edge"><title>regexpSwitcher&#45;&gt;re_del_noAlpha</title>
<path fill="none" stroke="black" d="M283.613,-1361.56C324.888,-1376.06 390.52,-1399.11 436.016,-1415.09"/>
<polygon fill="black" stroke="black" points="435.094,-1418.48 445.689,-1418.49 437.414,-1411.87 435.094,-1418.48"/>
</g>
<!-- trim -->
<g id="node27" class="node"><title>trim</title>
<polygon fill="none" stroke="black" points="460,-1354 460,-1390 514,-1390 514,-1354 460,-1354"/>
<text text-anchor="middle" x="487" y="-1369.5" font-family="Times New Roman,serif" font-size="10.00">trim</text>
</g>
<!-- regexpSwitcher&#45;&gt;trim -->
<g id="edge62" class="edge"><title>regexpSwitcher&#45;&gt;trim</title>
<path fill="none" stroke="#473c8b" d="M283.613,-1351.83C329.199,-1356.35 404.497,-1363.82 449.564,-1368.29"/>
<polygon fill="#473c8b" stroke="#473c8b" points="449.492,-1371.8 459.789,-1369.3 450.183,-1364.83 449.492,-1371.8"/>
</g>
<!-- re_opens&#45;&gt;re_del_noAlpha -->
<g id="edge65" class="edge"><title>re_opens&#45;&gt;re_del_noAlpha</title>
<path fill="none" stroke="darkorange" d="M392.038,-1411.08C404.931,-1414.08 420.942,-1417.82 436.074,-1421.35"/>
<polygon fill="darkorange" stroke="darkorange" points="435.315,-1424.77 445.849,-1423.63 436.906,-1417.95 435.315,-1424.77"/>
</g>
<!-- re_opens&#45;&gt;trim -->
<g id="edge63" class="edge"><title>re_opens&#45;&gt;trim</title>
<path fill="none" stroke="#8b2252" d="M392.038,-1392.16C408.905,-1386.32 431.11,-1380.02 449.7,-1375.72"/>
<polygon fill="#8b2252" stroke="#8b2252" points="450.578,-1379.11 459.598,-1373.56 449.081,-1372.28 450.578,-1379.11"/>
</g>
<!-- re_opens&#45;&gt;trim -->
<g id="edge64" class="edge"><title>re_opens&#45;&gt;trim</title>
<path fill="none" stroke="#8b4513" d="M392.038,-1403.52C408.983,-1400.06 431.316,-1394.11 449.958,-1388.16"/>
<polygon fill="#8b4513" stroke="#8b4513" points="451.206,-1391.43 459.598,-1384.96 449.005,-1384.79 451.206,-1391.43"/>
</g>
<!-- splitLine&#45;&gt;RegExpMain -->
<g id="edge67" class="edge"><title>splitLine&#45;&gt;RegExpMain</title>
<path fill="none" stroke="#cd1076" d="M392.038,-1524.64C406.766,-1522.55 425.564,-1521.99 442.471,-1522.96"/>
<polygon fill="#cd1076" stroke="#cd1076" points="442.457,-1526.47 452.7,-1523.77 443.005,-1519.49 442.457,-1526.47"/>
</g>
<!-- splitLine&#45;&gt;RegExpMain -->
<g id="edge68" class="edge"><title>splitLine&#45;&gt;RegExpMain</title>
<path fill="none" stroke="#838b8b" d="M392.038,-1536C406.766,-1536 425.564,-1536 442.471,-1536"/>
<polygon fill="#838b8b" stroke="#838b8b" points="442.7,-1539.5 452.7,-1536 442.7,-1532.5 442.7,-1539.5"/>
</g>
<!-- splitLine&#45;&gt;RegExpMain -->
<g id="edge69" class="edge"><title>splitLine&#45;&gt;RegExpMain</title>
<path fill="none" stroke="black" d="M392.038,-1547.36C406.766,-1549.45 425.564,-1550.01 442.471,-1549.04"/>
<polygon fill="black" stroke="black" points="443.005,-1552.51 452.7,-1548.23 442.457,-1545.53 443.005,-1552.51"/>
</g>
<!-- splitLine&#45;&gt;re_del_noAlpha -->
<g id="edge66" class="edge"><title>splitLine&#45;&gt;re_del_noAlpha</title>
<path fill="none" stroke="#cd9b1d" d="M387.177,-1517.82C406.508,-1501.23 435.26,-1476.55 456.774,-1458.09"/>
<polygon fill="#cd9b1d" stroke="#cd9b1d" points="459.322,-1460.51 464.631,-1451.34 454.763,-1455.2 459.322,-1460.51"/>
</g>
<!-- addBrLine&#45;&gt;RegExpMain -->
<g id="edge70" class="edge"><title>addBrLine&#45;&gt;RegExpMain</title>
<path fill="none" stroke="blue" d="M374.248,-1292.01C394.886,-1337.07 448.858,-1454.91 473.458,-1508.62"/>
<polygon fill="blue" stroke="blue" points="470.348,-1510.23 477.694,-1517.87 476.712,-1507.32 470.348,-1510.23"/>
</g>
<!-- cDate -->
<g id="node28" class="node"><title>cDate</title>
<polygon fill="none" stroke="black" points="338,-292 338,-328 392,-328 392,-292 338,-292"/>
<text text-anchor="middle" x="365" y="-307.5" font-family="Times New Roman,serif" font-size="10.00">cDate</text>
</g>
<!-- checkEnv -->
<g id="node30" class="node"><title>checkEnv</title>
<polygon fill="none" stroke="black" points="337,-237 337,-273 393,-273 393,-237 337,-237"/>
<text text-anchor="middle" x="365" y="-252.5" font-family="Times New Roman,serif" font-size="10.00">checkEnv</text>
</g>
<!-- setConvertFreq -->
<g id="node31" class="node"><title>setConvertFreq</title>
<polygon fill="none" stroke="black" points="325.5,-182 325.5,-218 404.5,-218 404.5,-182 325.5,-182"/>
<text text-anchor="middle" x="365" y="-197.5" font-family="Times New Roman,serif" font-size="10.00">setConvertFreq</text>
</g>
<!-- setConvertFreq&#45;&gt;RegExpMain -->
<g id="edge71" class="edge"><title>setConvertFreq&#45;&gt;RegExpMain</title>
<path fill="none" stroke="black" d="M367.789,-218.112C381.369,-362.796 468.061,-1327.88 483.613,-1507.35"/>
<polygon fill="black" stroke="black" points="480.148,-1507.91 484.495,-1517.57 487.122,-1507.31 480.148,-1507.91"/>
</g>
<!-- setConvertFreq&#45;&gt;RegExpMain -->
<g id="edge72" class="edge"><title>setConvertFreq&#45;&gt;RegExpMain</title>
<path fill="none" stroke="blue" d="M367.474,-218.061C379.872,-362.697 466.702,-1329.59 483.271,-1507.83"/>
<polygon fill="blue" stroke="blue" points="479.804,-1508.34 484.218,-1517.97 486.774,-1507.69 479.804,-1508.34"/>
</g>
<!-- load_params -->
<g id="node32" class="node"><title>load_params</title>
<polygon fill="none" stroke="black" points="331,-127 331,-163 399,-163 399,-127 331,-127"/>
<text text-anchor="middle" x="365" y="-142.5" font-family="Times New Roman,serif" font-size="10.00">load_params</text>
</g>
<!-- dumperHash -->
<g id="node33" class="node"><title>dumperHash</title>
<polygon fill="none" stroke="black" points="453,-72 453,-108 521,-108 521,-72 453,-72"/>
<text text-anchor="middle" x="487" y="-87.5" font-family="Times New Roman,serif" font-size="10.00">dumperHash</text>
</g>
<!-- writeLog -->
<g id="node34" class="node"><title>writeLog</title>
<polygon fill="none" stroke="black" points="338,-72 338,-108 392,-108 392,-72 338,-72"/>
<text text-anchor="middle" x="365" y="-87.5" font-family="Times New Roman,serif" font-size="10.00">writeLog</text>
</g>
<!-- writeLog&#45;&gt;dumperHash -->
<g id="edge73" class="edge"><title>writeLog&#45;&gt;dumperHash</title>
<path fill="none" stroke="#ee0000" d="M380.237,-71.7819C400.644,-61.4325 438.442,-60.2306 462.888,-68.1762"/>
<polygon fill="#ee0000" stroke="#ee0000" points="461.572,-71.4194 472.152,-71.9813 464.232,-64.9443 461.572,-71.4194"/>
</g>
<!-- writeLog&#45;&gt;dumperHash -->
<g id="edge74" class="edge"><title>writeLog&#45;&gt;dumperHash</title>
<path fill="none" stroke="green" d="M392.038,-78.6432C406.766,-76.5505 425.564,-75.9904 442.471,-76.9627"/>
<polygon fill="green" stroke="green" points="442.457,-80.4723 452.7,-77.7661 443.005,-73.4937 442.457,-80.4723"/>
</g>
<!-- writeLog&#45;&gt;dumperHash -->
<g id="edge75" class="edge"><title>writeLog&#45;&gt;dumperHash</title>
<path fill="none" stroke="#473c8b" d="M392.038,-90C406.766,-90 425.564,-90 442.471,-90"/>
<polygon fill="#473c8b" stroke="#473c8b" points="442.7,-93.5001 452.7,-90 442.7,-86.5001 442.7,-93.5001"/>
</g>
<!-- writeLog&#45;&gt;dumperHash -->
<g id="edge76" class="edge"><title>writeLog&#45;&gt;dumperHash</title>
<path fill="none" stroke="#8b2252" d="M392.038,-101.357C406.766,-103.449 425.564,-104.01 442.471,-103.037"/>
<polygon fill="#8b2252" stroke="#8b2252" points="443.005,-106.506 452.7,-102.234 442.457,-99.5277 443.005,-106.506"/>
</g>
<!-- writeLog&#45;&gt;dumperHash -->
<g id="edge77" class="edge"><title>writeLog&#45;&gt;dumperHash</title>
<path fill="none" stroke="#8b4513" d="M380.237,-108.218C400.644,-118.567 438.442,-119.769 462.888,-111.824"/>
<polygon fill="#8b4513" stroke="#8b4513" points="464.232,-115.056 472.152,-108.019 461.572,-108.581 464.232,-115.056"/>
</g>
<!-- makeXlsFile -->
<g id="node35" class="node"><title>makeXlsFile</title>
<polygon fill="none" stroke="black" points="332.5,-17 332.5,-53 397.5,-53 397.5,-17 332.5,-17"/>
<text text-anchor="middle" x="365" y="-32.5" font-family="Times New Roman,serif" font-size="10.00">makeXlsFile</text>
</g>
<!-- main.pl -->
<g id="node37" class="node"><title>main.pl</title>
<polygon fill="none" stroke="black" points="0,-752 0,-788 54,-788 54,-752 0,-752"/>
<text text-anchor="middle" x="27" y="-767.5" font-family="Times New Roman,serif" font-size="10.00">main.pl</text>
</g>
<!-- main.pl&#45;&gt;initLegende -->
<g id="edge10" class="edge"><title>main.pl&#45;&gt;initLegende</title>
<path fill="none" stroke="#cd1076" d="M40.9972,-788.273C58.5724,-812.983 90.0311,-857.212 110.188,-885.551"/>
<polygon fill="#cd1076" stroke="#cd1076" points="107.404,-887.676 116.053,-893.797 113.109,-883.619 107.404,-887.676"/>
</g>
<!-- main.pl&#45;&gt;set_sched -->
<g id="edge8" class="edge"><title>main.pl&#45;&gt;set_sched</title>
<path fill="none" stroke="darkorange" d="M35.2637,-788.123C52.6918,-831.607 96.9761,-942.099 117.824,-994.116"/>
<polygon fill="darkorange" stroke="darkorange" points="114.697,-995.722 121.666,-1003.7 121.195,-993.118 114.697,-995.722"/>
</g>
<!-- main.pl&#45;&gt;set_jobs -->
<g id="edge6" class="edge"><title>main.pl&#45;&gt;set_jobs</title>
<path fill="none" stroke="#8b2252" d="M33.1475,-788.449C49.6272,-847.515 101.169,-1032.25 121.059,-1103.54"/>
<polygon fill="#8b2252" stroke="#8b2252" points="117.804,-1104.9 123.863,-1113.59 124.547,-1103.02 117.804,-1104.9"/>
</g>
<!-- main.pl&#45;&gt;set_next -->
<g id="edge12" class="edge"><title>main.pl&#45;&gt;set_next</title>
<path fill="none" stroke="black" d="M37.3208,-788.18C55.1337,-822.924 94.0969,-898.922 115.034,-939.759"/>
<polygon fill="black" stroke="black" points="112.025,-941.562 119.702,-948.864 118.254,-938.368 112.025,-941.562"/>
</g>
<!-- main.pl&#45;&gt;set_conf -->
<g id="edge9" class="edge"><title>main.pl&#45;&gt;set_conf</title>
<path fill="none" stroke="#cd9b1d" d="M34.0155,-788.285C50.997,-839.902 99.3891,-986.995 119.771,-1048.95"/>
<polygon fill="#cd9b1d" stroke="#cd9b1d" points="116.566,-1050.41 123.016,-1058.81 123.215,-1048.22 116.566,-1050.41"/>
</g>
<!-- main.pl&#45;&gt;setCluster -->
<g id="edge11" class="edge"><title>main.pl&#45;&gt;setCluster</title>
<path fill="none" stroke="#838b8b" d="M32.4048,-788.186C48.3202,-853.896 102.922,-1079.33 122.196,-1158.91"/>
<polygon fill="#838b8b" stroke="#838b8b" points="118.816,-1159.82 124.572,-1168.72 125.62,-1158.18 118.816,-1159.82"/>
</g>
<!-- main.pl&#45;&gt;set_link_after -->
<g id="edge14" class="edge"><title>main.pl&#45;&gt;set_link_after</title>
<path fill="none" stroke="#ee0000" d="M47.1182,-751.82C86.2958,-716.416 172.875,-638.177 217.387,-597.953"/>
<polygon fill="#ee0000" stroke="#ee0000" points="219.858,-600.438 224.93,-591.136 215.164,-595.244 219.858,-600.438"/>
</g>
<!-- main.pl&#45;&gt;set_links -->
<g id="edge15" class="edge"><title>main.pl&#45;&gt;set_links</title>
<path fill="none" stroke="green" d="M54.1691,-752.303C93.3579,-726.776 165.804,-679.587 209.279,-651.268"/>
<polygon fill="green" stroke="green" points="211.363,-654.087 217.832,-645.697 207.542,-648.222 211.363,-654.087"/>
</g>
<!-- main.pl&#45;&gt;buildNodes -->
<g id="edge16" class="edge"><title>main.pl&#45;&gt;buildNodes</title>
<path fill="none" stroke="#473c8b" d="M54.01,-772.187C70.087,-778.772 90.5333,-790.054 106.014,-800.951"/>
<polygon fill="#473c8b" stroke="#473c8b" points="103.934,-803.765 114.044,-806.932 108.115,-798.151 103.934,-803.765"/>
</g>
<!-- main.pl&#45;&gt;buildNodes -->
<g id="edge18" class="edge"><title>main.pl&#45;&gt;buildNodes</title>
<path fill="none" stroke="#8b4513" d="M54.01,-784.164C64.8157,-790.048 77.5951,-797.007 89.5141,-803.498"/>
<polygon fill="#8b4513" stroke="#8b4513" points="87.9578,-806.636 98.414,-808.344 91.3056,-800.488 87.9578,-806.636"/>
</g>
<!-- main.pl&#45;&gt;buildNodes -->
<g id="edge20" class="edge"><title>main.pl&#45;&gt;buildNodes</title>
<path fill="none" stroke="#cd9b1d" d="M42.9029,-788.026C55.0126,-797.652 72.6788,-808.384 88.8615,-816.387"/>
<polygon fill="#cd9b1d" stroke="#cd9b1d" points="87.6256,-819.673 98.1651,-820.754 90.6004,-813.336 87.6256,-819.673"/>
</g>
<!-- main.pl&#45;&gt;setClusterColor -->
<g id="edge13" class="edge"><title>main.pl&#45;&gt;setClusterColor</title>
<path fill="none" stroke="blue" d="M54.01,-755.836C64.064,-750.361 75.8269,-743.956 87.0154,-737.863"/>
<polygon fill="blue" stroke="blue" points="88.7133,-740.924 95.8217,-733.067 85.3656,-734.776 88.7133,-740.924"/>
</g>
<!-- main.pl&#45;&gt;writeVgFile -->
<g id="edge17" class="edge"><title>main.pl&#45;&gt;writeVgFile</title>
<path fill="none" stroke="#8b2252" d="M54.01,-758.024C64.5883,-756.596 77.0581,-756.172 88.7605,-756.751"/>
<polygon fill="#8b2252" stroke="#8b2252" points="88.5419,-760.244 98.7801,-757.518 89.0766,-753.265 88.5419,-760.244"/>
</g>
<!-- main.pl&#45;&gt;writeVgFile -->
<g id="edge19" class="edge"><title>main.pl&#45;&gt;writeVgFile</title>
<path fill="none" stroke="darkorange" d="M54.01,-770C64.5883,-770 77.0581,-770 88.7605,-770"/>
<polygon fill="darkorange" stroke="darkorange" points="88.7801,-773.5 98.7801,-770 88.78,-766.5 88.7801,-773.5"/>
</g>
<!-- main.pl&#45;&gt;writeVgFile -->
<g id="edge21" class="edge"><title>main.pl&#45;&gt;writeVgFile</title>
<path fill="none" stroke="#cd1076" d="M54.01,-781.976C64.5883,-783.404 77.0581,-783.828 88.7605,-783.249"/>
<polygon fill="#cd1076" stroke="#cd1076" points="89.0766,-786.735 98.7801,-782.482 88.5419,-779.756 89.0766,-786.735"/>
</g>
<!-- main.pl&#45;&gt;RegExpMain -->
<g id="edge7" class="edge"><title>main.pl&#45;&gt;RegExpMain</title>
<path fill="none" stroke="#8b4513" d="M37.9171,-788.179C98.9793,-889.861 398.06,-1387.9 470.956,-1509.28"/>
<polygon fill="#8b4513" stroke="#8b4513" points="468.036,-1511.22 476.185,-1517.99 474.037,-1507.62 468.036,-1511.22"/>
</g>
<!-- main.pl&#45;&gt;trim -->
<g id="edge5" class="edge"><title>main.pl&#45;&gt;trim</title>
<path fill="none" stroke="#473c8b" d="M40.7669,-788.017C106.561,-874.121 388.984,-1243.73 466.978,-1345.8"/>
<polygon fill="#473c8b" stroke="#473c8b" points="464.209,-1347.94 473.062,-1353.76 469.772,-1343.69 464.209,-1347.94"/>
</g>
<!-- main.pl&#45;&gt;cDate -->
<g id="edge1" class="edge"><title>main.pl&#45;&gt;cDate</title>
<path fill="none" stroke="black" d="M40.25,-751.967C92.3537,-681.057 283.332,-421.146 345.383,-336.698"/>
<polygon fill="black" stroke="black" points="348.374,-338.539 351.474,-328.408 342.733,-334.394 348.374,-338.539"/>
</g>
<!-- main.pl&#45;&gt;checkEnv -->
<g id="edge2" class="edge"><title>main.pl&#45;&gt;checkEnv</title>
<path fill="none" stroke="blue" d="M38.8314,-751.973C89.3771,-674.958 287.353,-373.308 347.545,-281.595"/>
<polygon fill="blue" stroke="blue" points="350.529,-283.428 353.089,-273.148 344.676,-279.588 350.529,-283.428"/>
</g>
<!-- main.pl&#45;&gt;setConvertFreq -->
<g id="edge4" class="edge"><title>main.pl&#45;&gt;setConvertFreq</title>
<path fill="none" stroke="green" d="M37.6739,-752C86.7007,-669.321 290.406,-325.794 349.106,-226.804"/>
<polygon fill="green" stroke="green" points="352.233,-228.391 354.324,-218.005 346.212,-224.821 352.233,-228.391"/>
</g>
<!-- main.pl&#45;&gt;load_params -->
<g id="edge3" class="edge"><title>main.pl&#45;&gt;load_params</title>
<path fill="none" stroke="#ee0000" d="M36.7512,-751.969C84.4522,-663.764 293.228,-277.715 350.451,-171.903"/>
<polygon fill="#ee0000" stroke="#ee0000" points="353.531,-173.565 355.209,-163.104 347.374,-170.235 353.531,-173.565"/>
</g>
<!-- main.pl&#45;&gt;writeLog -->
<g id="edge23" class="edge"><title>main.pl&#45;&gt;writeLog</title>
<path fill="none" stroke="black" d="M36.0407,-751.812C82.6084,-658.125 295.393,-230.037 351.438,-117.284"/>
<polygon fill="black" stroke="black" points="354.614,-118.757 355.931,-108.245 348.346,-115.642 354.614,-118.757"/>
</g>
<!-- main.pl&#45;&gt;makeXlsFile -->
<g id="edge22" class="edge"><title>main.pl&#45;&gt;makeXlsFile</title>
<path fill="none" stroke="#838b8b" d="M35.3551,-751.831C80.7405,-653.138 297.616,-181.529 352.405,-62.3878"/>
<polygon fill="#838b8b" stroke="#838b8b" points="355.636,-63.7392 356.634,-53.1915 349.276,-60.8146 355.636,-63.7392"/>
</g>
<!-- launcher.pl -->
<g id="node38" class="node"><title>launcher.pl</title>
<polygon fill="none" stroke="black" points="214.5,-1630 214.5,-1666 275.5,-1666 275.5,-1630 214.5,-1630"/>
<text text-anchor="middle" x="245" y="-1645.5" font-family="Times New Roman,serif" font-size="10.00">launcher.pl</text>
</g>
<!-- launcher.pl&#45;&gt;getSelect -->
<g id="edge31" class="edge"><title>launcher.pl&#45;&gt;getSelect</title>
<path fill="none" stroke="darkorange" d="M275.776,-1648C291.458,-1648 310.825,-1648 327.415,-1648"/>
<polygon fill="darkorange" stroke="darkorange" points="327.849,-1651.5 337.849,-1648 327.849,-1644.5 327.849,-1651.5"/>
</g>
</g>
</svg>
