<?xml version="1.0" encoding="UTF-8" standalone="no"?>
<!DOCTYPE svg PUBLIC "-//W3C//DTD SVG 1.1//EN"
 "http://www.w3.org/Graphics/SVG/1.1/DTD/svg11.dtd">
<!-- Generated by graphviz version 2.33.20130816.0446 (20130816.0446)
 -->
<!-- Title: %3 Pages: 1 -->
<svg width="546pt" height="1433pt"
 viewBox="0.00 0.00 546.00 1433.00" xmlns="http://www.w3.org/2000/svg" xmlns:xlink="http://www.w3.org/1999/xlink">
<g id="graph0" class="graph" transform="scale(1 1) rotate(0) translate(4 1429)">
<title>%3</title>
<polygon fill="white" stroke="white" points="-4,5 -4,-1429 543,-1429 543,5 -4,5"/>
<g id="clust1" class="cluster"><title>cluster_launcher_pl</title>
<polygon fill="lightgrey" stroke="black" points="318,-1070 318,-1276 401,-1276 401,-1070 318,-1070"/>
<text text-anchor="middle" x="359.5" y="-1260" font-family="Times New Roman,serif" font-size="15.00">launcher.pl</text>
</g>
<g id="clust2" class="cluster"><title>cluster_lib_hash_pl</title>
<polygon fill="lightgrey" stroke="black" points="90,-1063 90,-1417 277,-1417 277,-1063 90,-1063"/>
<text text-anchor="middle" x="183.5" y="-1401" font-family="Times New Roman,serif" font-size="15.00">lib_hash.pl</text>
</g>
<g id="clust3" class="cluster"><title>cluster_lib_link_pl</title>
<polygon fill="lightgrey" stroke="black" points="198,-546 198,-680 394,-680 394,-546 198,-546"/>
<text text-anchor="middle" x="296" y="-664" font-family="Times New Roman,serif" font-size="15.00">lib_link.pl</text>
</g>
<g id="clust4" class="cluster"><title>cluster_lib_makeGvFile_pl</title>
<polygon fill="lightgrey" stroke="black" points="82,-688 82,-877 284,-877 284,-688 82,-688"/>
<text text-anchor="middle" x="183" y="-861" font-family="Times New Roman,serif" font-size="15.00">lib_makeGvFile.pl</text>
</g>
<g id="clust5" class="cluster"><title>cluster_lib_regexp_pl</title>
<polygon fill="lightgrey" stroke="black" points="312,-708 312,-1062 530,-1062 530,-708 312,-708"/>
<text text-anchor="middle" x="421" y="-1046" font-family="Times New Roman,serif" font-size="15.00">lib_regexp.pl</text>
</g>
<g id="clust6" class="cluster"><title>cluster_lib_utils_pl</title>
<polygon fill="lightgrey" stroke="black" points="306,-8 306,-472 523,-472 523,-8 306,-8"/>
<text text-anchor="middle" x="414.5" y="-456" font-family="Times New Roman,serif" font-size="15.00">lib_utils.pl</text>
</g>
<!-- interrupt -->
<g id="node1" class="node"><title>interrupt</title>
<polygon fill="none" stroke="black" points="332,-1206 332,-1242 386,-1242 386,-1206 332,-1206"/>
<text text-anchor="middle" x="359" y="-1221.5" font-family="Times New Roman,serif" font-size="10.00">interrupt</text>
</g>
<!-- getSelect -->
<g id="node2" class="node"><title>getSelect</title>
<polygon fill="none" stroke="black" points="332,-1079 332,-1115 386,-1115 386,-1079 332,-1079"/>
<text text-anchor="middle" x="359" y="-1094.5" font-family="Times New Roman,serif" font-size="10.00">getSelect</text>
</g>
<!-- getSelect&#45;&gt;getSelect -->
<g id="edge25" class="edge"><title>getSelect&#45;&gt;getSelect</title>
<path fill="none" stroke="blue" d="M353.754,-1115.15C352.947,-1124.54 354.695,-1133 359,-1133 361.623,-1133 363.297,-1129.86 364.022,-1125.28"/>
<polygon fill="blue" stroke="blue" points="367.524,-1125.23 364.246,-1115.15 360.526,-1125.07 367.524,-1125.23"/>
</g>
<!-- getSelect&#45;&gt;getSelect -->
<g id="edge27" class="edge"><title>getSelect&#45;&gt;getSelect</title>
<path fill="none" stroke="green" d="M350.207,-1115.26C345.647,-1132.4 348.578,-1151 359,-1151 367.386,-1151 370.922,-1138.96 369.608,-1125.32"/>
<polygon fill="green" stroke="green" points="373.012,-1124.48 367.793,-1115.26 366.124,-1125.72 373.012,-1124.48"/>
</g>
<!-- getSelect&#45;&gt;getSelect -->
<g id="edge28" class="edge"><title>getSelect&#45;&gt;getSelect</title>
<path fill="none" stroke="#473c8b" d="M347.993,-1115.08C338.254,-1139.41 341.923,-1169 359,-1169 373.876,-1169 378.577,-1146.55 373.105,-1124.68"/>
<polygon fill="#473c8b" stroke="#473c8b" points="376.41,-1123.52 370.007,-1115.08 369.748,-1125.67 376.41,-1123.52"/>
</g>
<!-- getSelect&#45;&gt;getSelect -->
<g id="edge29" class="edge"><title>getSelect&#45;&gt;getSelect</title>
<path fill="none" stroke="#8b2252" d="M346.395,-1115.11C330.896,-1146.24 335.098,-1187 359,-1187 380.568,-1187 386.095,-1153.81 375.582,-1124.46"/>
<polygon fill="#8b2252" stroke="#8b2252" points="378.74,-1122.94 371.605,-1115.11 372.299,-1125.68 378.74,-1122.94"/>
</g>
<!-- RegExpMain -->
<g id="node19" class="node"><title>RegExpMain</title>
<polygon fill="none" stroke="black" points="447,-827 447,-863 515,-863 515,-827 447,-827"/>
<text text-anchor="middle" x="481" y="-842.5" font-family="Times New Roman,serif" font-size="10.00">RegExpMain</text>
</g>
<!-- getSelect&#45;&gt;RegExpMain -->
<g id="edge24" class="edge"><title>getSelect&#45;&gt;RegExpMain</title>
<path fill="none" stroke="black" d="M366.97,-1078.99C385.901,-1035.22 438.599,-924.119 464.804,-872.238"/>
<polygon fill="black" stroke="black" points="467.952,-873.769 469.375,-863.27 461.716,-870.591 467.952,-873.769"/>
</g>
<!-- getSelect&#45;&gt;RegExpMain -->
<g id="edge26" class="edge"><title>getSelect&#45;&gt;RegExpMain</title>
<path fill="none" stroke="#ee0000" d="M370.649,-1078.68C393.282,-1034.74 445.974,-924.106 468.954,-872.307"/>
<polygon fill="#ee0000" stroke="#ee0000" points="472.199,-873.622 473.01,-863.058 465.788,-870.81 472.199,-873.622"/>
</g>
<!-- initNode -->
<g id="node3" class="node"><title>initNode</title>
<polygon fill="none" stroke="black" points="215,-1182 215,-1218 269,-1218 269,-1182 215,-1182"/>
<text text-anchor="middle" x="242" y="-1197.5" font-family="Times New Roman,serif" font-size="10.00">initNode</text>
</g>
<!-- initLegende -->
<g id="node4" class="node"><title>initLegende</title>
<polygon fill="none" stroke="black" points="98,-1182 98,-1218 162,-1218 162,-1182 98,-1182"/>
<text text-anchor="middle" x="130" y="-1197.5" font-family="Times New Roman,serif" font-size="10.00">initLegende</text>
</g>
<!-- initLegende&#45;&gt;initNode -->
<g id="edge31" class="edge"><title>initLegende&#45;&gt;initNode</title>
<path fill="none" stroke="black" d="M162.227,-1193.84C175.489,-1193.14 191.033,-1193.06 204.793,-1193.61"/>
<polygon fill="black" stroke="black" points="204.727,-1197.11 214.901,-1194.16 205.104,-1190.12 204.727,-1197.11"/>
</g>
<!-- initLegende&#45;&gt;initNode -->
<g id="edge32" class="edge"><title>initLegende&#45;&gt;initNode</title>
<path fill="none" stroke="blue" d="M162.227,-1206.16C175.489,-1206.86 191.033,-1206.94 204.793,-1206.39"/>
<polygon fill="blue" stroke="blue" points="205.104,-1209.88 214.901,-1205.84 204.727,-1202.89 205.104,-1209.88"/>
</g>
<!-- set_sched -->
<g id="node5" class="node"><title>set_sched</title>
<polygon fill="none" stroke="black" points="101,-1127 101,-1163 159,-1163 159,-1127 101,-1127"/>
<text text-anchor="middle" x="130" y="-1142.5" font-family="Times New Roman,serif" font-size="10.00">set_sched</text>
</g>
<!-- set_sched&#45;&gt;initNode -->
<g id="edge33" class="edge"><title>set_sched&#45;&gt;initNode</title>
<path fill="none" stroke="#ee0000" d="M159.042,-1159.02C173.275,-1166.14 190.707,-1174.85 205.829,-1182.41"/>
<polygon fill="#ee0000" stroke="#ee0000" points="204.388,-1185.61 214.898,-1186.95 207.519,-1179.35 204.388,-1185.61"/>
</g>
<!-- regexpSwitcher -->
<g id="node18" class="node"><title>regexpSwitcher</title>
<polygon fill="none" stroke="black" points="320.5,-929 320.5,-965 397.5,-965 397.5,-929 320.5,-929"/>
<text text-anchor="middle" x="359" y="-944.5" font-family="Times New Roman,serif" font-size="10.00">regexpSwitcher</text>
</g>
<!-- set_sched&#45;&gt;regexpSwitcher -->
<g id="edge34" class="edge"><title>set_sched&#45;&gt;regexpSwitcher</title>
<path fill="none" stroke="green" d="M146.839,-1126.7C184.313,-1090.75 275.208,-1011.75 324.999,-971.431"/>
<polygon fill="green" stroke="green" points="327.312,-974.063 332.916,-965.071 322.928,-968.605 327.312,-974.063"/>
</g>
<!-- set_sched&#45;&gt;regexpSwitcher -->
<g id="edge35" class="edge"><title>set_sched&#45;&gt;regexpSwitcher</title>
<path fill="none" stroke="#473c8b" d="M156.269,-1126.78C201.062,-1091.11 291.563,-1012.81 334.859,-972.217"/>
<polygon fill="#473c8b" stroke="#473c8b" points="337.523,-974.515 342.372,-965.095 332.707,-969.434 337.523,-974.515"/>
</g>
<!-- set_jobs -->
<g id="node6" class="node"><title>set_jobs</title>
<polygon fill="none" stroke="black" points="103,-1292 103,-1328 157,-1328 157,-1292 103,-1292"/>
<text text-anchor="middle" x="130" y="-1307.5" font-family="Times New Roman,serif" font-size="10.00">set_jobs</text>
</g>
<!-- set_jobs&#45;&gt;initNode -->
<g id="edge38" class="edge"><title>set_jobs&#45;&gt;initNode</title>
<path fill="none" stroke="darkorange" d="M149.164,-1291.84C167.316,-1273.68 195.375,-1245.62 215.702,-1225.3"/>
<polygon fill="darkorange" stroke="darkorange" points="218.213,-1227.74 222.809,-1218.19 213.263,-1222.79 218.213,-1227.74"/>
</g>
<!-- set_jobs&#45;&gt;RegExpMain -->
<g id="edge36" class="edge"><title>set_jobs&#45;&gt;RegExpMain</title>
<path fill="none" stroke="#8b2252" d="M141.678,-1291.9C192.101,-1219.92 391.611,-955.315 458.789,-870.921"/>
<polygon fill="#8b2252" stroke="#8b2252" points="461.531,-873.096 465.049,-863.103 456.067,-868.721 461.531,-873.096"/>
</g>
<!-- set_jobs&#45;&gt;RegExpMain -->
<g id="edge37" class="edge"><title>set_jobs&#45;&gt;RegExpMain</title>
<path fill="none" stroke="#8b4513" d="M145.994,-1291.84C203.958,-1219.96 402.783,-956.61 463.349,-871.552"/>
<polygon fill="#8b4513" stroke="#8b4513" points="466.333,-873.394 469.247,-863.208 460.617,-869.353 466.333,-873.394"/>
</g>
<!-- set_next -->
<g id="node7" class="node"><title>set_next</title>
<polygon fill="none" stroke="black" points="103,-1237 103,-1273 157,-1273 157,-1237 103,-1237"/>
<text text-anchor="middle" x="130" y="-1252.5" font-family="Times New Roman,serif" font-size="10.00">set_next</text>
</g>
<!-- set_next&#45;&gt;initNode -->
<g id="edge39" class="edge"><title>set_next&#45;&gt;initNode</title>
<path fill="none" stroke="#cd9b1d" d="M155.686,-1236.92C170.406,-1228.46 189.34,-1218.79 205.629,-1211.33"/>
<polygon fill="#cd9b1d" stroke="#cd9b1d" points="207.15,-1214.49 214.863,-1207.22 204.304,-1208.09 207.15,-1214.49"/>
</g>
<!-- set_next&#45;&gt;initNode -->
<g id="edge40" class="edge"><title>set_next&#45;&gt;initNode</title>
<path fill="none" stroke="#cd1076" d="M157.068,-1247.81C172.045,-1241.36 191.023,-1232.02 207.143,-1223.21"/>
<polygon fill="#cd1076" stroke="#cd1076" points="209.233,-1226.06 216.252,-1218.12 205.816,-1219.95 209.233,-1226.06"/>
</g>
<!-- set_conf -->
<g id="node8" class="node"><title>set_conf</title>
<polygon fill="none" stroke="black" points="103,-1072 103,-1108 157,-1108 157,-1072 103,-1072"/>
<text text-anchor="middle" x="130" y="-1087.5" font-family="Times New Roman,serif" font-size="10.00">set_conf</text>
</g>
<!-- set_conf&#45;&gt;initNode -->
<g id="edge42" class="edge"><title>set_conf&#45;&gt;initNode</title>
<path fill="none" stroke="black" d="M149.164,-1108.16C167.316,-1126.32 195.375,-1154.38 215.702,-1174.7"/>
<polygon fill="black" stroke="black" points="213.263,-1177.21 222.809,-1181.81 218.213,-1172.26 213.263,-1177.21"/>
</g>
<!-- set_conf&#45;&gt;regexpSwitcher -->
<g id="edge43" class="edge"><title>set_conf&#45;&gt;regexpSwitcher</title>
<path fill="none" stroke="blue" d="M157.169,-1073.03C198.017,-1047.53 275.374,-999.221 321.547,-970.388"/>
<polygon fill="blue" stroke="blue" points="323.439,-973.332 330.068,-965.067 319.732,-967.395 323.439,-973.332"/>
</g>
<!-- splitLine -->
<g id="node24" class="node"><title>splitLine</title>
<polygon fill="none" stroke="black" points="332,-829 332,-865 386,-865 386,-829 332,-829"/>
<text text-anchor="middle" x="359" y="-844.5" font-family="Times New Roman,serif" font-size="10.00">splitLine</text>
</g>
<!-- set_conf&#45;&gt;splitLine -->
<g id="edge41" class="edge"><title>set_conf&#45;&gt;splitLine</title>
<path fill="none" stroke="#838b8b" d="M147.212,-1071.74C187.595,-1028.88 288.506,-921.804 334.934,-872.537"/>
<polygon fill="#838b8b" stroke="#838b8b" points="337.589,-874.823 341.9,-865.145 332.495,-870.022 337.589,-874.823"/>
</g>
<!-- setCluster -->
<g id="node9" class="node"><title>setCluster</title>
<polygon fill="none" stroke="black" points="101.5,-1347 101.5,-1383 158.5,-1383 158.5,-1347 101.5,-1347"/>
<text text-anchor="middle" x="130" y="-1362.5" font-family="Times New Roman,serif" font-size="10.00">setCluster</text>
</g>
<!-- set_link_after -->
<g id="node10" class="node"><title>set_link_after</title>
<polygon fill="none" stroke="black" points="206.5,-555 206.5,-591 277.5,-591 277.5,-555 206.5,-555"/>
<text text-anchor="middle" x="242" y="-570.5" font-family="Times New Roman,serif" font-size="10.00">set_link_after</text>
</g>
<!-- makeLink -->
<g id="node12" class="node"><title>makeLink</title>
<polygon fill="none" stroke="black" points="332,-610 332,-646 386,-646 386,-610 332,-610"/>
<text text-anchor="middle" x="359" y="-625.5" font-family="Times New Roman,serif" font-size="10.00">makeLink</text>
</g>
<!-- set_link_after&#45;&gt;makeLink -->
<g id="edge45" class="edge"><title>set_link_after&#45;&gt;makeLink</title>
<path fill="none" stroke="blue" d="M277.504,-589.502C291.832,-596.354 308.44,-604.297 322.837,-611.183"/>
<polygon fill="blue" stroke="blue" points="321.4,-614.375 331.932,-615.533 324.42,-608.06 321.4,-614.375"/>
</g>
<!-- sort_unique_hash -->
<g id="node28" class="node"><title>sort_unique_hash</title>
<polygon fill="none" stroke="black" points="314,-402 314,-438 404,-438 404,-402 314,-402"/>
<text text-anchor="middle" x="359" y="-417.5" font-family="Times New Roman,serif" font-size="10.00">sort_unique_hash</text>
</g>
<!-- set_link_after&#45;&gt;sort_unique_hash -->
<g id="edge44" class="edge"><title>set_link_after&#45;&gt;sort_unique_hash</title>
<path fill="none" stroke="black" d="M256.644,-554.848C276.874,-527.932 314.938,-477.291 338.225,-446.309"/>
<polygon fill="black" stroke="black" points="341.164,-448.225 344.374,-438.128 335.568,-444.019 341.164,-448.225"/>
</g>
<!-- set_links -->
<g id="node11" class="node"><title>set_links</title>
<polygon fill="none" stroke="black" points="215,-610 215,-646 269,-646 269,-610 215,-610"/>
<text text-anchor="middle" x="242" y="-625.5" font-family="Times New Roman,serif" font-size="10.00">set_links</text>
</g>
<!-- set_links&#45;&gt;makeLink -->
<g id="edge46" class="edge"><title>set_links&#45;&gt;makeLink</title>
<path fill="none" stroke="#ee0000" d="M269.095,-616.478C284.571,-614.305 304.425,-613.922 321.444,-615.33"/>
<polygon fill="#ee0000" stroke="#ee0000" points="321.29,-618.833 331.61,-616.437 322.048,-611.875 321.29,-618.833"/>
</g>
<!-- set_links&#45;&gt;makeLink -->
<g id="edge47" class="edge"><title>set_links&#45;&gt;makeLink</title>
<path fill="none" stroke="green" d="M269.095,-628C284.571,-628 304.425,-628 321.444,-628"/>
<polygon fill="green" stroke="green" points="321.61,-631.5 331.61,-628 321.61,-624.5 321.61,-631.5"/>
</g>
<!-- set_links&#45;&gt;makeLink -->
<g id="edge48" class="edge"><title>set_links&#45;&gt;makeLink</title>
<path fill="none" stroke="#473c8b" d="M269.095,-639.522C284.571,-641.695 304.425,-642.078 321.444,-640.67"/>
<polygon fill="#473c8b" stroke="#473c8b" points="322.048,-644.125 331.61,-639.563 321.29,-637.167 322.048,-644.125"/>
</g>
<!-- setInNode -->
<g id="node13" class="node"><title>setInNode</title>
<polygon fill="none" stroke="black" points="212.5,-797 212.5,-833 271.5,-833 271.5,-797 212.5,-797"/>
<text text-anchor="middle" x="242" y="-812.5" font-family="Times New Roman,serif" font-size="10.00">setInNode</text>
</g>
<!-- addBrLine -->
<g id="node25" class="node"><title>addBrLine</title>
<polygon fill="none" stroke="black" points="330,-774 330,-810 388,-810 388,-774 330,-774"/>
<text text-anchor="middle" x="359" y="-789.5" font-family="Times New Roman,serif" font-size="10.00">addBrLine</text>
</g>
<!-- setInNode&#45;&gt;addBrLine -->
<g id="edge49" class="edge"><title>setInNode&#45;&gt;addBrLine</title>
<path fill="none" stroke="black" d="M271.723,-809.255C286.239,-806.352 304.053,-802.789 319.717,-799.657"/>
<polygon fill="black" stroke="black" points="320.524,-803.065 329.643,-797.671 319.151,-796.201 320.524,-803.065"/>
</g>
<!-- setInfoNode -->
<g id="node14" class="node"><title>setInfoNode</title>
<polygon fill="none" stroke="black" points="208.5,-732 208.5,-768 275.5,-768 275.5,-732 208.5,-732"/>
<text text-anchor="middle" x="242" y="-747.5" font-family="Times New Roman,serif" font-size="10.00">setInfoNode</text>
</g>
<!-- setInfoNode&#45;&gt;makeLink -->
<g id="edge52" class="edge"><title>setInfoNode&#45;&gt;makeLink</title>
<path fill="none" stroke="green" d="M259.969,-731.998C279.503,-711.275 311.736,-677.08 333.874,-653.595"/>
<polygon fill="green" stroke="green" points="336.649,-655.753 340.962,-646.075 331.556,-650.951 336.649,-655.753"/>
</g>
<!-- re_del_noAlpha -->
<g id="node23" class="node"><title>re_del_noAlpha</title>
<polygon fill="none" stroke="black" points="440,-772 440,-808 522,-808 522,-772 440,-772"/>
<text text-anchor="middle" x="481" y="-787.5" font-family="Times New Roman,serif" font-size="10.00">re_del_noAlpha</text>
</g>
<!-- setInfoNode&#45;&gt;re_del_noAlpha -->
<g id="edge50" class="edge"><title>setInfoNode&#45;&gt;re_del_noAlpha</title>
<path fill="none" stroke="blue" d="M275.736,-755.646C315.895,-762.367 383.365,-773.659 429.929,-781.453"/>
<polygon fill="blue" stroke="blue" points="429.381,-784.91 439.822,-783.108 430.537,-778.006 429.381,-784.91"/>
</g>
<!-- setInfoNode&#45;&gt;addBrLine -->
<g id="edge51" class="edge"><title>setInfoNode&#45;&gt;addBrLine</title>
<path fill="none" stroke="#ee0000" d="M275.647,-761.923C289.567,-767.007 305.893,-772.97 320.322,-778.239"/>
<polygon fill="#ee0000" stroke="#ee0000" points="319.361,-781.615 329.955,-781.758 321.763,-775.039 319.361,-781.615"/>
</g>
<!-- buildNodes -->
<g id="node15" class="node"><title>buildNodes</title>
<polygon fill="none" stroke="black" points="98.5,-807 98.5,-843 161.5,-843 161.5,-807 98.5,-807"/>
<text text-anchor="middle" x="130" y="-822.5" font-family="Times New Roman,serif" font-size="10.00">buildNodes</text>
</g>
<!-- buildNodes&#45;&gt;setInNode -->
<g id="edge53" class="edge"><title>buildNodes&#45;&gt;setInNode</title>
<path fill="none" stroke="#473c8b" d="M161.641,-822.214C174.181,-821.074 188.839,-819.742 202.121,-818.534"/>
<polygon fill="#473c8b" stroke="#473c8b" points="202.769,-821.99 212.411,-817.599 202.135,-815.019 202.769,-821.99"/>
</g>
<!-- buildNodes&#45;&gt;setInfoNode -->
<g id="edge54" class="edge"><title>buildNodes&#45;&gt;setInfoNode</title>
<path fill="none" stroke="#8b2252" d="M157.628,-806.845C172.113,-796.968 190.214,-784.627 205.845,-773.969"/>
<polygon fill="#8b2252" stroke="#8b2252" points="207.945,-776.773 214.236,-768.248 204.002,-770.99 207.945,-776.773"/>
</g>
<!-- setClusterColor -->
<g id="node16" class="node"><title>setClusterColor</title>
<polygon fill="none" stroke="black" points="90.5,-697 90.5,-733 169.5,-733 169.5,-697 90.5,-697"/>
<text text-anchor="middle" x="130" y="-712.5" font-family="Times New Roman,serif" font-size="10.00">setClusterColor</text>
</g>
<!-- writeVgFile -->
<g id="node17" class="node"><title>writeVgFile</title>
<polygon fill="none" stroke="black" points="99,-752 99,-788 161,-788 161,-752 99,-752"/>
<text text-anchor="middle" x="130" y="-767.5" font-family="Times New Roman,serif" font-size="10.00">writeVgFile</text>
</g>
<!-- writeVgFile&#45;&gt;sort_unique_hash -->
<g id="edge56" class="edge"><title>writeVgFile&#45;&gt;sort_unique_hash</title>
<path fill="none" stroke="darkorange" d="M141.99,-751.675C179.861,-693.793 297.048,-514.687 341.584,-446.619"/>
<polygon fill="darkorange" stroke="darkorange" points="344.583,-448.428 347.129,-438.143 338.725,-444.595 344.583,-448.428"/>
</g>
<!-- _add_carac -->
<g id="node35" class="node"><title>_add_carac</title>
<polygon fill="none" stroke="black" points="327.5,-347 327.5,-383 390.5,-383 390.5,-347 327.5,-347"/>
<text text-anchor="middle" x="359" y="-362.5" font-family="Times New Roman,serif" font-size="10.00">_add_carac</text>
</g>
<!-- writeVgFile&#45;&gt;_add_carac -->
<g id="edge55" class="edge"><title>writeVgFile&#45;&gt;_add_carac</title>
<path fill="none" stroke="#8b4513" d="M140.285,-751.811C176.757,-687.308 300.053,-469.251 343.606,-392.225"/>
<polygon fill="#8b4513" stroke="#8b4513" points="346.868,-393.566 348.744,-383.139 340.775,-390.121 346.868,-393.566"/>
</g>
<!-- re_freq -->
<g id="node20" class="node"><title>re_freq</title>
<polygon fill="none" stroke="black" points="454,-992 454,-1028 508,-1028 508,-992 454,-992"/>
<text text-anchor="middle" x="481" y="-1007.5" font-family="Times New Roman,serif" font-size="10.00">re_freq</text>
</g>
<!-- regexpSwitcher&#45;&gt;re_freq -->
<g id="edge58" class="edge"><title>regexpSwitcher&#45;&gt;re_freq</title>
<path fill="none" stroke="blue" d="M394.387,-965.053C410.135,-973.321 428.78,-983.109 444.643,-991.438"/>
<polygon fill="blue" stroke="blue" points="443.138,-994.601 453.619,-996.15 446.392,-988.403 443.138,-994.601"/>
</g>
<!-- re_opens -->
<g id="node21" class="node"><title>re_opens</title>
<polygon fill="none" stroke="black" points="454,-882 454,-918 508,-918 508,-882 454,-882"/>
<text text-anchor="middle" x="481" y="-897.5" font-family="Times New Roman,serif" font-size="10.00">re_opens</text>
</g>
<!-- regexpSwitcher&#45;&gt;re_opens -->
<g id="edge59" class="edge"><title>regexpSwitcher&#45;&gt;re_opens</title>
<path fill="none" stroke="#ee0000" d="M397.64,-932.258C412.638,-926.384 429.811,-919.657 444.581,-913.872"/>
<polygon fill="#ee0000" stroke="#ee0000" points="445.859,-917.131 453.894,-910.225 443.306,-910.613 445.859,-917.131"/>
</g>
<!-- re_at -->
<g id="node22" class="node"><title>re_at</title>
<polygon fill="none" stroke="black" points="454,-937 454,-973 508,-973 508,-937 454,-937"/>
<text text-anchor="middle" x="481" y="-952.5" font-family="Times New Roman,serif" font-size="10.00">re_at</text>
</g>
<!-- regexpSwitcher&#45;&gt;re_at -->
<g id="edge60" class="edge"><title>regexpSwitcher&#45;&gt;re_at</title>
<path fill="none" stroke="green" d="M397.64,-949.509C412.352,-950.49 429.157,-951.61 443.735,-952.582"/>
<polygon fill="green" stroke="green" points="443.683,-956.087 453.894,-953.26 444.149,-949.102 443.683,-956.087"/>
</g>
<!-- regexpSwitcher&#45;&gt;re_del_noAlpha -->
<g id="edge57" class="edge"><title>regexpSwitcher&#45;&gt;re_del_noAlpha</title>
<path fill="none" stroke="black" d="M373.766,-928.99C394.901,-901.338 435.459,-848.275 459.888,-816.313"/>
<polygon fill="black" stroke="black" points="462.733,-818.354 466.025,-808.283 457.172,-814.103 462.733,-818.354"/>
</g>
<!-- trim -->
<g id="node26" class="node"><title>trim</title>
<polygon fill="none" stroke="black" points="454,-717 454,-753 508,-753 508,-717 454,-717"/>
<text text-anchor="middle" x="481" y="-732.5" font-family="Times New Roman,serif" font-size="10.00">trim</text>
</g>
<!-- regexpSwitcher&#45;&gt;trim -->
<g id="edge61" class="edge"><title>regexpSwitcher&#45;&gt;trim</title>
<path fill="none" stroke="#473c8b" d="M370.231,-928.925C391.353,-891.61 439.879,-805.881 464.728,-761.981"/>
<polygon fill="#473c8b" stroke="#473c8b" points="467.915,-763.456 469.795,-753.029 461.823,-760.008 467.915,-763.456"/>
</g>
<!-- splitLine&#45;&gt;RegExpMain -->
<g id="edge63" class="edge"><title>splitLine&#45;&gt;RegExpMain</title>
<path fill="none" stroke="#8b4513" d="M386.038,-835.209C400.766,-832.871 419.564,-831.998 436.471,-832.688"/>
<polygon fill="#8b4513" stroke="#8b4513" points="436.503,-836.197 446.7,-833.321 436.936,-829.21 436.503,-836.197"/>
</g>
<!-- splitLine&#45;&gt;RegExpMain -->
<g id="edge64" class="edge"><title>splitLine&#45;&gt;RegExpMain</title>
<path fill="none" stroke="darkorange" d="M386.038,-846.566C400.766,-846.321 419.564,-846.007 436.471,-845.725"/>
<polygon fill="darkorange" stroke="darkorange" points="436.76,-849.221 446.7,-845.555 436.643,-842.222 436.76,-849.221"/>
</g>
<!-- splitLine&#45;&gt;RegExpMain -->
<g id="edge65" class="edge"><title>splitLine&#45;&gt;RegExpMain</title>
<path fill="none" stroke="#cd9b1d" d="M386.038,-857.923C400.766,-859.77 419.564,-860.017 436.471,-858.763"/>
<polygon fill="#cd9b1d" stroke="#cd9b1d" points="437.077,-862.221 446.7,-857.789 436.414,-855.253 437.077,-862.221"/>
</g>
<!-- splitLine&#45;&gt;re_del_noAlpha -->
<g id="edge62" class="edge"><title>splitLine&#45;&gt;re_del_noAlpha</title>
<path fill="none" stroke="#8b2252" d="M386.038,-834.632C399.637,-828.172 416.707,-820.064 432.553,-812.537"/>
<polygon fill="#8b2252" stroke="#8b2252" points="434.175,-815.642 441.706,-808.189 431.172,-809.319 434.175,-815.642"/>
</g>
<!-- addBrLine&#45;&gt;RegExpMain -->
<g id="edge66" class="edge"><title>addBrLine&#45;&gt;RegExpMain</title>
<path fill="none" stroke="#cd1076" d="M388.135,-804.426C402.844,-810.923 421.152,-819.009 437.544,-826.249"/>
<polygon fill="#cd1076" stroke="#cd1076" points="436.371,-829.557 446.933,-830.395 439.199,-823.153 436.371,-829.557"/>
</g>
<!-- cDate -->
<g id="node27" class="node"><title>cDate</title>
<polygon fill="none" stroke="black" points="332,-17 332,-53 386,-53 386,-17 332,-17"/>
<text text-anchor="middle" x="359" y="-32.5" font-family="Times New Roman,serif" font-size="10.00">cDate</text>
</g>
<!-- checkEnv -->
<g id="node29" class="node"><title>checkEnv</title>
<polygon fill="none" stroke="black" points="331,-292 331,-328 387,-328 387,-292 331,-292"/>
<text text-anchor="middle" x="359" y="-307.5" font-family="Times New Roman,serif" font-size="10.00">checkEnv</text>
</g>
<!-- setConvertFreq -->
<g id="node30" class="node"><title>setConvertFreq</title>
<polygon fill="none" stroke="black" points="319.5,-237 319.5,-273 398.5,-273 398.5,-237 319.5,-237"/>
<text text-anchor="middle" x="359" y="-252.5" font-family="Times New Roman,serif" font-size="10.00">setConvertFreq</text>
</g>
<!-- setConvertFreq&#45;&gt;RegExpMain -->
<g id="edge67" class="edge"><title>setConvertFreq&#45;&gt;RegExpMain</title>
<path fill="none" stroke="black" d="M364.271,-273.286C382.639,-358.291 454.884,-713.418 474.858,-816.771"/>
<polygon fill="black" stroke="black" points="471.456,-817.613 476.778,-826.775 478.331,-816.294 471.456,-817.613"/>
</g>
<!-- setConvertFreq&#45;&gt;RegExpMain -->
<g id="edge68" class="edge"><title>setConvertFreq&#45;&gt;RegExpMain</title>
<path fill="none" stroke="blue" d="M363.21,-273.16C379.337,-357.975 451.616,-713.635 473.622,-816.886"/>
<polygon fill="blue" stroke="blue" points="470.245,-817.833 475.764,-826.877 477.089,-816.365 470.245,-817.833"/>
</g>
<!-- load_params -->
<g id="node31" class="node"><title>load_params</title>
<polygon fill="none" stroke="black" points="325,-182 325,-218 393,-218 393,-182 325,-182"/>
<text text-anchor="middle" x="359" y="-197.5" font-family="Times New Roman,serif" font-size="10.00">load_params</text>
</g>
<!-- dumperHash -->
<g id="node32" class="node"><title>dumperHash</title>
<polygon fill="none" stroke="black" points="447,-127 447,-163 515,-163 515,-127 447,-127"/>
<text text-anchor="middle" x="481" y="-142.5" font-family="Times New Roman,serif" font-size="10.00">dumperHash</text>
</g>
<!-- writeLog -->
<g id="node33" class="node"><title>writeLog</title>
<polygon fill="none" stroke="black" points="332,-127 332,-163 386,-163 386,-127 332,-127"/>
<text text-anchor="middle" x="359" y="-142.5" font-family="Times New Roman,serif" font-size="10.00">writeLog</text>
</g>
<!-- writeLog&#45;&gt;dumperHash -->
<g id="edge69" class="edge"><title>writeLog&#45;&gt;dumperHash</title>
<path fill="none" stroke="#ee0000" d="M374.237,-126.782C394.644,-116.433 432.442,-115.231 456.888,-123.176"/>
<polygon fill="#ee0000" stroke="#ee0000" points="455.572,-126.419 466.152,-126.981 458.232,-119.944 455.572,-126.419"/>
</g>
<!-- writeLog&#45;&gt;dumperHash -->
<g id="edge70" class="edge"><title>writeLog&#45;&gt;dumperHash</title>
<path fill="none" stroke="green" d="M386.038,-133.643C400.766,-131.551 419.564,-130.99 436.471,-131.963"/>
<polygon fill="green" stroke="green" points="436.457,-135.472 446.7,-132.766 437.005,-128.494 436.457,-135.472"/>
</g>
<!-- writeLog&#45;&gt;dumperHash -->
<g id="edge71" class="edge"><title>writeLog&#45;&gt;dumperHash</title>
<path fill="none" stroke="#473c8b" d="M386.038,-145C400.766,-145 419.564,-145 436.471,-145"/>
<polygon fill="#473c8b" stroke="#473c8b" points="436.7,-148.5 446.7,-145 436.7,-141.5 436.7,-148.5"/>
</g>
<!-- writeLog&#45;&gt;dumperHash -->
<g id="edge72" class="edge"><title>writeLog&#45;&gt;dumperHash</title>
<path fill="none" stroke="#8b2252" d="M386.038,-156.357C400.766,-158.449 419.564,-159.01 436.471,-158.037"/>
<polygon fill="#8b2252" stroke="#8b2252" points="437.005,-161.506 446.7,-157.234 436.457,-154.528 437.005,-161.506"/>
</g>
<!-- writeLog&#45;&gt;dumperHash -->
<g id="edge73" class="edge"><title>writeLog&#45;&gt;dumperHash</title>
<path fill="none" stroke="#8b4513" d="M374.237,-163.218C394.644,-173.567 432.442,-174.769 456.888,-166.824"/>
<polygon fill="#8b4513" stroke="#8b4513" points="458.232,-170.056 466.152,-163.019 455.572,-163.581 458.232,-170.056"/>
</g>
<!-- makeXlsFile -->
<g id="node34" class="node"><title>makeXlsFile</title>
<polygon fill="none" stroke="black" points="326.5,-72 326.5,-108 391.5,-108 391.5,-72 326.5,-72"/>
<text text-anchor="middle" x="359" y="-87.5" font-family="Times New Roman,serif" font-size="10.00">makeXlsFile</text>
</g>
<!-- main.pl -->
<g id="node36" class="node"><title>main.pl</title>
<polygon fill="none" stroke="black" points="0,-752 0,-788 54,-788 54,-752 0,-752"/>
<text text-anchor="middle" x="27" y="-767.5" font-family="Times New Roman,serif" font-size="10.00">main.pl</text>
</g>
<!-- main.pl&#45;&gt;initLegende -->
<g id="edge10" class="edge"><title>main.pl&#45;&gt;initLegende</title>
<path fill="none" stroke="#cd1076" d="M32.2753,-788.202C48.05,-855.361 103.066,-1089.59 122.3,-1171.47"/>
<polygon fill="#cd1076" stroke="#cd1076" points="118.973,-1172.62 124.667,-1181.55 125.788,-1171.02 118.973,-1172.62"/>
</g>
<!-- main.pl&#45;&gt;set_sched -->
<g id="edge8" class="edge"><title>main.pl&#45;&gt;set_sched</title>
<path fill="none" stroke="darkorange" d="M32.8714,-788.087C49.1338,-848.467 101.637,-1043.41 121.391,-1116.75"/>
<polygon fill="darkorange" stroke="darkorange" points="118.079,-1117.91 124.059,-1126.66 124.838,-1116.09 118.079,-1117.91"/>
</g>
<!-- main.pl&#45;&gt;set_jobs -->
<g id="edge6" class="edge"><title>main.pl&#45;&gt;set_jobs</title>
<path fill="none" stroke="#8b2252" d="M31.4183,-788.276C46.3146,-867.919 105.621,-1185 123.725,-1281.8"/>
<polygon fill="#8b2252" stroke="#8b2252" points="120.304,-1282.54 125.583,-1291.73 127.184,-1281.26 120.304,-1282.54"/>
</g>
<!-- main.pl&#45;&gt;set_next -->
<g id="edge12" class="edge"><title>main.pl&#45;&gt;set_next</title>
<path fill="none" stroke="black" d="M31.775,-788.127C47.0715,-861.581 104.512,-1137.41 123.133,-1226.83"/>
<polygon fill="black" stroke="black" points="119.741,-1227.71 125.206,-1236.78 126.594,-1226.28 119.741,-1227.71"/>
</g>
<!-- main.pl&#45;&gt;set_conf -->
<g id="edge9" class="edge"><title>main.pl&#45;&gt;set_conf</title>
<path fill="none" stroke="#cd9b1d" d="M33.7196,-788.121C50.5197,-841.35 99.8093,-997.515 120.108,-1061.83"/>
<polygon fill="#cd9b1d" stroke="#cd9b1d" points="116.87,-1063.2 123.218,-1071.68 123.546,-1061.09 116.87,-1063.2"/>
</g>
<!-- main.pl&#45;&gt;setCluster -->
<g id="edge11" class="edge"><title>main.pl&#45;&gt;setCluster</title>
<path fill="none" stroke="#838b8b" d="M31.0779,-788.132C45.5103,-873.155 106.52,-1232.57 124.188,-1336.65"/>
<polygon fill="#838b8b" stroke="#838b8b" points="120.772,-1337.44 125.897,-1346.72 127.674,-1336.27 120.772,-1337.44"/>
</g>
<!-- main.pl&#45;&gt;set_link_after -->
<g id="edge14" class="edge"><title>main.pl&#45;&gt;set_link_after</title>
<path fill="none" stroke="#ee0000" d="M46.8413,-751.82C85.4798,-716.416 170.867,-638.177 214.767,-597.953"/>
<polygon fill="#ee0000" stroke="#ee0000" points="217.198,-600.473 222.207,-591.136 212.469,-595.311 217.198,-600.473"/>
</g>
<!-- main.pl&#45;&gt;set_links -->
<g id="edge13" class="edge"><title>main.pl&#45;&gt;set_links</title>
<path fill="none" stroke="blue" d="M54.2299,-752.016C92.9206,-726.462 163.842,-679.621 206.579,-651.394"/>
<polygon fill="blue" stroke="blue" points="208.576,-654.27 214.991,-645.838 204.718,-648.429 208.576,-654.27"/>
</g>
<!-- main.pl&#45;&gt;buildNodes -->
<g id="edge16" class="edge"><title>main.pl&#45;&gt;buildNodes</title>
<path fill="none" stroke="#473c8b" d="M54.01,-772.187C70.087,-778.772 90.5333,-790.054 106.014,-800.951"/>
<polygon fill="#473c8b" stroke="#473c8b" points="103.934,-803.765 114.044,-806.932 108.115,-798.151 103.934,-803.765"/>
</g>
<!-- main.pl&#45;&gt;buildNodes -->
<g id="edge18" class="edge"><title>main.pl&#45;&gt;buildNodes</title>
<path fill="none" stroke="#8b4513" d="M54.01,-784.164C64.8157,-790.048 77.5951,-797.007 89.5141,-803.498"/>
<polygon fill="#8b4513" stroke="#8b4513" points="87.9578,-806.636 98.414,-808.344 91.3056,-800.488 87.9578,-806.636"/>
</g>
<!-- main.pl&#45;&gt;buildNodes -->
<g id="edge20" class="edge"><title>main.pl&#45;&gt;buildNodes</title>
<path fill="none" stroke="#cd9b1d" d="M42.9029,-788.026C55.0126,-797.652 72.6788,-808.384 88.8615,-816.387"/>
<polygon fill="#cd9b1d" stroke="#cd9b1d" points="87.6256,-819.673 98.1651,-820.754 90.6004,-813.336 87.6256,-819.673"/>
</g>
<!-- main.pl&#45;&gt;setClusterColor -->
<g id="edge15" class="edge"><title>main.pl&#45;&gt;setClusterColor</title>
<path fill="none" stroke="green" d="M54.01,-755.836C64.064,-750.361 75.8269,-743.956 87.0154,-737.863"/>
<polygon fill="green" stroke="green" points="88.7133,-740.924 95.8217,-733.067 85.3656,-734.776 88.7133,-740.924"/>
</g>
<!-- main.pl&#45;&gt;writeVgFile -->
<g id="edge17" class="edge"><title>main.pl&#45;&gt;writeVgFile</title>
<path fill="none" stroke="#8b2252" d="M54.01,-758.024C64.5883,-756.596 77.0581,-756.172 88.7605,-756.751"/>
<polygon fill="#8b2252" stroke="#8b2252" points="88.5419,-760.244 98.7801,-757.518 89.0766,-753.265 88.5419,-760.244"/>
</g>
<!-- main.pl&#45;&gt;writeVgFile -->
<g id="edge19" class="edge"><title>main.pl&#45;&gt;writeVgFile</title>
<path fill="none" stroke="darkorange" d="M54.01,-770C64.5883,-770 77.0581,-770 88.7605,-770"/>
<polygon fill="darkorange" stroke="darkorange" points="88.7801,-773.5 98.7801,-770 88.78,-766.5 88.7801,-773.5"/>
</g>
<!-- main.pl&#45;&gt;writeVgFile -->
<g id="edge21" class="edge"><title>main.pl&#45;&gt;writeVgFile</title>
<path fill="none" stroke="#cd1076" d="M54.01,-781.976C64.5883,-783.404 77.0581,-783.828 88.7605,-783.249"/>
<polygon fill="#cd1076" stroke="#cd1076" points="89.0766,-786.735 98.7801,-782.482 88.5419,-779.756 89.0766,-786.735"/>
</g>
<!-- main.pl&#45;&gt;RegExpMain -->
<g id="edge7" class="edge"><title>main.pl&#45;&gt;RegExpMain</title>
<path fill="none" stroke="#8b4513" d="M54.0402,-774.467C129.663,-786.96 343.865,-822.346 436.929,-837.719"/>
<polygon fill="#8b4513" stroke="#8b4513" points="436.434,-841.185 446.87,-839.362 437.575,-834.279 436.434,-841.185"/>
</g>
<!-- main.pl&#45;&gt;trim -->
<g id="edge5" class="edge"><title>main.pl&#45;&gt;trim</title>
<path fill="none" stroke="#473c8b" d="M54.0402,-767.915C131.542,-761.941 354.599,-744.745 443.64,-737.88"/>
<polygon fill="#473c8b" stroke="#473c8b" points="444.114,-741.354 453.815,-737.096 443.576,-734.375 444.114,-741.354"/>
</g>
<!-- main.pl&#45;&gt;cDate -->
<g id="edge1" class="edge"><title>main.pl&#45;&gt;cDate</title>
<path fill="none" stroke="black" d="M35.2068,-751.831C79.7865,-653.138 292.813,-181.529 346.629,-62.3878"/>
<polygon fill="black" stroke="black" points="349.856,-63.7457 350.783,-53.1915 343.477,-60.8641 349.856,-63.7457"/>
</g>
<!-- main.pl&#45;&gt;checkEnv -->
<g id="edge2" class="edge"><title>main.pl&#45;&gt;checkEnv</title>
<path fill="none" stroke="blue" d="M40.0148,-751.967C91.1936,-681.057 278.781,-421.146 339.731,-336.698"/>
<polygon fill="blue" stroke="blue" points="342.7,-338.565 345.714,-328.408 337.024,-334.468 342.7,-338.565"/>
</g>
<!-- main.pl&#45;&gt;setConvertFreq -->
<g id="edge4" class="edge"><title>main.pl&#45;&gt;setConvertFreq</title>
<path fill="none" stroke="green" d="M38.6214,-751.973C88.2698,-674.958 282.732,-373.308 341.855,-281.595"/>
<polygon fill="green" stroke="green" points="344.824,-283.449 347.301,-273.148 338.941,-279.656 344.824,-283.449"/>
</g>
<!-- main.pl&#45;&gt;load_params -->
<g id="edge3" class="edge"><title>main.pl&#45;&gt;load_params</title>
<path fill="none" stroke="#ee0000" d="M37.4844,-752C85.641,-669.321 285.73,-325.794 343.388,-226.804"/>
<polygon fill="#ee0000" stroke="#ee0000" points="346.504,-228.407 348.513,-218.005 340.456,-224.884 346.504,-228.407"/>
</g>
<!-- main.pl&#45;&gt;writeLog -->
<g id="edge23" class="edge"><title>main.pl&#45;&gt;writeLog</title>
<path fill="none" stroke="black" d="M36.5781,-751.969C83.3852,-663.853 288.09,-278.491 344.539,-172.223"/>
<polygon fill="black" stroke="black" points="347.783,-173.577 349.383,-163.104 341.601,-170.294 347.783,-173.577"/>
</g>
<!-- main.pl&#45;&gt;makeXlsFile -->
<g id="edge22" class="edge"><title>main.pl&#45;&gt;makeXlsFile</title>
<path fill="none" stroke="#838b8b" d="M35.8802,-751.812C81.6212,-658.125 290.629,-230.037 345.679,-117.284"/>
<polygon fill="#838b8b" stroke="#838b8b" points="348.85,-118.766 350.092,-108.245 342.56,-115.695 348.85,-118.766"/>
</g>
<!-- launcher.pl -->
<g id="node37" class="node"><title>launcher.pl</title>
<polygon fill="none" stroke="black" points="211.5,-1018 211.5,-1054 272.5,-1054 272.5,-1018 211.5,-1018"/>
<text text-anchor="middle" x="242" y="-1033.5" font-family="Times New Roman,serif" font-size="10.00">launcher.pl</text>
</g>
<!-- launcher.pl&#45;&gt;getSelect -->
<g id="edge30" class="edge"><title>launcher.pl&#45;&gt;getSelect</title>
<path fill="none" stroke="#8b4513" d="M272.615,-1051.71C287.858,-1059.79 306.551,-1069.71 322.557,-1078.2"/>
<polygon fill="#8b4513" stroke="#8b4513" points="321.149,-1081.41 331.623,-1083.01 324.429,-1075.23 321.149,-1081.41"/>
</g>
</g>
</svg>
